<mxfile host="Electron" agent="Mozilla/5.0 (Macintosh; Intel Mac OS X 10_15_7) AppleWebKit/537.36 (KHTML, like Gecko) draw.io/28.0.6 Chrome/138.0.7204.100 Electron/37.2.3 Safari/537.36" version="28.0.6">
  <diagram name="Page-1" id="ea9IZyxHkePgfC8eNpLO">
    <mxGraphModel dx="1426" dy="1973" grid="1" gridSize="10" guides="1" tooltips="1" connect="1" arrows="1" fold="1" page="1" pageScale="1" pageWidth="827" pageHeight="1169" math="0" shadow="0">
      <root>
        <mxCell id="0" />
        <mxCell id="1" parent="0" visible="0" />
        <mxCell id="NGXWd_OmVZItZIc-o513-2" value="" style="shape=image;verticalLabelPosition=bottom;labelBackgroundColor=default;verticalAlign=top;aspect=fixed;imageAspect=0;image=data:image/png,iVBORw0KGgoAAAANSUhEUgAABLAAAAJZCAYAAAC5usy/AAAAAXNSR0IArs4c6QAAIABJREFUeF7s3XeAnVW57/Hf3jPJlExPnQQUlSIdRUQ6ooKHIhJBlCKKQOiBQEiFNBICIbRQDOBRLHS7wNErCHo86vUooohSpKSRMpmZzEySSbLLve9kBoeYMrPftdd+32d/75/H/a61ns+zcu4+P/czb0L8PwQQQAABBBBAAAFnAtnddYmk2zdmtSIjdTpbmIUQQACBmAsMTGhoUvqV1um0xBKtj3k5HB8BBDwLJDzvx3YIIIAAAggggIBpgSDASkuzft6uifOa9EfTxVIcAggg0A+BR9+r6UOSShBg9QONjyKAwDsCBFhcBgQQQAABBBBAwKEAAZZDTJZCAAFTAgRYptpJMQh4FyDA8k7OhggggAACCCBgWYAAy3J3qQ0BBMIIEGCF0eNZBBAgwOIOIIAAAggggAACDgUIsBxishQCCJgSIMAy1U6KQcC7AAGWd3I2RAABBBBAAAHLAgRYlrtLbQggEEaAACuMHs8igAABFncAAQQQQAABBBBwKECA5RCTpRBAwJQAAZapdlIMAt4FCLC8k7MhAggggAACCFgWIMCy3F1qQwCBMAIEWGH0eBYBBAiwuAMIIIAAAggggIBDAQIsh5gshQACpgQIsEy1k2IQ8C5AgOWdnA0RQAABBBBAwLIAAZbl7lIbAgiEESDACqPHswggQIDFHUAAAQQQQAABBBwKEGA5xGQpBBAwJUCAZaqdFIOAdwECLO/kbIgAAggggAAClgUIsCx3l9oQQCCMAAFWGD2eRQABAizuAAIIIIAAAggg4FCAAMshJkshgIApAQIsU+2kGAS8CxBgeSdnQwQQQAABBBCwLECAZbm71IYAAmEECLDC6PEsAggQYHEHEEAAAQQQQAABhwIEWA4xWQoBBEwJEGCZaifFIOBdgADLOzkbIoAAAggggIBlAQIsy92lNgQQCCNAgBVGj2cRQIAAizuAAAIIIIAAAgg4FCDAcojJUgggYEqAAMtUOykGAe8CBFjeydkQAQQQQAABBCwLEGBZ7i61IYBAGAECrDB6PIsAAgRY3AEEEEAAAQQQQMChAAGWQ0yWQgABUwIEWKbaSTEIeBcgwPJOzoYIIIAAAgggYFmAAMtyd6kNAQTCCBBghdHjWQQQIMDiDiCAAAIIIIAAAg4FCLAcYrIUAgiYEiDAMtVOikHAuwABlndyNkQAAQQQQAABywIEWJa7S20IIBBGgAArjB7PIoAAARZ3AAEEEEAAAQQQcChAgOUQk6UQQMCUAAGWqXZSDALeBQiwvJOzIQIIIIAAAghYFiDAstxdakMAgTACBFhh9HgWAQQIsLgDCCCAAAIIIICAQwECLIeYLIUAAqYECLBMtZNiEPAuQIDlnZwNEUAAAQQQQMCyAAGW5e5SGwIIhBEgwAqjx7MIIECAxR1AAAEEEEAAAQQcChBgOcRkKQQQMCVAgGWqnRSDgHcBAizv5GyIAAIIIIAAApYFCLAsd5faEEAgjAABVhg9nkUAAQIs7gACCCCAAAIIIOBQgADLISZLIYCAKQECLFPtpBgEvAsQYHknZ0MEEEAAAQQQsCxAgGW5u9SGAAJhBAiwwujxLAIIEGBxBxBAAAEEEEAAAYcCBFgOMVkKAQRMCRBgmWonxSDgXYAAyzs5GyKAAAIIIICAZQECLMvdpTYEEAgjQIAVRo9nEUCAAIs7gAACCCCAAAIIOBQgwHKIyVIIIGBKgADLVDspBgHvAgRY3snZEAEEEEAAAQQsCxBgWe4utSGAQBgBAqwwejyLAAIEWNwBBBBAAAEEEEDAoQABlkNMlkIAAVMCBFim2kkxCHgXIMDyTs6GCCCAAAIIIGBZgADLcnepDQEEwggQYIXR41kEECDA4g4ggAACCCCAAAIOBQiwHGKyFAIImBIgwDLVTopBwLsAAZZ3cjZEAAEEEEAAAcsCBFiWu0ttCCAQRoAAK4wezyKAAAEWdwABBBBAAAEEEHAoQIDlEJOlEEDAlAABlql2UgwC3gUIsLyTsyECCCCAAAIIWBYgwLLcXWpDAIEwAgRYYfR4FgEECLC4AwgggAACCCCAgEMBAiyHmCyFAAKmBAiwTLWTYhDwLkCA5Z2cDRFAAAEEEEDAsgABluXuUhsCCIQRIMAKo8ezCCBAgMUdQAABBBBAAAEEHAoQYDnEZCkEEDAlQIBlqp0Ug4B3AQIs7+RsiAACCCCAAAKWBQiwLHeX2hBAIIwAAVYYPZ5FAAECLO4AAggggAACCCDgUIAAyyEmSyGAgCkBAixT7aQYBLwLEGB5J2dDBBBAAAEEELAsQIBlubvUhgACYQQIsMLo8SwCCBBgcQcQQAABBBBAAAGHAgRYDjFZCgEETAkQYJlqJ8Ug4F2AAMs7ORsigAACCCCAgGUBAizL3aU2BBAII0CAFUaPZxFAgACLO4AAAggggAACCDgUIMByiMlSCCBgSoAAy1Q7KQYB7wIEWN7J2RABBBBAAAEELAsQYFnuLrUhgEAYAQKsMHo8iwACBFjcAQQQQAABBBBAwKEAAZZDTJZCAAFTAgRYptpJMQh4FyDA8k7OhggggAACCCBgWYAAy3J3qQ0BBMIIEGCF0eNZBBAgwOIOIIAAAggggAACDgUIsBxishQCCJgSIMAy1U6KQcC7AAGWd3I2RAABBBBAAAHLAgRYlrtLbQggEEaAACuMHs8igAABFncAAQQQQAABBBBwKECA5RCTpRBAwJQAAZapdlIMAt4FCLC8k7MhAggggAACCFgWIMCy3F1qQwCBMAIEWGH0eBYBBAiwuAMIIIAAAggggIBDAQIsh5gshQACpgQIsEy1k2IQ8C5AgOWdnA0RQAABBBBAwLIAAZbl7lIbAgiEESDACqPHswggQIDFHUAAAQQQQAABBBwKEGA5xGQpBBAwJUCAZaqdFIOAdwECLO/kbIgAAggggAAClgUIsCx3l9oQQCCMAAFWGD2eRQABAizuAAIIIIAAAggg4FCAAMshJkshgIApAQIsU+2kGAS8CxBgeSdnQwQQQAABBBCwLECAZbm71IYAAmEECLDC6PEsAggQYHEHEEAAAQQQQAABhwIEWA4xWQoBBEwJEGCZaifFIOBdgADLOzkbIoAAAggggIBlAQIsy92lNgQQCCNAgBVGj2cRQIAAizuAAAIIIIAAAgg4FCDAcojJUgggYEqAAMtUOykGAe8CBFjeydkQAQQQQAABBCwLEGBZ7i61IYBAGAECrDB6PIsAAgRY3AEEEEAAAQQQQMChAAGWQ0yWQgABUwIEWKbaSTEIeBcgwPJOzoYIIIAAAgggYFmAAMtyd6kNAQTCCBBghdHjWQQQIMDiDiCAAAIIIIAAAg4FCLAcYrIUAgiYEiDAMtVOikHAuwABlndyNkQAAQQQQAABywIEWJa7S20IIBBGgAArjB7PIoAAARZ3AAEEEEAAAQQQcChAgOUQk6UQQMCUAAGWqXZSDALeBQiwvJOzIQIIIIAAAghYFiDAstxdakMAgTACBFhh9HgWAQQIsLgDCCCAAAIIIICAQwECLIeYLIUAAqYECLBMtZNiEPAuQIDlnZwNEUAAAQQQQMCyAAGW5e5SGwIIhBEgwAqjx7MIIECAxR1AAAEEEEAAAQQcChBgOcRkKQQQMCVAgGWqnRSDgHcBAizv5GyIAAIIIIAAApYFCLAsd5faEEAgjAABVhg9nkUAAQIs7gACCCCAAAIIIOBQgADLISZLIYCAKQECLFPtpBgEvAsQYHknZ0MEEEAAAQQQsCxAgGW5u9SGAAJhBAiwwujxLAIIEGBxBxBAAAEEEEAAAYcCBFgOMVkKAQRMCRBgmWonxSDgXYAAyzs5GyKAAAIIIICAZQECLMvdpTYEEAgjQIAVRo9nEUCAAIs7gAACCCCAAAIIOBQgwHKIyVIIIGBKgADLVDspBgHvAgRY3snZEAEEEEAAAQQsCxBgWe4utSGAQBgBAqwwejyLAAIEWNwBBBBAAAEEEEDAoQABlkNMlkIAAVMCBFim2kkxCHgXIMDyTs6GCCCAAAIIIGBZgADLcnepDQEEwggQYIXR41kEECDA4g4ggAACCCCAAAIOBQiwHGKyFAIImBIgwDLVTopBwLsAAZZ3cjZEAAEEEEAAAcsCBFiWu0ttCCAQRoAAK4wezyKAAAEWdwABBBBAAAEEEHAoQIDlEJOlEEDAlAABlql2UgwC3gUIsLyTsyECCCCAAAIIWBYgwLLcXWpDAIEwAgRYYfR4FgEECLC4AwgggAACCCCAgEMBAiyHmCyFAAKmBAiwTLWTYhDwLkCA5Z2cDRFAAAEEEEDAsgABluXuUhsCCIQRIMAKo8ezCCBAgMUdQAABBBBAAAEEHAoQYDnEZCkEEDAlQIBlqp0Ug4B3AQIs7+RsiAACCCCAAAKWBQiwLHeX2hBAIIwAAVYYPZ5FAAECLO4AAggggAACCCDgUIAAyyEmSyGAgCkBAixT7aQYBLwLEGB5J2dDBBBAAAEEELAsQIBlubvUhgACYQQIsMLo8SwCCBBgcQcQQAABBBBAAAGHAgRYDjFZCgEETAkQYJlqJ8Ug4F2AAMs7ORsigAACCCCAgGUBAizL3aU2BBAII0CAFUaPZxFAgACLO4AAAggggAACCDgUIMByiMlSCCBgSoAAy1Q7KQYB7wIEWN7J2RABBBBAAAEELAsQYFnuLrUhgEAYAQKsMHo8iwACBFjcAQQQQAABBBBAwKEAAZZDTJZCAAFTAgRYptpJMQh4FyDA8k7OhggggAACCCBgWYAAy3J3qQ0BBMIIEGCF0eNZBBAgwOIOIIAAAggggAACDgUIsBxishQCCJgSIMAy1U6KQcC7AAGWd3I2RAABBBBAAAHLAgRYlrtLbQggEEaAACuMHs8igAABFncAAQQQQAABBBBwKECA5RCTpRBAwJQAAZapdlIMAt4FCLC8k7MhAggggAACCFgWIMCy3F1qQwCBMAIEWGH0eBYBBAiwuAMIIIAAAggggIBDAQIsh5gshQACpgQIsEy1k2IQ8C5AgOWdnA0RQAABBBBAwLIAAZbl7lIbAgiEESDACqPHswggQIDFHUAAAQQQQAABBBwKEGA5xGQpBBAwJUCAZaqdFIOAdwECLO/kbIgAAggggAAClgUIsCx3l9oQQCCMAAFWGD2eRQABAizuAAIIIIAAAggg4FCAAMshJkshgIApAQIsU+2kGAS8CxBgeSdnQwQQQAABBBCwLECAZbm71IYAAmEECLDC6PEsAggQYHEHEEAAAQQQQAABhwIEWA4xWQoBBEwJEGCZaifFIOBdgADLOzkbIoAAAggggIBlAQIsy92lNgQQCCNAgBVGj2cRQIAAizuAAAIIIIAAAgg4FCDAcojJUgggYEqAAMtUOykGAe8CBFjeydkQAQQQQAABBCwLEGBZ7i61IYBAGAECrDB6PIsAAgRY3AEEEEAAAQQQQMChAAGWQ0yWQgABUwIEWKbaSTEIeBcgwPJOzoYIIIAAAgggYFmAAMtyd6kNAQTCCBBghdHjWQQQIMDiDiCAAAIIIIAAAg4FCLAcYrIUAgiYEiDAMtVOikHAuwABlndyNkQAAQQQQAABywIEWJa7S20IIBBGgAArjB7PIoAAARZ3AAEEEEAAAQQQcChAgOUQk6UQQMCUAAGWqXZSDALeBQiwvJOzIQIIIIAAAghYFiDAstxdakMAgTACBFhh9HgWAQQIsLgDCCCAAAIIIICAQwECLIeYLIUAAqYECLBMtZNiEPAuQIDlnZwNEUAAAQQQQMCyAAGW5e5SGwIIhBEgwAqjx7MIIECAxR1AAAEEEEAAAQQcChBgOcRkKQQQMCVAgGWqnRSDgHcBAizv5GyIAAIIIIAAApYFCLAsd5faEEAgjAABVhg9nkUAAQIs7gACCCCAAAIIIOBQgADLISZLIYCAKQECLFPtpBgEvAsQYHknZ0MEEEAAAQQQsCxAgGW5u9SGAAJhBAiwwujxLAIIEGBxBxBAAAEEEEAAAYcCBFgOMVkKAQRMCRBgmWonxSDgXYAAyzs5GyKAAAIIIICAZQECLMvdpTYEEAgjQIAVRo9nEUCAAIs7gAACCCCAAAIIOBQgwHKIyVIIIGBKgADLVDspBgHvAgRY3snZEAEEEEAAAQQsCxBgWe4utSGAQBgBAqwwejyLAAIEWNwBBBBAAAEEEEDAoQABlkNMlkIAAVMCBFim2kkxCHgXIMDyTs6GCCCAAAIIIGBZgADLcnepDQEEwggQYIXR41kEECDA4g4ggAACCCCAAAIOBQiwHGKyFAIImBIgwDLVTopBwLsAAZZ3cjZEAAEEEEAAAcsCBFiWu0ttCCAQRoAAK4wezyKAAAEWdwABBBBAAAEEEHAoQIDlEJOlEEDAlAABlql2UgwC3gUIsLyTsyECCCCAAAIIWBYgwLLcXWpDAIEwAgRYYfR4FgEECLC4AwgggAACCCCAgEMBAiyHmCyFAAKmBAiwTLWTYhDwLkCA5Z2cDRFAAAEEEEDAsgABluXu+q1t/4Gq37NS9UNLVJXIqqY0oYEZabvf31elteK7rXrR70nZDYG+CRBg9c2JTyGAwNYFCLC4GQgggAACCCCAgEMBAiyHmEW6VJU0YPIInfCBgfrEoIR2rUhqSGIHwVUP1eq0fnbaIk0pUjrKjrgAAVbEG8TxEIi4AAFWxBvE8RBAAAEEEEAgXgIEWPHqV9ROWyol5o/QOXuV6/yShMoyWWVaM1q2LqPVGWnjjs7bnNIfxi3Xf+7oc/znCBRCgACrEOrsiYAdAQIsO72kEgQQQAABBBCIgAABVgSaEOMjfLFWu51Zp7nlCe381kb94P4WfeO367U8xiVxdATeESDA4jIggEAYAQKsMHo8iwACCCCAAAIIbCFAgMWVCCMwc7hOOrRCU1em9D/XvK3JS9JaH2Y9nkUgSgIEWFHqBmdBIH4CBFjx6xknRgABBBBAAIEICxBgRbg5MTjawpG6crcynXlrk879Sbv+EoMjc0QE+ixAgNVnKj6IAAJbESDA4loggAACCCCAAAIOBQiwHGIW4VIP7ayZw0t1/BcX6cgVaa0rQgJKNixAgGW4uZSGgAcBAiwPyGyBAAIIIIAAAsUjQIBVPL3OR6UP7qwZI0p1wleX6lNvbFRLPvZgTQQKJUCAVSh59kXAhgABlo0+UgUCCCCAAAIIRESAACsijYjpMe5q1GV7luucB1s09v5W/SamZXBsBLYqQIDFxUAAgTACBFhh9HgWAQQQQAABBBDYQoAAiysRRuDaYTr2qEGasTqlv01fqXF/36C2MOvxLAJREiDAilI3OAsC8RMgwIpfzzgxAggggAACCERYgAArws2JwdE+PUijLhisG+pKtNeSTfr5PzboF79u12tvZdS2Pq1NqR3UkE4o1ZbShhiUyhGLUIAAqwibTskIOBQgwHKIyVIIIIAAAggggAABFncgjECplLi4QYd/tlY3Z6VkNqsNGWmjpIwSyu5o7aaUfnnGYs3Z0ef4zxEohAABViHU2RMBOwIEWHZ6SSUIIIAAAgggEAEBAqwINMHAEc6s0T4n1erc6qTem0xoUEIaICm5o9KaUnrmrCWataPP8Z8jUAgBAqxCqLMnAnYECLDs9JJKEEAAAQQQQCACAgRYEWiCkSMMLlXZURVqbCzV4LISVSSlkh0lWCvTWvnNFv3dCAFlGBMgwDLWUMpBwLMAAZZncLZDAAEEEEAAAdsCBFi2+0t1CCCQuwABVu52PIkAAhIBFrcAAQQQQAABBBBwKECA5RCTpRBAwJQAAZapdlIMAt4FCLC8k7MhAggggAACCFgWIMCy3F1qQwCBMAIEWGH0eBYBBAiwuAMIIIAAAggggIBDAQIsh5gshQACpgQIsEy1k2IQ8C5AgOWdnA0RQAABBBBAwLIAAZbl7lIbAgiEESDACqPHswggQIDFHUAAAQQQQAABBBwKEGA5xGQpBBAwJUCAZaqdFIOAdwECLO/kbIgAAggggAAClgUIsCx3l9oQQCCMAAFWGD2eRQABAizuAAIIIIAAAggg4FCAAMshJkshgIApAQIsU+2kGAS8CxBgeSdnQwQQQAABBBCwLECAZbm71IYAAmEECLDC6PEsAggQYHEHEEAAAQQQQAABhwIEWA4xWQoBBEwJEGCZaifFIOBdgADLOzkbIoAAAggggIBlAQIsy92lNgQQCCNAgBVGj2cRQIAAizuAAAIIIIAAAgg4FCDAcojJUgggYEqAAMtUOykGAe8CBFjeydkQAQQQQAABBCwLEGBZ7i61IYBAGAECrDB6PIsAAgRY3AEEEEAAAQQQQMChAAGWQ0yWQgABUwIEWKbaSTEIeBcgwPJOzoYIIIAAAgggYFmAAMtyd6kNAQTCCBBghdHjWQQQIMDiDiCAAAIIIIAAAg4FCLAcYrIUAgiYEiDAMtVOikHAuwABlndyNkQAAQQQQAABywIEWJa7S20IIBBGgAArjB7PIoAAARZ3AAEEEEAAAQQQcChAgOUQk6UQQMCUAAGWqXZSDALeBQiwvJOzIQIIIIAAAghYFiDAstxdakMAgTACBFhh9HgWAQQIsLgDCCCAAAIIIICAQwECLIeYLIUAAqYECLBMtZNiEPAuQIDlnZwNEUAAAQQQQMCyAAGW5e5SGwIIhBEgwAqjx7MIIECAxR1AAAEEEEAAAQQcChBgOcRkKQQQMCVAgGWqnRSDgHcBAizv5GyIAAIIIIAAApYFCLAsd5faEEAgjAABVhg9nkUAAQIs7gACCCCAAAIIIOBQgADLISZLIYCAKQECLFPtpBgEvAsQYHknZ0MEEEAAAQQQsCxAgGW5u9SGAAJhBAiwwujxLAIIEGBxBxBAAAEEEEAAAYcCBFgOMVkKAQRMCRBgmWonxSDgXYAAyzs5GyKAAAIIIICAZQECLMvdpTYEEAgjQIAVRo9nEUCAAIs7gAACCCCAAAIIOBQgwHKIyVIIIGBKgADLVDspBgHvAgRY3snZEAEEEEAAAQQsCxBgWe4utSGAQBgBAqwwejyLAAIEWNwBBBBAAAEEEEDAoQABlkNMlkIAAVMCBFim2kkxCHgXIMDyTs6GCCCAAAIIIGBZgADLcnepDQEEwggQYIXR41kEECDA4g4ggAACCCCAAAIOBQiwHGKyFAIImBIgwDLVTopBwLsAAZZ3cjZEAAEEEEAAAcsCBFiWu0ttCCAQRoAAK4wezyKAAAEWdwABBBBAAAEEEHAoQIDlEJOlEEDAlAABlql2UgwC3gUIsLyTsyECCCCAAAIIWBYgwLLcXWpDAIEwAgRYYfR4FgEECLC4AwgggAACCCCAgEMBAiyHmCyFAAKmBAiwTLWTYhDwLkCA5Z2cDRFAAAEEEEDAsgABluXuUhsCCIQRIMAKo8ezCCBAgMUdQAABBBBAAAEEHAoQYDnEZCkEEDAlQIBlqp0Ug4B3AQIs7+RsiAACCCCAAAKWBQiwLHeX2hBAIIwAAVYYPZ5FAAECLO4AAggggAACCCDgUIAAyyEmSyGAgCkBAixT7aQYBLwLEGB5J2dDBBBAAAEEELAsQIBlubvUhgACYQQIsMLo8SwCCBBgcQcQQAABBBBAAAGHAgRYDjFZCgEETAkQYJlqJ8Ug4F2AAMs7ORsigAACCCCAgGUBAizL3aU2BBAII0CAFUaPZxFAgACLO4AAAggggAACCDgUIMByiMlSCCBgSoAAy1Q7KQYB7wIEWN7J2RABBBBAAAEELAsQYFnuLrUhgEAYAQKsMHo8iwACBFjcAQQQQAABBBBAwKEAAZZDTJZCAAFTAgRYptpJMQh4FyDA8k7OhggggAACCCBgWYAAy3J3qQ0BBMIIEGCF0eNZBBAgwOIOIIAAAggggAACDgUIsBxishQCCJgSIMAy1U6KQcC7AAGWd3I2RAABBBBAAAHLAgRYlrtLbQggEEaAACuMHs8igAABFncAAQQQQAABBBBwKECA5RCTpRBAwJQAAZapdlIMAt4FCLC8k7MhAggggAACCFgWIMCy3F1qQwCBMAIEWGH0eBYBBAiwuAMIIIAAAggggIBDAQIsh5gshQACpgQIsEy1k2IQ8C5AgOWdnA0RQAABBBBAwLIAAZbl7lIbAgiEESDACqPHswggQIDFHUAAAQQQQAABBBwKEGA5xGQpBBAwJUCAZaqdFIOAdwECLO/kbIgAAggggAAClgUIsCx3l9oQQCCMAAFWGD2eRQABAizuAAIIIIAAAggg4FCAAMshJkshgIApAQIsU+2kGAS8CxBgeSdnQwQQQAABBBCwLECAZbm71IYAAmEECLDC6PEsAggQYHEHEEAAAQQQQAABhwIEWA4xWQoBBEwJEGCZaifFIOBdgADLOzkbIoAAAggggIBlAQIsy92lNgQQCCNAgBVGj2cRQIAAizuAAAIIIIAAAgg4FCDAcojJUgggYEqAAMtUOykGAe8CBFjeydkQAQQQQAABBCwLEGBZ7i61IYBAGAECrDB6PIsAAgRY3AEEEEAAAQQQQMChAAGWQ0yWQgABUwIEWKbaSTEIeBcgwPJOzoYIIIAAAgggYFmAAMtyd6kNAQTCCBBghdHjWQQQIMDiDiCAAAIIIIAAAg4FCLAcYrIUAgiYEiDAMtVOikHAuwABlndyNkQAAQQQQAABywIEWJa7S20IIBBGgAArjB7PIoAAARZ3AAEEEEAAAQQQcChAgOUQk6UQQMCUAAGWqXZSDALeBQiwvJOzIQIIIIAAAghYFiDAstxdakMAgTACBFhh9HgWAQQIsLgDCCCAAAIIIICAQwECLIeYLIUAAqYECLBMtZNiEPAuQIDlnZwNEUAAAQQQQMCyAAGW5e5SGwIIhBEgwAqjx7MIIECAxR1AAAEEEEAAAQQcChBgOcRkKQQQMCVAgGWqnRSDgHcBAizv5GyIAAIIIIAAApYFCLAsd5faEEAgjAABVhg9nkUAAQIs7gACCCCAAAIIIOC2l/lOAAAgAElEQVRQgADLISZLIYCAKQECLFPtpBgEvAsQYHknZ0MEEEAAAQQQsCxAgGW5u9SGAAJhBAiwwujxLAIIEGBxBxBAAAEEEEAAAYcCBFgOMVkKAQRMCRBgmWonxSDgXYAAyzs5GyKAAAIIIICAZQECLMvdpTYEEAgjQIAVRo9nEUCAAIs7gAACCCCAAAIIOBQgwHKIyVIIIGBKgADLVDspBgHvAgRY3snZEAEEEEAAAQQsCxBgWe4utSGAQBgBAqwwejyLAAIEWNwBBBBAAAEEEEDAoQABlkNMlkIAAVMCBFim2kkxCHgXIMDyTs6GCCCAAAIIIGBZgADLcnepDQEEwggQYIXR41kEECDA4g4ggAACCCCAAAIOBQiwHGKyFAIImBIgwDLVTopBwLsAAZZ3cjZEAAEEEEAAAcsCBFiWu0ttCCAQRoAAK4wezyKAAAEWdwABBBBAAAEEEHAoQIDlEJOlEEDAlAABlql2UgwC3gUIsLyTsyECCCCAAAIIWBYgwLLcXWpDAIEwAgRYYfR4FgEECLC4AwgggAACCCCAgEMBAiyHmCyFAAKmBAiwTLWTYhDwLkCA5Z2cDRFAAAEEEEDAsgABluXuUhsCCIQRIMAKo8ezCCBAgMUdQAABBBBAAAEEHAoQYDnEZCkEEDAlQIBlqp0Ug4B3AQIs7+RsiAACCCCAAAKWBQiwLHeX2hBAIIwAAVYYPZ5FAAECLO4AAggggAACCCDgUIAAyyEmSyGAgCkBAixT7aQYBLwLEGB5J2dDBBBAAAEEELAsQIBlubvUhgACYQQIsMLo8SwCCBBgcQcQQAABBBBAAAGHAgRYDjFZCgEETAkQYJlqJ8Ug4F2AAMs7ORsigAACCCCAgGUBAizL3aU2BBAII0CAFUaPZxFAgACLO4AAAggggAACCDgUIMByiMlSCCBgSoAAy1Q7KQYB7wIEWN7J2RABBBBAAAEELAsQYFnuLrUhgEAYAQKsMHo8iwACBFjcAQQQQAABBBBAwKEAAZZDTJZCAAFTAgRYptpJMQh4FyDA8k7OhggggAACCCBgWYAAy3J3qQ0BBMIIEGCF0eNZBBAgwOIOIIAAAggggAACDgUIsBxishQCCJgSIMAy1U6KQcC7AAGWd3I2RAABBBBAAAHLAgRYlrtLbQggEEaAACuMHs8igAABFncAAQQQQAABBBBwKECA5RCTpRBAwJQAAZapdlIMAt4FCLC8k7MhAggggAACCFgWIMCy3F1qQwCBMAIEWGH0eBYBBAiwuAMIIIAAAggggIBDAQIsh5gshQACpgQIsEy1k2IQ8C5AgOWdnA0RQAABBBBAwLIAAZbl7lIbAgiEESDACqPHswggQIDFHUAAAQQQQAABBBwKEGA5xGQpBBAwJUCAZaqdFIOAdwECLO/kbIgAAggggAAClgUIsCx3l9oQQCCMAAFWGD2eRQABAizuAAIIIIAAAggg4FCAAMshJkshgIApAQIsU+2kGAS8CxBgeSdnQwQQQAABBBCwLECAZbm71IYAAmEECLDC6PEsAggQYHEHEEAAAQQQQAABhwIEWA4xWQoBBEwJEGCZaifFIOBdgADLOzkbIoAAAggggIBlAQIsy92lNgQQCCNAgBVGj2cRQIAAizuAAAIIIIAAAgg4FCDAcojJUgggYEqAAMtUOykGAe8CBFjeydkQAQQQQAABBCwLEGBZ7i61IYBAGAECrDB6PIsAAgRY3AEEEEAAAQQQQMChAAGWQ0yWQgABUwIEWKbaSTEIeBcgwPJOzoYIIIAAAgggYFmAAMtyd6kNAQTCCBBghdHjWQQQIMDiDiCAAAIIIIAAAg4FCLAcYrIUAgiYEiDAMtVOikHAuwABlndyNkQAAQQQQAABywIEWJa7S20IIBBGgAArjB7PIoAAARZ3AAEEEEAAAQQQcChAgOUQk6UQQMCUAAGWqXZSDALeBQiwvJOzIQIIIIAAAghYFiDAstxdakMAgTACBFhh9HgWAQQIsLgDCCCAAAIIIICAQwECLIeYLIUAAqYECLBMtZNiEPAuQIDlnZwNEUAAAQQQQMCyAAGW5e5SGwIIhBEgwAqjx7MIIECAxR1AAAEEEEAAAQQcChBgOcRkKQQQMCVAgGWqnRSDgHcBAizv5GyIAAIIIIAAApYFCLAsd5faEEAgjAABVhg9nkUAAQIs7gACCCCAAAIIIOBQgADLISZLIYCAKQECLFPtpBgEvAsksrvrh5JO9r4zGyKAAAIIIIAAAggggAACCCCAAAIIINAHgSDAygafa0rppytSerEPz/ARBBBAwLRAXYlGjRqgs4Mi2zL63eKNetZ0wRSHAAJOBfYo03mlCQ0JFl2b0R/TWa13ugGLIYAAAjEUqC7RwQlpQHD0Vzfqto0ZdcawDI6MAAIFEGgo1c7DS3TKOwFWNqt1j7Tp/Hub9XIBzsOWCCCAQCQEPlejncY0aGFpQsODAy3epAfOWaIFkTgch0AAgVgIPLmLHi1P6P3BYddl9ZeLl+jiWBycQyKAAAJ5Epg8XJ/bbaAuS0ilwRZXLdMxz29QW562Y1kEEDAmMH6IDjy2WnO7AqyVKT1entCIyqQ++EyHptzapOc3SBljNVMOAgggsF2Bs+v0vtNrNTUpVb62SY/uU6YpBFhcGgQQ6K9AEGANSKh+eUo/HF6i49Zl9PodLZr1TLtW93ctPo8AAgjEXeCmEfr0/uW6rCWtXyWTqhiS1IkEWHHvKudHwK/AuwKsNzdq4QMtevySwbqiukR7/6JNs+Y36wW/R2I3BBBAoHACwS+vvtygmcqq85stmrNruRqPG6R7CLAK1xN2RiCuAj0B1s/bNbFUShxVpSnrMnp51mrNeX4tvziIa185NwII9F/gzkZ9bvcynft2Wk+Nf1sL7xylKQRY/XfkCQSKXeDfAqxzl+q+D5WpZsowTaov0eGPtOk8xgmL/ZpQPwLFIXBarUadV697M1m1/2errnpsjZZOGKaDCLCKo/9UiYBrgd4B1rwm/fGrDdr19FrduiGrJSe9qYtc78d6CCCAQBQF7hyp0XuW6coVKT1x6du6uTmlVPdbCPkFVhQbxpkQiLDAVgOs4LzHVGrw5UN0bWVSezzToamME0a4ixwNAQRCC5xTr11Oq9HUEqny/hZd8702LQkWJcAKTcsCCBStwJYBVgAxbbgOPaRSkzrTeu22Fs1+tl1NRQtE4QggYF7g5hE6br8KXdaU0q/PWKwbewomwDLfegpEIC8C2wywgt2OqlR9ME5YU6K9f96umbes1l/ycgoWRQABBAooEIwNfqVBM9MZbXiwVbP//y9Pu8IrAqwCNoWtETAgsLUAKyhr4hAdeHSVpgbjhDNWaPYLG9RuoFxKQAABBN4lsKBRp+5Rpq+sSOupq97WwpUpbSLA4pIggEAYge0GWMHCwTjhtcM0qbZURzy2Rud+rVmvhNmQZxFAAIEoCfSMDaaltd9o0ZXB2GDv8/ELrCh1i7MgEC+BbQVYQRVfadBuXeOEGS05+S1dGK/KOC0CCCCwfYE7Rmr03mW6clVKT178tuYFY4O9n+AXWNwgBBDIRWCHAVawaDBOOHaIrq1IavdnOnQt44S5UPMMAghETeCseu1yevfY4AMtuqb3L696zkqAFbWucR4E4iOwvQArqKJnnHB9Rq/e3qw5jBPGp7ecFAEEti1w0wgdd0CFLlud1q++uEg3be2TBFjcIAQQyEWgTwFWsPBhlaofyzhhLsY8gwACERToPTb4nVbNeaxNi7d2TAKsCDaPIyEQE4EdBVhBGT3jhB0ZvTx9ha5/cYM6YlIex0QAAQT+TaB7bPDcFWk9Of5t3bs8pY0EWFwUBBBwJdDnACvYsGuccLgm15Z0jRN+hXFCV21gHQQQ8CkwulajLmzQwnRW6+9r0RXf32JssPdZCLB8doa9ELAl0JcAK6j4vAbt9vnuccKTGCe0dQmoBoEiErhjpE7Ze6DGrUrrqTFv68Y1KaW3VT6/wCqii0GpCDgU6FeAFex7dIWGXDFUUyuT2u2ZDl3HOKHDbrAUAgjkXaB7bHBKSUKVDzRrwtbGBgmw8t4GNkCgKAT6GmAFGNOG67DDKjVxbUav3tWsOb/g7YRFcUcoEgErAsHYYPC2wea0fnXGNsYGe9dKgGWl89SBgF+BfgdYwfF6xgmrN7+dcMatq/VXv8dmNwQQQKD/AsHY4JfrNUtZdX63VXMe3sbYIAFW/215AgEE/l2gPwFW8HTwpewTVZoajBNet0KzXtqgtbgigAACURe4s1Gn7l6mc99O6ampy7Vw8TbGBgmwot5JzodA9AVyCrCCsoJxwinDNbW+RIc/tkZfZpww+s3mhAgUs0CvscHO+1o0dntjgwRYxXxTqB0BdwL9DbCCnbvGCWt024aslpz0lsa4Ow0rIYAAAu4Fbh+pz+4zUFetSuu/xrytudsbGyTAcu/PiggUm0DOAVYA9clqDbm0XtdWlugDz7RrGuOExXZ9qBeBeAj0GhuseKBZE3c0NkiAFY++ckoEoi6QS4AV1BSMEx5SqUnrM3r5rmbdwDhh1DvN+RAoToF5jTp2/3Jd1pTWr/syNkiAVZz3hKoRcCkQKsAKDtL77YRPtmvGHYwTuuwPayGAQEiBrrcN1mtWth9jgwRYIdF5HAEEugRyDbCCZycM0Yc/XqVrGSfkMiGAQBQFgrHBPcp07rKUnpq8XPcuTWlDf87J38DqjxafRQCBHoHQAVawUPfbCad2v53wHMYJuWAIIBAFgVNrNfKCBi3MZLTx3lZd3texQQKsKHSPMyAQf4EwAVZQ/fkN2v20Gt26IaulJ72lC+IvQgUIIGBB4PYROnmfcl29KqOfnbdIczqkTH/rIsDqrxifRwCBQMBJgBUs1D1OOLW8RLs+yzghtwsBBAosEIwNfr5GU0oTKn+gWZP6MzZIgFXg5rE9AkYEwgZYAUPP2wk7MnrlbsYJjdwMykAgvgLB2wYPqNClTZv0qzOWaF6ulRBg5SrHcwgUt4CzACtgPKJSdZcN1hXVSe37sw5Nu221XixuXqpHAIFCCJxeo53Ortf16e6xwUfbtCjXc0wYpoOOG6R7Fm/SA+cs0YJc1+E5BBAoPgEXAVagdvUQfegTVbou+JtY41dq5j87ta74NKkYAQQKLXDXKJ222wCduyKlJyfmMDbY+/wEWIXuJvsjEE8BpwFWQHBgmaqnDNd1tUkd+XCbzr6vWa/Ek4ZTI4BAHAVOqdXIMQ26V1ltXNiiS3+wRsvC1EGAFUaPZxEobgFXAVag2D1OGLydMBgnPL+4ZakeAQR8C9zeqM/sU67xq9P62dmLNGdDDmODBFi+u8Z+CNgTcB5gBUTvjBMm9YFnOzT99ib9ab2UtcdHRQggECWB7rcNTk5IFd9uyX1ssHdNBFhR6jBnQSBeAi4DrKDy6cN1+KGVmtiR0T/ubtZc3k4Yr/vAaRGIq0AwNrhfhS5tSem5Ly7WzS7q4BdYLhRZA4HiE8hLgBUwHlKpunGDdUVVUvs+2aFpCxgnLL7bRcUIeBToGRvMSp0PtmjOQyHGBgmwPDaOrRAwLOA6wAqoeo8TTlipGa92ar1hQkpDAIECC9zdqFN3K9NXg7cNTluuhW/2822D2zo+AVaBG8v2CMRUIG8BVuDRPU44rbZERz68RmcxThjTW8KxEYi4QDA2eFG9Fmak9MIWXRx2bJAAK+IN53gIxEQgHwFWUPqFDdp9dI1u25jV0hMZJ4zJbeCYCMRP4NZGfWa/zWODPz9jka5POZyoIcCK333gxAhEQSCvAVZQYK9xwvc/26EZjBNGoe2cAQE7AmfU671fCN42KJU/0KLJub5tcFsijBDauStUgoBvgXwFWEEd74wTpvX3u1t0I+OEvrvLfgjYFugZG2xO6bkzHI0N9hYjwLJ9f6gOgXwJ5D3ACg4ejBNeOVhX1iS1zxMdum7Bav0tXwWxLgIIFI9A99jg7Ky03uXYYG9BAqziuU9UioBrgXwGWMFZrxqqAz41SNety+iVK5Zp+qKUOl3XwHoIIFB8Anc26tTdy3Te2yk9ee1y3ZuP/91CgFV894qKEXAh4CXACg4ajBNOHaHpwdsJH1qjMxkndNE+1kCgeAW6xwa/lpGyC1t0kcuxQQKs4r1XVI6AS4F8B1jBWS9q0B6n1Oi2DdLSk97UeS7Pz1oIIFB8Arc06qT9y3TN6oz+zxmLNMvl2GBvTQKs4rtbVIyACwFvAVZw2GCc8LJ6Ta1I6n3PdGjmzU36U77+l6ILHNZAAIFoCgRjg1+sUc/bBp2PDRJgRbPvnAqBuAn4CLACk5nDdfjBFZq0NqOXGCeM2y3hvAhER2Beo47dt1yX5WtskAArOr3mJAjEVcBrgBUg9R4n/Gmbrr2zRS/FFY9zI4CAf4GescG01PlIm+Y82KK38nkKRgjzqcvaCNgW8BVgBYpXDdX+nxqkacE44WXLNG2pozeF2e4Q1SGAQI/AXaN02u4D9dXlm/TktCbd+3pnfkeS+QUWdw8BBHIR8B5gBYfsejvhCM2oS+rIR9boiwub9Wouh+cZBBAoLoGTq9R4yRAtDKq+q0ljftSht/MtQICVb2HWR8CugM8AK1AMxgmDtxMG44QnMk5o92JRGQKOBW5p1In7l2vC6pR+8fnFmuF4+a0uR4DlQ5k9ELAnUJAAK2DsfjvhteVJ7fJ0h2beyjihvdtFRQg4FAjGBk+v0eQSqfzbLZri+m2D2zoqAZbDJrIUAkUm4DvACniDccKPVWhSR0Z/u7tFN/F2wiK7dJSLQD8FgrHB/ct1aVNKv8rH2wa3dRwCrH42io8jgECXQMECrGDznnHC6qT2/WmbptzVor/TFwQQQGBLge6xwTnB2wYf8jA22Ht/AizuIwII5CpQiAArOGvvccKLl+m65SltzLUGnkMAAbsCwdsG9yjXeb7GBntLEmDZvVdUhkA+BQoaYAWFfahMNdOGa0ZNiY54aI3O4O2E+Ww3ayMQP4HgbYNj6nVPUkrc06IL8/W2wW3JEGDF785wYgSiIlCoACuo/5Ih2vPkKt2yUVr62Td1Pi/Nicqt4BwIRENgfqNO2L9ME1vS+sVpnsYGCbCi0XtOgUCcBQoeYAV4PW8nLEtql2c7NIu3E8b5SnF2BNwJfLFG7zmj/p23DXobG+xdAQGWu36yEgLFJlDIACuwnjFMRxxSqYmMExbbzaNeBLYvcGOjjv1QmS5tSvsdGyTA4mYigEBYgUgEWEERB1eq9qrBGlddon1/skaT727RP8IWx/MIIBBfgWBs8Jx6zUlJnQ+3aXa+3za4LSkCrPjeIU6OQKEFCh1gBfWPG6z9jq3W9ODthBcu07UrU9pUaBf2RwCBwgnc3ahTdyvX+cHY4Mwm3ftqp9YX4jSMEBZCnT0RiL9AZAKsgPKgMtVM6R4nfHSNzvhas16JPzEVIIBAfwW6xwbvTkol97RojO+xwd7nJcDqb/f4PAII9AhEIcAKznLpEO31mSrND8YJP/emLtggZegSAggUn0D32OCElqyeOe0tTS+kAAFWIfXZG4H4CkQqwAoYe72d8D1Pd+h63k4Y38vFyRHIRaDX2GDwtsGpvt42uK2zEmDl0kWeQQCBQCAqAVZwlu5xwuDthH+9u0XzeDshdxSB4hLoGRtcldZzZy7W/EJXT4BV6A6wPwLxFIhcgBUwBuOE4wdrXFWJ9v0x44TxvFmcGoEcBLrfNnhD8LbBR9o05zstejOHZZw+QoDllJPFECgqgSgFWAH82MHa7z+6xwnPW6apzSmliqohFItAkQp0v22w4GODvfkJsIr0MlI2AiEFIhlgBTUdNEg1UwZrZk2JDn94jc78RrNe5o82hOw2jyMQYYHuscE7ldDAhc26oJBjg72ZCLAifGk4GgIRF4hagBVwXTZYe59UrZuDccLT39SYtVI64owcDwEEchQYIGnuCB2/f4UmNKf17OcXaVqOSzl/jADLOSkLIlAUApENsAL9Xm8nfO8vOzRrfpOe5zXQRXEvKbLIBD5fo/ecWafJJQlFYmyQAKvILiDlIpAngSgGWEGps4bpiIMrxThhnvrOsghERSAYG9y/TJeujsjYYG8XAqyo3BLOgUC8BCIdYAWUPW8nrCnRvt9v06R7m/VyvIg5LQIIbE+g622DDbohlVXno22aHYWxQQIs7iwCCLgQiGqAFdR2+WDte3y1ZgRvJzx7maasTfFLLBc9Zw0EoiLQPTZ4QffbBhcW6m2D2/IgwIrKTeEcCMRLIPIBVk+INWmIZgTjhI+06qyvt+hlfokVr4vGaRHYmsDoWo26oE53JJMaeG+zxjy+RsuiJsUIYdQ6wnkQiI9AlAOsQPGywdrnM9W6aYO07IwlurCNv4kVn8vFSRHYhkCplLhxhD7dPTb4XJTGBnsfmQCLK4wAArkIxCLACgrrfjvh1PKkgrcTzp7XpD/mUjDPIIBANAS+UKOdg7HBRELl32jRtd9r05JonOzdpyDAimJXOBMC8RCIeoAVKHaPE07uyOiFu1t0M28njMfd4pQIbEtgXqOO3bdMlzal9dxZEXjb4LbOSYDFHUYAgVwEYhNgBcUdWKnaCYM1rqZE+/2wTRO+1qxXcimaZxBAoLAC3WODc9PZrrcNRm5ssLcOAVZh7wq7IxBngTgEWIFv8EusE6o1c11Gr35pkSZ1SJk4u3N2BIpV4O5GnbprucasSOmJmasUubHB3n0hwCrWW0rdCIQTiFWAFZQa/E2sSUO63k542OOtOutexgnD3QCeRsCzQDA2eH69bg/+YPvXmjXm+2u01PMR+rUdAVa/uPgwAgj0EohLgBUc+crB2vc/qnXjRmnZ2Ut0UUtKvPyZ24xATAR6xgb3q9CENWk9d2qE3ja4LUICrJhcLo6JQMQEYhdgBX4944RlSb3n2Q5df2OT/hQxV46DAAJbEegZG1RC5d+M8Nhg76MTYHGVEUAgV4E4BVhBjYwT5tppnkOgsAI3jdBx+5XrkqiPDfZWIsAq7J1hdwTiKhDLACvAPmiQaiY06KqqEu33gzZds7BZr8a1CZwbgWIQ6B4bvDGd1bqojw0SYBXDjaRGBPIvELcAKxC5bLD2PqFas4Jxws8v0kRempP/e8IOCIQRuGuUTtt9oC5YmdIT163Svf/s1Low6/l6lgDLlzT7IGBLILYBVtCGYJxw8hDNrGac0NatpBpzAt1jg7eVJFQRh7FBAixzV5CCECiIQBwDrABq3GDt9+lqzQ3eTvjVJbpoJeOEBbk/bIrA9gSCscG5I3TcARWa0JrWr+IwNti7HgIs7jcCCOQiEOsAKyj42GoNvbheU8oT2vmXazWbccJcrgHPIJA/gdNqtPNZdZpcklTZN5p1XVTfNrgtAUYI83c3WBkB6wJxDbCCvswYpiMPqdTkjqyev7tZ83k7ofXbSn1xE+h52+DqtJ49c7Fuidv5CbDi1jHOi0A0BGIfYAWMwTjh+AZdHbyd8PE2jb+fccJo3C5OUfQCXWOD9bopra6xweu/06I344ZCgBW3jnFeBKIjEOcAK1C8dIj2OqFKs9dn9MroRZoQHVlOgkBxC9zZqFP3KNOFK9J6YtoqLYzL2GDvrhFgFfcdpnoEchUwEWAFxR9SqboJm99OeOj3WnX2whb9g7/bkOu14DkEwgucVqtRX6nXrSXSoPtbdMFjEX/b4LYqJsAKfxdYAYFiFYh7gBX07aqh2v+4QbohGCc8f4kuXp7SxmLtJ3UjUGiBYGxwzggd9+EKXdOa1n+fukjXFfpMue5PgJWrHM8hUNwCZgKsoI3vjBMmtdPTHZozj7cTFvftpvqCCQS/vDqjTlPiOjbYG44Aq2DXiI0RiL2AhQAraELPOGFbVs/f2az5z7arKfbNoQAEYijQ87bBuI4N9iYnwIrhBeTICERAwFSAFXh+qEw1U4br6qok44QRuF8coQgFPlejnc7rHht8rE3XPxDDsUECrCK8uJSMQB4ErARYAc0lQ7TnSVWas45xwjzcFJZEYMcCPWODK9N6YtYqLfxHTN42uK3KCLB23HM+gQAC/y5gLsAKSgzGCScO1czqpD72vVadwzghVx8BPwLB2OC5dZqfTKg6zmODBFh+7gu7IGBdwFKAFfTq6iH60LFVmr0hq6UXLtWlS1PaYL2H1IdAoQW6xwaP/VC5JqzJxHtssLclAVahbxb7IxBPAZMBVtCK7nHCyWVJ7fwM44TxvJ2cOlYCwS+vvlyvyUqo/JsxfNvgtrAZIYzVNeSwCERKwFqAFeDOGqYjP1apSWuy+jPjhJG6bhzGqEDc3za4rbYQYBm9sJSFQJ4FzAZYgVvwdsIJg7vGCfd/vE1X83bCPN8mli9agSC8+mq95mWCtw2u0fXfbtUbVjAIsKx0kjoQ8C9gMcAKFC8aor1OrtLsjoxePXWRrvEvy447EkhKyV0HquaVjWrd0Wf5z6Mr0D02eFH32ODX4j422FuaACu6946TIRBlAdMBVgB/RKXqrhqqWdUJffT7a/Rlxgnzcx2DnzeHWZk3RobRK+yz3X/zal5JQjULmzXme21aUtgTud2dAMutJ6shUEwCVgOsoIcThuhDn9g8Trj4sqW6/E3GCQt+tQdJJaPKVH5IhfY9vlrnKKGVpy/StIIfjAP0WyD4Xn1Doz51QJkmtGT0P59fpGv7vUjEHyDAiniDOB4CERUwH2AF7sE44YX1mlyR1M7Pdmj2jU16PqL9iOWxDqxU7anVOqoyqfpcCxj7th7I9VmeK5xA8DevvlSnKYmEyr7RrGnWwquu/yNtmA46bpDuWbxJD5yzRAsKp83OCCAQNwHLAVbQi+63E05qS+v5u1s1/5l2rY5bjyycd6+BqvtUtT74wTIdOKJUR9SWaNfs//+l3IqUfnLGYs2wUGOx1WDpbYPb6h0BVrHdaupFwI1AUQRYAdXBlaq9aoiurtn8dkLGCd3cnzw6X/gAACAASURBVK5VzqrXLmfUam55Qrvmuuwxb+gjuT7Lc4UR6B4bvDmd0LpHWzXL0thgb1ECrMLcL3ZFwIKA9QAr6NGlQ7TXiYwTFuS67jZQgy9u0EnvHaDDK5J678Ck6hJSoiWlt5am9eSv1+mXj7Xq9YIcjk1zFrizUZ/7YJkuXrH5bYOmxgZ7oxBg5XxFeBCBohYomgAr6PJhlaq/ZqhmViV10A9ade7XW/T39VLwX1Lx/0IIHF2hYafU6uyKpBq3tsyQUu1SV6JdVqb0YltaTVv7zAXLdHWII/CoZ4Hu8Oqm0oRqLY4NEmB5vlBsh4BRgWIIsILWBV8mP1WlWcE44SVLNXZRSp1GW1rQssqk5MhylX10oHb5RJVO37VMx2elpKRNmaw6V6T0wtNr9d1vtOgPBT0om+ckEIwNzm7Upw4s0zXNGf3W4tggAVZOV4OHEECgl0BRBVhB3cE44UUNmlSe6BonnMM4Yf7/PfznTrpglwG64PfrNX7Scv0y/zuyQz4FRtdq1Dl1mlIilX2jxebYIAFWPm8QayNQPALFEmAFHe1+O+HENWn9mXFCt3e8XBpwVp0+uFeFDth5gA6rS2q/koQGrM1oRUdGLy3dpD892a7fPr1WixL8F7Nu8T2uZvVtg9si5BdYHi8XWyFgSKDoAqygd8E44fjuccJHGSfM+3UmwMo7sbcNun551aD5GWntI4bHBgmwvF0pNkLAtEAxBVhBI3vGCddl9Opo3k4Y+m7vUqKqsxp09P7lOn5QUu8pS2pIQipdmdILb2zSk3/t1At/XK8V/9igDoKr0NwFXSAYG9yjXJesTHWNDd5j6W2DBFgFvVpsjoA5gaIMsIIuBuOE44O3Eyb14R+06jzGCfN3twmw8mfrc+Xu8OrGUqn+68264BFjbxvcliV/A8vnLWMvBGwJFFuAFXRv4hAdeEwwTii9dflyjXujU+ttddVfNdeP0NGHVujm4G9ddGa1+u2N+uW3W/XIc+v0hr9TsFM+BbrfNvjJ4G2DazL67akG3zZIgJXPG8TaCBSfQNEGWEGru95O2KBJFQnt/HSH5tzM2wnz8i+AACsvrF4XPaVWI79cp6lJqeybRTA22BuXAMvrVWMzBEwJFGOAFTQwGCc8uFIT2zJ6fkGTbnluHW8nzOViXz9MRx06SDdns8q+vkk/W7JJv/71Wv3tV2u1LMWoYC6kkXum2MYGezeAEcLIXUcOhEAsBIo6wAo61P12wvHdbye86v5mvRqLzsXokARYMWrWVo4a/PLqvAbNT2e17pE1mmn1bYPb6hIBVrzvL6dHoJACxRpgBeaME4a/eYdVavBpdfrsLqX6bHWJGtPS2o0ZrVyZ0l+eXqsff7dVL4TfhRUKJdA9NnjpypR+WixjgwRYhbpt7IuAHYGiD7CCVh5VqforN48TfuiHbbrg/tV6ibcTurvkBFjuLH2vdHqNdjqnQXNLpYZiGhvs7UyA5fvWsR8CdgSKOcAKujhpmD7y8UrNWC8tGrdcV/2zU+vsdNdfJcGY2UWD9fGjKnVGTal2LcmqIpFQyaqUXn2pU9/5eYd+/+omtTWltNHfqdgpV4Hutw1+8sPlumZNWr8rprFBAqxcbw3PIYBAjwABVrdE19sJ6zWhPKn3/nKtZt+0Sn/mmrgRIMBy4+h7lZ6xwRJp4AOtmvbYGi31fYYo7EeAFYUucAYE4ilQ7AFW0LUZw3TkIZWa0JbRn+9s0vxn16k5nt0s/KkrpNIz6rT3hyt16IhSfbimRHsn1fU2wmUr0/rdog363//Tob/+dr2WF/60nGBbAjeP0HH7lOuSprSePWuxbilWKUYIi7Xz1I1AOAECrF5+PW8nrErqgMfbNI5xwr5drqSUbChRZalUsrUnZo3QOR8YqC/9pkPT7mrWf2/tM8vTWtO33fiUD4HuscFbU1mtfXSNZhTb2GBvYwIsHzeOPRCwKUCAtbmvlwzRnidVac66jF4bvUjjbXbbX1WDpJIDKtSw7yDt/JEyHb/TAH1yYEJVqc0jhisWp/THX7XrJ99v0z82SBl/J2OnHQkEY4MfLFcwNvjEzFW6uxjeNrgtEwKsHd0W/nMEENiaAAHWFipHVKrh6qGaWZXQ/j9s14X3rtbf+f/8t/+P56x67XJGreaWJ7Rrrv/MjnlDH8n1WZ5zKxCMDX6pQXMHFPHYIAGW2zvFaggUqwAB1r86P2mYDvp4paavz+qtCSt0dTH/H+6u/z3sPlANFzfosx8YqBPKkxpWklBFJqv0Pzfq4THLdKvr/Viv/wIDgpcbNCoYG5zQVsRjg73lCLD6f494AgEEJAKsrdyCrrcT1mtCRVLv+eVazWGccPv/VIJf63yhVpPKktol139Un3lLJ+T6LM+5Ezi5Vo3n1unapDTwW0U8NkiA5e5OsRICxSxAgPXu7jNOmN9/DbuVqWZ0jQ7au1wfq0tq//VZ/f30RZqW311ZvS8CPWODq9P65ZmLCRUDMwKsvtwcPoMAAlsKEGBt404cUqm6q4bo6poS7f/oGsYJt/dPZ1ipBnykUsPLkxqY6z+x77fq9Vyf5Tk3Aj1jg91vG5xezGODBFhu7hSrIFDsAgRY/34Dut9OGIwTvso4YX7+hVSVasAxlRpRkVDFI2v0Sn52YdW+CtzRqM/tVa7LVm7SEzObdBe/PtwsR4DV1xvE5xBAoLcAAdZ27kMwTnhV8HbChPb9YbsuYpyQfzxWBbreNlivOaUJDbmvWWMea9Niq7X2ty7+BlZ/xfg8Agj0CBBgbf0uTB6mjx5dqWnrs3pz0nJd89IGreXWbFsgeGvdvpWq3a1UI/+rTa+0SamtfXr/MtW2S6nX8YzMdZo7XJ88sLLrbYO/L9a3DW6rGQRYkbmmHASBWAkQYO2gXT3jhOVJvefptZozn7cTbldscKnKTqrW+9s3KfW9Dr26tQ/vUaZqScmXN/CH26Pwvy1OrlLjuYM3jw1+o1XTvl+kbxvcVi8IsKJwSzkDAvEUIMDadt9mDdMRH63UxPaMnr+9Sbf8mrcTbhVrUKkGTh2qT+8+QKfVlWi3O5s05gftemHLD5dJyft20u2lCW36e6d+euMqPbdRSsfzX46NU/O2we33kQDLxj2nCgR8CxBg9UG8e5xwfFWJ9n98ja7k7YRbRxtRoqqbGzVxcIkOWLRJL45ZpolbfjIrJa4fplP2q9DoFzv1k+tX63vrU1v/bxL70Bo+ElIgGBs8v0G3BW8bfHyNpn+zVW+EXNLc4wRY5lpKQQh4EyDA2j71RUO018mb307IOOFWqIJfXs0eodEfLtcVyYTK16T1xs86dMPCZj2/5cerpOTXd9YjQ0r1vnRWbf93vW6dukI/8XbZ2ehdAneO1OgPlmnsyk36KWODW78cBFj8o0EAgVwECLD6qHZ0pRquHKpZg5La50dtuuTe1XqJtxP+C2+vgaqbM0L315TovWlpbWtai09bpLO35A2+jN05UmN3LdNpwS9+Xtug705aqXtWp7Shj63gY44EgrHBs+s1ZyBjg9sVJcBydOFYBoEiFCDA2nHTpwzVwUcN0nXrs3pj0nJNYJzwX2bHVKnx8gbNrS7RXi936lszV+r+5Wmt35bqqBJVThmmr+5Rri+1pfXiXc2a9IsOLd9xF/iES4G5w/WJ7rHB/8vY4LZlCbBc3jrWQqB4BAiw+tHr7nHCa4K3E/5irW5gnHAzXvCz9VtGasyeZTq3La2///c6ff2eVv12bUobt8Z7dIVGHF+jI/ct15hEQumfdGjKXU36Qz9awUdDCnymSiO+OljXMTa4Y0gCrB0b8QkEENi6AAFW325G19sJB+matrT+vKBJ859bp5a+PWn7U5cP0YHHV2ne2oxWXrhMX16VUmfviueM0OiOtFofb9PvX+n+u1fBn3JY2KivV5Vo5BNtunpBs/5kWyla1fG2wb73gwCr71Z8EgEE/iVAgNXP29AzTlid1AGPtekKxgmlD1eqYfIQzWko0Ud+uEZX3N2s36SkbA/tmbXabfiArj88+sJLG9Ua/M+TUvK6ofrcEVWa8NdO3XfF21rYz1bw8RwFTqvVqHPrdEfwS7lH1mgabxvcPiQBVo4XjccQQEAEWH2/BO+8nTCr10a/pav7/qTdTwbB3uGVuvmNlB46b4lu3bLSb47SffUlGvRgm6Y80utPAHx9J125S6m++Nx6jZu5Qv9tVyhald0xUqP3LtPYFWk9MXOl7uRtg9vvDwFWtO4vp0EgLgIEWDl06qhKDR43VDMHJbX3j9p0abGPE55Wo52/3KC5FQnt8dnFOqxti3HAs+t02Ffqddvv1mni5BV6uod85zLVPDBSz6xI6adfXKzpObSCR/op0D02eP3AhIb/Z7MueJi3De5QkABrh0R8AAEEtiFAgNW/q3HtUB18xOZxwtenLNekFzeoo38r2Pr05KE69OhBunnJJj197lJd27u64E8yPDBK32wo1agn12rSgu5fsgf/83tHac6oATry6bUad9Mq/d6WSjSr6TU2+IdTF2lqNE8ZrVMRYEWrH5wGgbgIEGDl2KlPVmvIxfWa0DVO2KY585v//Y0wOS4du8dOrNWoC+o0tyqpPc9bqk++3v0rq55CvlKnw86u1+1/7dTCsW/rvp7/+ScqtcuU4Xr8rU16/CtLNDd2hcfswIwN5tYwAqzc3HgKAQTEL7ByuATB2wkPHqQJrWn9+fYmzf9NEY8Tnl2vPU+v1Y0lWVXf06xzf9z+rxetnFqr3S9s0AMJqXRZSk/NWKFbl2bUfn6tDjqhWjdtzGr5t5o14bF2vZ5DG3ikHwI3jdCn9yvXxU1pPXvWYt3Sj0eL+qMEWEXdfopHIGcBAqyc6aQjKlU3drCuqSnR/o8W8TjhLmWqmjdccwaX6NBfd2jmtFX6cW/Wr4/SnPcN1LEdGS25aLnOXrpB7RWlKl04XDeMGqijf7dW109ZqR+FaAWP7kBgdBAy1mtB99sGr+Ntg32/MgRYfbfikwgg8G4BfoGV241gnHCzW/BH2eeN1LQRpfrE6rSe/0GLFjzarr+OrtE+p9dqbH2pDliySb9uLNVBG6W3M1l1Br+wHpBQ/esb9fD4FbqjJaVNuXWBp/oicOdInfLBgbpyVUY/ncHYYF/I3vkMAVa/uPgwAgh0CxBghbwKx1Rq8NihmlWZ1J4/btNlxTpOePMInfnhCo1dl9Hip9o093836JWkVPIfg3TM4VWauC6jpaVS5aaE0i0pPVuZ0O4NpdqvPa1Xv92iyY/3+m8VQ7aEx7cQ6B4bnFWW0PCvN2sMY4P9uyIEWP3z4tMIIPAvAQKs3G/D1KE65MhBmro+q39OWa7JxTpOOLpau543WAvKEhqSkBLa/DdGE1kpszqlF29u0sTLB2vcsAH6mLIqlbRhVUp/nvC2pi1JF/cIZu63r29PzhmuTxxUqfFr0grGBt814tm3FYr7UwRYxd1/qkcgVwECrFzlej3XPU4YvJ3wvcU6Trh3mWonD9PUxlIdvTGr9s6sXktIFZUJvT8rZX/Wrqm7lOl9uw3UOQMTqgq+gLVl9Prv1mnhrav07AYp46AVLLGFAGOD4a8EAVZ4Q1ZAoFgFCLDCdb57nPCa1rReKOZxws9VabfP1OoLtaXat0SqTWfVujql5+9p1X3/u06r31OiQV+o14HlCdU2pfT2/S16fqOUDqfP09sTuHmEPr0PY4OhLgkBVig+HkagaAUIsBy1/rBK1V85WONrSnTAo20aW4xvJ9y3TDVjGvSlXct02sCEBgW0HRkt/WW75t/brN9Ular0mEF6z8gB+kAqo/aXNur1X3VoBeGVo0u4xTLB2OD5dVqQSWjdY626lrHB3JwJsHJz4ykEEOBvYLm4A8E44WeqNGdtVq+dUsRvJ9ypRBV7VqiuKqmBHRlt/FunWpal1OnCmDX6J3DHSJ2y10Bd2ZTWE9NXaQFvG+yfX8+nCbByc+MpBIpdgADL4Q0IxgnHDdWt5QmN+lG7xhbrOOF7BqrusAq9vyWtdf/TqTe2fCuhQ3KW2oZA8GbIL9VrZvC3ML7B2GCoe0KAFYqPhxEoagF+geWm/dcN1SGHD9LUdVm9Nm25pr6wQe1uVmYVBPonMHe4jjmwQlPaM/rT6EUa37+n+XRvAQIs7gMCCOQiQICVi9p2nun6uXulJqWk9l+0a/Ytq/UXx1uwHALbFeg9NvjNFk3/XpuWQJa7AAFW7nY8iUCxCxBgubsBPeOEbWn9eX6T5v92nVrdrc5KCOxYIBgb3L9C4zozWsT3qx177egTBFg7EuI/RwCBrQkQYOXhXlw2WHufVK2bgj+yWazjhHlgZck+CHS9bbBOd2QSWv8oY4N9ENvxRwiwdmzEJxBAYOsCBFhub0bw/eqEas1Zn9WrxTxO6FaV1foisGCkPrtnma7cmNVivl/1RWzHnyHA2rERn0AAgX8XIMDK062YNlyHHlahqQlp4BPtuuKe1XqJv/WUJ2yW7RII3jZ4VoNmDlTX2OCFvG3QzcUgwHLjyCoIFKMAAZb7rvd8v1qf0SvXrdC1jBO6N2bFdwvMHq5jPlqhKRmpk+9X7m4HAZY7S1ZCoJgECLDy2O2eccK01PZf7ZpzO+OEedQu7qV7jw1+p0XTH2Fs0NmFIMByRslCCBSdAAFWfloefL86aJCu6Ujrz/OadPPv12lNfnZi1WIXmD9C/7Ffha4Mxgb5fuX2NhBgufVkNQSKRYAAK8+d7n57zryElHykTZcX49sJ80xc9Mt3jQ3Wa0FGWv9Qq6Z+u1VvFD2KQwACLIeYLIVAkQkQYOWv4cH3qxOrdMP6zW8nvCp/O7FysQp0vW2wTFdszGoJ36/c3wICLPemrIhAMQgQYHno8jvjhAkN+Embxi1crb8xTugBvgi2CN42eE69pg9MaNj9zbrk0TYtKoKyvZZIgOWVm80QMCVAgJXfdvYaJ3x5+mpNe36t2vK7I6sXi0DwtsGPVGhy8F8O8v0qP10nwMqPK6siYF2AAMtTh2cM0xGHVGoS44SewItgmxOr1Hh+g65LJlT6rRbNfKxNi4ugbO8lEmB5J2dDBMwIEGDlv5Vd368GaXxbWi8wTph/72LYYf5IHb9fma7ozOgtvl/lr+MEWPmzZWUELAsQYHnsbs/bCRNSySNtuoxxQo/4xrYKxgbPr9OCrNT50BpNYWwwfw0mwMqfLSsjYF2AAMtPh7u/X83pyOqfo9/SOD+7sotFgdtH6rN7B28bzGgp36/y22ECrPz6sjoCVgUIsDx3dtpwHXZYhaYkEip9sk1X3c04oecOxH+7YGzwS/WaVrZ5bPBSxgbz21MCrPz6sjoClgUIsPx1t+f71bqMXp69WtP+wDihP3wjO90wQh//SLmmZKV1fL/Kf1MJsPJvzA4IWBQgwCpAV2cO1+Efq9DkYJzw5+2afetq/bUAx2DLGAqcXKXGc7vHBr/bopkPMzaY9y4SYOWdmA0QMCtAgOW3tcH3q49W6JqOjF64cbXmEWL59Y/zbr3HBvl+5aeTBFh+nNkFAWsCBFgF6mjPOKESKn20WZfev0avFugobBsTgV5jgxseWqPJjA36aRwBlh9ndkHAogABlv+uBt+vTqh+5+2EjBP6b0Hsduw1NriM71f+2keA5c+anRCwJECAVcBuTh+uww+t0GQlVPJUm65mnLCAzYj41qfXaKez6jV9QEJDH2jWZQ/xtkFvHSPA8kbNRgiYEyDAKkxLe75frc3qH3OaNJ1fYhWmD3HYdfYIffyj5ZqSltby/cpvxwiw/HqzGwJWBAiwCtzJni9Z6azanurQ7DsYJyxwR6K3fe+xwW+3aBZ/88pvjwiw/HqzGwKWBAiwCtfN4PvVxyp0TVtGL8xjnLBwjYjwzvMbdcJ+5RobvG2Q71f+G0WA5d+cHRGwIECAFYEudo8TzuseJ7yEccIINCUiRzilViPHbH7b4KYH12gSY4P+G0OA5d+cHRGwIkCAVdhOMk5YWP8o7377CJ28d4Wu3JTRcr5fFaZTBFiFcWdXBOIuQIAVkQ72/GH3hJR8sl3jGSeMSGMKeIzutw1eV5rQsG8xNliwThBgFYyejRGIvQABVuFb2PP9am1Wf79+lWb+cZ3WFP5UnKCQAj1jgylpLd+vCtcJAqzC2bMzAnEWIMCKUPe6xwknpbJq/3mHrr9ttV6M0PE4ikeBnrHBkoRKv9uiWfzNK4/4W2xFgFU4e3ZGIO4CBFjR6GDPOGFHRn++YYXm/XGD2qNxMk7hW6BnbHBDRm/x/cq3/rv3I8AqrD+7IxBXAQKsiHWuZ5wwkVDpYy26+N5WvRaxI3KcPAv0jA1mEko91KqJD7fqjU153pPlty1AgMXtQACBXAUIsHKVc/9c1/erGt2wLq1/fnaRrnS/AytGXeD2Rn1m73KN25jVCr5fFb5bBFiF7wEnQCCOAgRYEezarGE64uBKTZKUeKpd1zBOGMEm5elI3W8b7BkbvJxfXuUJuh/LEmD1A4uPIoDAuwQIsKJ1IXq+X63N6qW5qzTr94wTRqtBeTzN9SN09MEVmpLKdo0N8v0qj9Z9XZoAq69SfA4BBHoLEGBF9D7MHK7DPlahycE44VMdun4B44QR7ZS7Y/V62+CAh1o068E2veVudVbKVYAAK1c5nkMAAQKs6N2B7u9XXW8nnLVC815gnDB6TXJ8ol5vG1zE9yvHuCGWI8AKgcejCBSxAAFWhJt/2WDtc1K1bkokNODhFl30dcYJI9ytcEcLxgYvqNMCJZR+sFUTGBsM5+nyaQIsl5qshUBxCRBgRbPfwferE2p0Q2darzFOGM0euTrVrY36zL7lGrcpq5V8v3Kl6mYdAiw3jqyCQLEJEGBFvOMzhunIQyo1MTjmU+2awDhhxBuWw/G6xwavHZDQsAeaNZaxwRwQ8/gIAVYecVkaAeMCBFjRbXDP96uOrF66kXHC6DYqxMl6xgbTWXXw/SoEZJ4eJcDKEyzLImBcgAArBg2eNlyHHfavccJZC1brbzE4Nkfsg0AwNnheg65TQgMeatOsB1sYG+wDm9ePEGB55WYzBEwJEGBFu53B96tDKtQ1TjhzhW56cYM6on1iTtdXgVsadeK+5bq8M6NFfL/qq5rfzxFg+fVmNwSsCBBgxaSTVwQ/d6/WTZIGPtyqCxknjEnjtnPMXmODmQdbdc1DrXozJWXjX5mtCgiwbPWTahDwKUCA5VM7t726/lzDv95OeEVuq/BUlARuadRJ+5Xrqk1ZreL7VZQ68+6zEGBFtzecDIEoCxBgRbk7W5xt1jAd+bFKTcxK2afaNZFxwhg1b4ujfq5GO325XlO7xwavYGwwur0kwIpubzgZAlEXIMCKeoc2n6/n+1V7Rn+b16TZv12n1nicnFNuKdBrbLD9gWbx/SrCV4QAK8LN4WgIRFiAACvCzdna0RgnjFnDtnLc3mODj7Tp+u+06M34V2W3AgIsu72lMgTyLUCAlW9hd+szTujOslAr9R4b5PtVobrQ930JsPpuxScRQOBfAgRYMbwNwTjh8dWal9g8TjiGccL4NPHkWjVeWK8FwYkfbNV4xgaj3zsCrOj3iBMiEFUBAqyodmbr5wq+X326RnO7307IOGGM2ndbo07cp1xXb8qqie9X8WgcAVY8+sQpEYiaAAFW1DrSx/NcP0JHfbRcEzMJpX/WpklfW60X1/P3k/qoV5iPBWODX6rX1DJp6AMtupKxwcL0ob+7EmD1V4zPI4BAjwABVvzuQs/3q46M/jqvSXMYJ4x+D98ZG8yoje9X0e9XzwkJsOLTK06KQJQECLCi1I1+nmXacB16WIWmpLJqf3KtZt7ZpJf6uQQf9yQQ/PLqvDpNk1TKz9o9oTvahgDLESTLIFCEAgRY8Wx68P3qkApN6MjohetW6MaXNmhtPCuxf+rgl1d7l2tsZ0Zv8f0qXv0mwIpXvzgtAlERIMCKSidyPMflg7XvidW6KZlQ2UMtuoBxwhwh8/hY8DevLhyiBcoq8d02XfVwi97ibYN5BHe8NAGWY1CWQ6CIBAiw4tvsru9XNbphfUb/PPktjY1vJXZPHvzNq/2CscGMVvP9Kn59JsCKX884MQJRECDAikIXQp6h5+fuSij1X22acs9q/ZVxwpCojh7vettgnaaUJjX0W80ax9igI1iPyxBgecRmKwSMCRBgxbuhjBNGt3/dY4OTU1m18f0qun3a3skIsOLZN06NQKEFCLAK3QFH+/+/9s48MK6yXv/PJGkyWbpnLYtcUa4bCG3pwtaWVRBFvepFxSurIEtZuu9b0oUCRbguICCULhSQVQS9V69e96ugggplKbSFAm2TzEyWZpmZ8/udNoFQ0jY5M3POe875+Kc97/v9fj/Pm/bwZJ5551bpuJO64oRPJLToO416Pktbs41DAp8frBEXDtF8OzZ4f1x198b0qsOtWOYhAQwsD+FTGgI+J4CB5XMBJXW9X01PpPXs3O1a/kKbWv0/lb8nuKlGnzkyqsl2bJD3K/9qiYHlX+3oHAJeEsDA8pJ+lmv3iBNG1zfqEuKEWQbcj+26Y4MRKW9NXNcRG+wHPMMexcAyTBDagYCPCGBg+Uis/bRKnNAcHVfV6NNHRjUtaamB9ytzdHHSCQaWE2qsgQAEMLACdgbeuZ1Q6vxZk+YSJ3Rf4N23DQ7RnMI8la9u0BRig+5rkM2KGFjZpMleEAgXAQys4OjdI0747MqdWsbthO5ra2swdk/aIM77lfv8s10RAyvbRNkPAuEggIEVQJ3nV2n8CcWaa99OSJzQXYHt2OD5Q7QgT8rnY+3uss9VNQysXJFlXwgEnwAGVrA0tt+vjivWDDtOOGe7lr3Upl3BmtDcaYgNmquN084wsJySYx0Ewk0AAyug+l87XEeeNVDXRyIqXt+oi4kT5l7od24blArWxnUNscHcM3ejAgaWG5SpAYFgEsDACp6u9vvVmQO1fJe1+3bCycGbwWBgPgAAIABJREFU0LyJbhyhs44q0vSkpRjvV+bp47QjDCyn5FgHgXATwMAKsP72DS1jopqR7ooT3lKv55KSFeCRPRttd2xwqGYXRlRxd4Ombkhos2fNUDirBDCwsoqTzSAQKgIYWMGUu/v9qjmtv924Uyt+26rGYE7q/VQ9Y4O8X3mvRzY7wMDKJk32gkB4CGBgBVzruRUaf1Kp5qYsNT2e0MLvNuqFgI/s+nhdtw0uiOyJDS5dHdMm15ugYM4IYGDlDC0bQyDwBDCwgiux/X51QqlmNKf17PTtWrqpTW3BndabyW6u0Wc+HtXk9j23DfJ+5Y0MOauKgZUztGwMgUATwMAKtLx7huv6uPvKvD1xwouIE2ZP9LPLVHNFuW6NSAVriA1mD6xBO2FgGSQGrUDAZwQwsHwmWD/b7Y4Ttlra9LnNuqqfy3l8PwTs2OAnu2KDvF8F86hgYAVTV6aCQK4JYGDlmrAh+y+r1sRRUc1MS20/a9J84oSZC/OlwTroPPu2wcju2wancttg5kxN3AEDy0RV6AkC/iCAgeUPnTLpsvv9qtnSX27coeuJE2ZCc8/a2kpNGFu6+7bBGO9XmfM0dQcMLFOVoS8ImE0AA8tsfbLa3fwKjTuhVPPs2wl/TJwwI7bEBjPC56vFGFi+kotmIWAUAQwso+TIWTP2+9VxpZpp3044dZuWbkkSJ3QKm9igU3L+W4eB5T/N6BgCJhDAwDJBBRd7uG64jvrUIF2fZ6lkfUwXEifsP/zPlqn6W3tig0Wr47rq/kZt4cvx+8/RLyswsPyiFH1CwDwCGFjmaZKrjna/X717OyFxQgegb6zWmUcVa0bKUoL3KwcAfbYEA8tngtEuBAwhgIFliBButlFXrUnH7rmdsO3JJs3/DrcT9hl/V2xw9oCIKtY0aNo6bhvsMzu/PoiB5Vfl6BsC3hPAwPJeAzc76H6/Ik7Yf+r2bYNjivfEBnm/6j8/P67AwPKjavQMAe8JYGB5r4EnHcyp0LgJXXHCx5u04HsN2uhJIz4q2hUbXCgp/6G46n7IbYM+Us95qxhYztmxEgJhJ4CBFb4TYL9fndgVJ7x2m+reSKo9fBT6N3F3bLAtrS28X/WPnZ+fxsDys3r0DgHvCGBgecfe88r2x93PHKTrI5ZK18V0/l0xveJ5U4Y20CM2GF0d15XEBg0VKgdtYWDlACpbQiAkBDCwQiL0XmPufr8aqOX27YTnbNaV4aTQt6mvr9anjinWzJSlJt6v+sYsKE9hYAVFSeaAgLsEMLDc5W1ctboqnTymRNNTlnY92aQFxAnfL9EXBuugbwzRrK7Y4HRig8Yd45w2hIGVU7xsDoFAE8DACrS8+x2u+/0qntYzq3ZoJbcTvh/XkkqdNK5Uczr3xAZ5vwrZjwsGVsgEZ1wIZIkABlaWQPp5m3kVGntiqebbv/16uEkLbidO+I6c3bHBSET5D8S09B4+pebno+6odwwsR9hYBAEISMLACvcxsN+vji/VLPt2wsnbVPtWUh3hJvLu9O/cNmhpC+9X4TwVGFjh1J2pIZApAQysTAkGZP2UCn3yjDJdny+Vrm3UN4gTSmeVqfqqct2SH1HJ3TFd8UCjNncGRG/G6DsBDKy+s+JJCEDgvQQwsDgRu9+vSrV8l6VXiBPuOQ83VOuMo4s1My218H4V3p8RDKzwas/kEMiEAAZWJvQCtrb74+5JS61PNWlhmOOE3bHBwojK723QDGKDATvs/RgHA6sfsHgUAhB4DwEMLA6ETeCdOGFKT6/aqRvCHCfsjg0mLTXyfhXunw8MrHDrz/QQcEoAA8spuYCum1OhsRO64oQPNWn+Dxr0YkBH3edYXbHBRZGI8h6KaSmfRgvbCXjvvBhY4daf6SGQCQEMrEzoBWut/X51Ylec8MptWrI9qdB9qNuODX4iqsltlrbwfhWs8+1kGgwsJ9RYAwEIYGBxBt5HYEqFjv5UmVbkSWVrG/UfYTJwzi5T1RXlutWOUt7doMsfSBAbDPuPCAZW2E8A80PAOQEMLOfsgrjSfr/qESe8Iogz7mumFTU6fWRUsy1LLbxfhUn5fc+KgcU5gAAEnBDAwHJCLQRr7I+7H1uiGam0Wv6rWQtvqddzSckK8uh2bPA/hmhWoTT83kbNWJ/QliDPy2x9I4CB1TdOPAUBCLyfAAYWp2JvAt3vV4mU/hyWOOHiSk0YX6rZnWk18H7Fz0Q3AQwszgIEIOCEAAaWE2ohWTO7UmMmlmhBSmp+KKF5QY4T2rHBi4ZokRVR/sMx1YXpU2chOc6Ox8TAcoyOhRAIPQEMrNAfgV4B2O9XJ5VodnNaz16yTUsaAxwn/HaNPvuxIk1uk7bwfsXPQ08CGFicBwhAwAkBDCwn1EK0xr4951Nluj5PGrS2UecF0djpERsc+MMGXconr0J0wPswKgZWHyDxCAQg0CsBDCwOxr4IdL1frWiztOkzr+nyIJKyY4OjopqdtrSL96sgKpzZTBhYmfFjNQTCSgADK6zK92Pu5VU6eeSeOGHzU81aFKTbCXvGBtc0aia3DfbjYITkUQyskAjNmBDIAQEMrBxADdCW3e9XiZT+tGqnbgzS7YS1lZowtis2yPtVgA5tFkfBwMoiTLaCQIgIYGCFSOxMRp1VqWMnlWihHSf8UUJz72jQS5nsZ8LartsGFyuiPD7WboIiZvaAgWWmLnQFAT8QwMDyg0re9mi/X00o0Rw7TnjRNi2KJ5XytqPMq6+q0Wc/QWwwc5AB3wEDK+ACMx4EckQAAytHYIO47e7bc8p0ff6eOOHX/BwnPLNMVZPLdUu+NPiHDfomscEgntjszISBlR2O7AKBMBLAwAqj6v2fuev9asUuS5vOeU3f6v8O5qxYUaPTRkY1x7LUxvuVObqY2AkGlomq0BMEzCeAgWW+RkZ1uLRKpxxboulJS01PNWnxt+v1rFEN9qEZ+5NX5w/RrAF7bhuciXnVB2ghfgQDK8TiMzoEMiSAgZUhwBAt736/ivs4TrikUieNK9WczrTqeb8K0eF1OCoGlkNwLINAyAlgYIX8ADgZ3/4P+lO64oQPxjTnzphedrKPF2u6bhtcbEn5j8RV56feveBFTQkDi1MAAQg4JYCB5ZRcONfZ/95M6ooTnr9FC5ultF9IvHPboKWtvF/5RTVv+8TA8pY/1SHgVwIYWH5VzuO+p1fo6NPsOKGlwffG9JUfxrTJ45YOWL47NlgQ0ZAf1OuS+xPacsBFPBB6AhhYoT8CAICAYwIYWI7RhXZh1/tV9+2EvogTLq/SqaNLNNeS2nm/Cu3R7ffgGFj9RsYCCEBAEgYWx8Axga6Pu89IWor/rEmLV9XrOceb5Xih/cmrbwzRrEJp+JpGzeK2wRwDD9D2GFgBEpNRIOAyAQwsl4EHpFz3+1U8pT+u2qmbTL6dsGdskPergBxAl8bAwHIJNGUgEDACGFgBE9TtcWZVavSkEi2ybyd8IKbZJn6xe9dtg0sk5fGxdrdPiP/rYWD5X0MmgIBXBDCwvCLv/7r2+9WEEs21byf82hYtbDcwTvjObYPEBv1/4DyYAAPLA+iUhEAACGBgBUBEr0eYUa5jTh2oFfnSkHsbda5JccJPl6nyynLdUhDR8DvrdeF9CW31mhf1/UUAA8tfetEtBEwigIFlkhr+66X7/aotrU2f2azLTJrA/pTYmBLNs6RO3q9MUsY/vWBg+UcrOoWASQQwsExSw8e9LK/SKaNKZFSc8JzBqrlwsGYNyNPwNQ2aTWzQxwfMw9YxsDyET2kI+JwABpbPBTSg/e73K5PihHZscGyp5iQt7eT9yoBD4tMWMLB8KhxtQ8BjAhhYHgsQpPIzyzXq5DItTkotD8Q008tPYu2+bXColshS3sNNqruzwT83JQbpTARhFgysIKjIDBDwhgAGljfcg1bVfr+aWKZ5dpzwK1s0v9PDAe3Y4JFFmtxmaSvvVx4KEYDSGFgBEJERIOABAQwsD6AHueS0co08/d044b97YWKdUabKa4bvjg2W39mgC4gNBvnE5X42DKzcM6YCBIJKAAMrqMq6P1f3+1VrWpvO2axL3e9AWl6lk0eXaL5lKcn7lRcKBKsmBlaw9GQaCLhFAAPLLdIhqtP1cfeZSUuNP2vSEjdvJzynTDUXDNOswjwNv6dBszcktDlE6Bk1BwQwsHIAlS0hEBICGFghEdqlMbvfr+Ip/X7VTq1y83bCnrFB3q9cEjzgZTCwAi4w40EgRwQwsHIENuzb2gfrtDItTkkt97sUJ+yKDdbascFHmlR3R4NeCrsOzJ85AQyszBmyAwTCSgADK6zK525u+/3qlK444Re3aH7uKr278801+szHi3RNu33bIO9XbiAPRQ0MrFDIzJAQyDoBDKysI2XDbgLdh6vrdsKcxgnt2ODVw/XtARFV3t6g8x/gtkEOYpYIYGBlCSTbQCCEBDCwQii6CyN3v1/ZccIvbtalufxOrLpqTRpTrAWylOL9ygVxQ1QCAytEYjMqBLJIAAMrizDZ6v0Euj/u3mmp8akmLbmlXs9lm1N3bNC+bXAttw1mG2/o98PACv0RAAAEHBPAwHKMjoUHIOBGnLA7NthpaSfvVxzJbBPAwMo2UfaDQDgIYGCFQ2dPp5xRrpGnlGlJLuKEdmzwwiGqi0gRPtbuqcyBLY6BFVhpGQwCOSeAgZVzxKEuYL9fTSrTfPt2wmzHCe3bBj9RpKuJDYb6iOV0eAysnOJlcwgElgAGVmClNWsw+wroUwZqeZ40eE2jzs3G7YRdscGbB0RUdWeDzue2QbM0D0o3GFhBUZI5IOA+AQws95mHrWL3+1WbpZc//5ouT0pWpgxqqzVxXLEWWJbSvF9lSpP1+yKAgcXZgAAEnBDAwHJCjTWOCCyv0qkjSzQjaanhqSbVZhIn/GyZqi/sum3w3gbNXp/QFkdNsQgCByCAgcURgQAEnBLAwHJKjnX9IWC/X40q0fSu2wlvzuR2Qjs2OK5Us+3YIO9X/VGBZ/tLAAOrv8R4HgIQsAlgYHEOXCXQI07Yen9MM5x8Emv3bYNDVCftvm2wltsGXZUwdMUwsEInOQNDIGsEMLCyhpKNDvTLlq44YSKt5768RfOcAOtx2+DrvF85Icia/hDAwOoPLZ6FAAS6CWBgcRZcJzCrUseeXKq6fGnQmkZ97a6YXulrE2eWqeqqct1UKFXfQWywr9h4LgMCGFgZwGMpBEJOAAMr5AfA5fG7369aLb3ytdd0RbOU7msL3bFBWUrzftVXajyXCQEMrEzosRYC4SWAgRVe7T2dvOv2nN1xwiebVNeXOKEdG7xomGYNyNOwexs0h9igpxKGpjgGVmikZlAIZJ0ABlbWkbLhAQh0vV9Nb0zpD9/eqT7FCWsrNWFsqWZ1WtrB+xVHzC0CGFhukaYOBIJFAAMrWHr6appp5Rp52p7bCQ8YJ+yKDS7VntsGiQ36Sml/N4uB5W/96B4CXhLAwPKSfnhr2+9Xp+y5nfC5Lx4gTmjHBj9RpGvaLBEbDO+R8WRyDCxPsFMUAr4ngIHlewn9PcDsSo2ZVKraPGngukZ9fXVML3fuNVJXbPCGQmnE7Q264H6+sN3fovusewwsnwlGuxAwiAAGlkFihKyV7vertrReOu8NTY4nldobQW21Jti3DcqSxftVyA6IAeNiYBkgAi1AwIcEMLB8KFrQWu6+PaczrYanmt8bJzyrTNXf3HPbILHBoAnvk3kwsHwiFG1CwEACGFgGihKilrpuf54WS+kPt+7Uql+3KtY9/uJKTRhPbDBEp8G8UTGwzNOEjiDgBwIYWH5QKQQ99ogT7ro/pun27YRdscFldmzw8SYtua1BL4UABSMaRgADyzBBaAcCPiKAgeUjsQLaam9xwt23DUZ1bXtar/N+FVDhfTAWBpYPRKJFCBhIAAPLQFHC2tKcCo2dWKYleVLpr5o1dUyJLi+K6KC7GnQ+X9ge1lPh/dwYWN5rQAcQ8CsBDCy/Khesvrvfr1rTevG5dj04rljzLUvi/SpYOvttGgwsvylGvxAwgwAGlhk60EUXgaVVOvXYEk3Pl4Z1WHr9ngZNxrzieHhJAAPLS/rUhoC/CQTFwMqT8qqKVPxmu1r8rUh4u7ffr8aVaLlNoDWt59c2cptzeE+DGZNjYJmhA11AwG8EMLD8plgI+p2x5/acWjs6uD6mK+w4YQjGZkRDCWBgGSoMbUHABwSCYGB9Y4iOnlimM+vTemHqNj3sA+y02AsBOzZ4VFQL2tL656N8LQNnxAACGFgGiEALEPAhAQwsH4oWhpbnVGjcxDItzpNK1jXq/HtieiUpWWGY3a0ZP1qo4QPzVOy03itJ7ahPqt3per+sw8Dyi1J96/PgfJV9uFg1fXv6/U/Fkmr+S5vedLqedeEi4EcDq1DKP7RIxV8cqONGFuvC8gJ9yFbttaRuu3CrfhAuBYMx7ZJKnTSuVAvttyhig8HQNAhTYGAFQcV3ZxhTrMoxRTra6VT1ab25PqHnnK5nXXgIYGCFR2vfTdp1e870ZFr1P2tW3c31+rvvhjC04QIpcv+hWj4kX6c4bfHnzbqibof+6HS9X9ZhYPlFqb71WVuticcV64a+Pf3+p+pT+umXtmiO0/WsCxcBPxlYRxdq+OmD9ZF/KdDogwo1oTRPh0SkSKulN1vSevF/m7TuO416OlwK+n/a7tsG29PaQWzQ/3oGaQIMrCCpKfF+FSw9TZ4GA8tkdehNXbcT1qYs7bo/rmnECbNzKGwD69YRunpovsb2tmNxRAMH5qu63VIintLbvT3ziyYtvT0W/N+UYGBl58yZsstVwzRyfKmu7q2fkogGDcrXIR2W4g0pvd7zGfs/5KsK9DEMLFOU9EcfphtY9r8FZwzUYaeV6lP/Uqgx0TwdOiCiwSmpszGl5za26amX2vWP37XpjZfb1ewP6nTZTeCmPbHBazssvfFwQkt+0KAXoQMBUwhgYJmiRHb66Dawdll6tSWlV/q761sp/W3yNq3v7zqeDx8BDKzwae67iedWaPxJZVqUbym6PqGL7m7Qy8QJcyvj9dX61Ohi1e5M6vEvb9Wi3FYze3cMLLP1yWZ3y2t06pioljck9V9f3KpZPfeuLNCA+w7R7zGwskk8+HuZaGAVSXnlBRpwbIk+/G+DdEH1AB2XLw1IS8lkWs1bO/WLB5p0/0+b9EqE6L5vD6kdGxxfogWKKHJnPbc5+1bIADeOgRUscbsNrM2duuOC1/X9YE3HNCYRwMAySQ162ScBO044qkTT7DjhT5q19FbihDk9LRhY7+LFwMrpUTNqcwwso+QIRDMmGViH5avsrMH68EejOrq6QBOG5evjaSnVmtbW5pQ2bmzXHx5r0e//2qr6QMAP8RBd33k1uzOt7fc2ai63OYf4MBg8OgaWweI4aA0DywE0ljgigIHlCBuLvCDQfTshccLc08fAwsDK/Skzr8KyGp0+NqqlfALLPG382pFJBtZtB+miQwr0b0V5Ku+w1NqQ0h/+uUv/s7FdL/73Lr0RS6rDr5zp+10CN9fo7E9EdV27pW2PJLSY2CCnw1QCGFimKuOsLwwsZ9xY1X8CGFj9Z8YKDwksqNJxJ5RoYUQqui+ui4kT5kYMDCwMrNycLHN3taTI9dU699hiTcHAMlcnv3VmkoF136GaV5mvc+Ipvf5YQit/2aZntrepo0VK+Y0r/fZOYEmlThxnvyNFlHdnvb7BJ684KSYTwMAyWZ3+94aB1X9mrHBGAAPLGTdWeUigO07YmVb9T5tV9+16/cPDdgJZGgMLAyuQB3s/Q501SIdePESLhuTrSNvA+retmt3z+3/KC1R4/yH6XUNKT31xi+aGjQ/zOiNgkoG1skaf/dAAfa4kTx8uiKgontLLbyf1203teuahZv3zlXbFnU3JKhMI1FZrwthizWpPa/taYoMmSEIPByCAgRWsI4KBFSw9TZ4GA8tkdehtnwS6bydMW9q1gdsJs35SMLAwsLJ+qAze8LioRlxbofnDCnR0RCqoT+mXF2zTrOakOrvbPqxIg+8aoZ/vSOqJf9+qBQaPQ2sGETDJwCqU8k8qU8XRxTr8o4U65ZABOj0/oqJkWrE2S2+81qnf/TihJ/+rRVsNQkgrfSBgxwY/HtWUzj23DRIb7AMzHvGeAAaW9xpkswMMrGzSZK/9EcDA4nz4lkCPOGHhfXFdQpwwe1JiYGFgZe80mbvT0AINuGiwTjx9oBbnR1S4pUN//EChxsdSenblDs38/S5t7+7+wiE64byhuvmldt136TbdYO5UdGYSAZMMrL25DM1X6dwKfeWIIn22OE/leXtuIkxt7dBv/7dV6/53l55/vU1t7VLaJKb08l4Ci6t0wvhiLbJjg3fV6/x1CW2GEQT8QAADyw8q9b1HDKy+s+LJzAhgYGXGj9UeE7BvDRsV1TQ7Tvhks+puJU7YZ0Wi0oABlvJ7WzBnhE4bE9WCHUn95OItWtrbMy0RdaRD8B823ELY5yPlmwft77v6/EB98DOD9MVDCnVWgVT6ZlL/c1+jbr9suL4/IE8F/9il2xbv1EPxpDo+N1CHfX2IFg8q0BG/b9Hyudv1kG+GpVFPCZhsYHWDObxIg78ySGP+tUjHDcrTkWX5OsySkvGUXnyjU79+qVN/fapJG19qV8JTmBR/H4HFlZowrlSzOogNcjp8SAADy4ei7aflS4bqoxPL9NVNHfqfeW/rF8GajmlMIoCBZZIa9OKIQPfthGmpbUNMU38Y0yZHG4VoUYEUue1gXTY8X6N6G7tQGhrN0weSUkNrWlt6e+anLbrpezv1z6Bjw8AKlsJVBSq6plxnH1mkrxbn6RBL0ivtemh9o+765S5tX1Slc08s0dROS02tll7ptNRSkqeDSiI6rDWtrRtimnFvXC8GiwrT5IqAHwys7tntn43ji1Xz8WJ97KgifWZogY62P5XVZqm+Pa0tP2/RHf9Zrz/mihX79o/ATTU6+6iopnRY2vZwQou4bbB//HjaewIYWN5rkM0O8qS84gIVdCaV6uBykGyiZa+9CGBgcSQCQWBhlU44rkTzI9KAB+P65p0Nejkp2f9tyv96IWAbWPd9QHVD8nSyU0C/aNHkpdv1f07X+2UdBpZflOpbnwsqddKJJbrBjtu0pbX9d636Tt0OPdFz9W0jNOvwIn3avu1UUkRSMmVp169btXLZdj3J3y19Y81Tkp8MrJ562f9GfHaQPnLmQJ33gUIdlycVb+nUXRe+rtvR1XsCdmzwuGItVET5d8V0/rpGYoPeq0IH/SWAgdVfYjwPAQjYBDCwOAeBIWDfTjiyRNOSlnY+2aSlxAn3L+115TqhvECHOj0Av2jWL/67WW85Xe+XdRhYflGqb33a39EwJqqFbyX1mx83ac2GuDb2vG3Q3uXgfBX/+xCN+0SRjhqQp8LtnXrr5636zRNNerVvVXgKAnsI+NXA6qnfKaU6+KyBOqnZ0tsL3tbP0dZbAvZtg2OKiQ16qwLVs0EAAysbFNkDAuEjgIEVPs0DPfE7txNK7RtimkKcMNByuzIcBpYrmF0r8tXBOuKDhfrAHQ36zVsp7XKtMIVCScAkA+uach2btlTwg7j+tCup5P4EsT+BZf95z08b2tGQA60LpcguDm3fNvgJOzaY1psPN2khsUEX4VMq6wQwsLKOlA0hEAoCGFihkDlcQ9ofrR9Xovl5lvIfTOhbdzToJSI/7z8DI0s0LJJS6oV2NbccIKteXqBCe4dYUp1hY4mBFa6/P5gWAtkkYJKBdd+hmleZr3N2JvXsQwmteDCuF/f19/mSSn3hyKgueLVDj97eqPtfaldT2P7uz+Y5yMZe9lclHF+shbtvG4zpAmKD2aDKHl4SwMDykj61IeBfAhhY/tWOzvdDYGmVTh1NnHCfhHZ/B9ahWlYU0ce2duqnj8b16E9b9Pq+FtxYrYsq8lX9aqf+fEuDflmfVHtYDiAGVliUZk4IZJ+AiQaWPWVLWpt/0aSbVjXot71NvbJSFx5VogsGRFS8M6n/u7tBS3+yn38jsk+OHXsSsKPPY4s1sz2tt9c2at76RO+Xq0ANAn4igIHlJ7XoFQLmEMDAMkcLOskyge7bCVNSx/0xXUec8F3AtoF1/6FaPiRfp1iSVZ/Un9bEteKxRO9fBPvgIXpoWIEOTUot2zr1y2u2qi4WUUeWJTNyOwwsI2WhKQj4goCJBlZ9Ss8Mzte/pi21P57Qou/0YmIdX6yKkSU6/NRSTS3N0yEvtOuOK9/UD3wBPWBN2rcNHhnVlM603nq4SQuIDQZM4BCPg4EVYvEZHQIZEMDAygAeS80nsKRSJ44r1VxZyv9RQpcTJ9yjWU8DqyGl54fm6YjtKf1l2jZd+3ov3ws0ukiHnTdUZ340qi/mR1T6hxYtn7tdj5h/AjLvEAMrc4bsAIGwEjDRwPpzmxYWWqr8RLG+2ZrW5rsbNOuhJm3qTaN/LVT5rSP0cDylLV/aqq+FVUev5n4nNihF7orrQmKDXilB3VwQwMDKBVX2hEDwCWBgBV/j0E+4vEqnjCrRtE5L9T9pVt1/7tQ/ww6lp4H1lS066YZqzawp1OnbOvWrldu17LkOxfZmVCjlL6vR146JavKbSf339G1a/EZKrUFniYEVdIWZDwK5I2CigfV0u+Yt365fLKvS5A8O0Be3p/Qr++/z11Nq7o3EhkP0vSF5+vgZm3VS7kix894E6qo1aUyxZtixwXWNmr9uH5+QhhwE/EoAA8uvytE3BLwlgIHlLX+qu0Sg63bCuvSe2wlDHyfsaWCd/KpGTyxT9RXDtGh4vo55sU1r5uzQbb19z9XH7d/GH6Sn4mn97dZ6zf5Fs952SULPymBgeYaewhDwPQFTDaxp2/TkwfkqXlqjOSMKdNq2pH7+rbe0sCX5/mj4hkO0ami+xp3+msb7XhCfDHBjjT79yT23Db5NbNAnotFmvwlgYPUbGQsgAIHf6fvrAAAgAElEQVT//z2eGFgcg9AQWFKpk8aWam5EijwQ15V3Nez7BqagQ9nbwLLn/dxAHX7ZcN2RJ+X/ulXLl23Xk3vfOlVqqfDxD+p3LWn9866YZj4c17ags8LACrrCzAeB3BEw2cCyp/7UIB1yyRDVDs3Xx1/p0P21b+k/N/f4ZO2IAkW/N0IPWFLkc1t0du5IsXM3gQVVOv6EEi2Upci9cV20urH376aEGAT8TgADy+8K0j8EvCGAgeUNd6p6RKA7Tthhqf7JEMcJezOwbEkuGaqxnx+k+XkRDfh9q25Ytl0/75BS3XJ9dYiOunio7qpP6U8rdmrun1tV75GUrpXFwHINNYUgEDgCphtYNvDLhmnk2QM1PxpR+RtJ/exXzXrkV616/ZgSDft0ic77QJHOfq1Dj174hpYETiDDBlpWrUmju2ODCc3nO68ME4h2skoAAyurONkMAqEhgIEVGqkZtJtA1+2EdpywY0NM14bxdsJ9GVj2/7+wSp8+tljXSYo83661tzRo/aZ2tYwtVsV15ZpbXqDjXuvQg1e+oRt3ScmgnywMrKArzHwQyB0BPxhY9qerzh2ow88dqiWD8nV4R1o7OqSmgoiKoxGN2JXWm4/FNe/2mP6WO1Ls3B0b7Exr+0NNms9tg5yJoBPAwAq6wswHgdwQwMDKDVd2NZzA4kpNGF+q2XabD8Q1OWxxwn0ZWDaPPCnv+mp99ZNRfTM/opKmlN5sSOuV4fk6oixPlR2WGlY36Op1CT1vuMxZaQ8DKysY2QQCoSRgkoG17hDNqMjX2c+0a/GMN/VfewsyoVhVFw3X1dUFGmN/CteS0h1pxR9LaNltjfpjKAV0aeh3YoOS7onpkjWNes2l0pSBgGcEMLA8Q09hCPiaAAaWr+Wj+UwI9LidcOcTcdV9pzEchozNbH8GVvefXzNck8aW6vOD8nTkgIjKOi21JlL6xy9bdc936vWHTNj7aS0Glp/UolcImEXAJAPrgqH62EEFGvGnXfr7T5v1Vm+k7NtmzyrTB48sVmVDSrvuj2vjjpRazKIarG7qqnTymBJNt28bvC+hBZhXwdKXafZNAAOL0wEBCDghgIHlhBprAkPA/gE4rUy1kjrWhyxO+NVB+mhloYbfvFO/2Zego0o09KioKovzNLAtpebn2rX9T61qCMwB6MMgGFh9gMQjEIBArwRMMrCQyDwCN47QWUcVamqntOPhhOYRGzRPIzrKHQEMrNyxZWcIBJkABlaQ1WW2PhGordbEMcWaLUvWwwlNtl8g9759r08b8VAgCWBgBVJWhoKAKwQwsFzB7MsiC6p03AklWiTJuiemb/LJK1/KSNMZEMDAygAeSyEQYgIYWCEWn9HfJRDmOCHnYP8EMLA4IRCAgFMCGFhOyQV73fIqnTyqKza4Ia6F98b0arAnZjoIvJ8ABhanAgIQcEIAA8sJNdYEkkB3nDAtdW6I6Zow3k4YSGEzHAoDK0OALIdAiAlgYIVY/H2MbscGP1moKZ1S/aMJzb2jQS/xqW/OSRgJYGCFUXVmhkDmBDCwMmfIDgEiYMcJxxZrtmUp9XBC1xAnDJC4DkfBwHIIjmUQgIAwsDgEPQn0iA2m74npUmKDnI8wE8DACrP6zA4B5wQwsJyzY2VACdhxwpElmtZpaefjcdV9P0S3EwZU0ozGwsDKCB+LIRBqAhhYoZb/PcP3jA0+GNfCu4kNcjhCTgADK+QHgPEh4JAABpZDcCwLNoGZ5Rp1SplqU1JyQ0xXEycMtt77mw4DK7zaMzkEMiWAgZUpwWCsv7FaZx4V1dSkVP9QQnN/SGwwGMIyRUYEMLAywsdiCISWAAZWaKVn8AMRqKvWpDHFmmVZSj6c0LXECQ9ELJh/joEVTF2ZCgJuEMDAcoOy2TXmV2n8ifZtg5bS98R1GbFBs/WiO/cIYGC5x5pKEAgSAQysIKnJLFknsDtOWKxpndLOJ+Kq/W6jXsh6ETY0mgAGltHy0BwEjCaAgWW0PDlvrvuG4/a03r4/rkWrY9qU86IUgIBPCGBg+UQo2oSAYQQwsAwThHbMI9AdJ7QiSq5vJE5onkK57QgDK7d82R0CQSaAgRVkdfc/W4/YYONDCc0mNhjes8DkvRPAwOJkQAACTghgYDmhxprQEVhWrUmj98QJO38U15Q7G7WRa6/DcQwwsMKhM1NCIBcEMLByQdX8PedWaPyEst2xwdSauL51T6NeM79rOoSAuwQwsNzlTTUIBIUABlZQlGSOnBOwbxAaWazpxAlzjtqoAhhYRslBMxDwFQEMLF/JlZVml1fp1FElmtqe1ls/imsxl8BkBSubBJAABlYARWUkCLhAAAPLBciUCA4BO054cpnqLCl1X0xX8WIaHG33NQkGVvA1ZkII5IoABlauyJq578pqnXm0fdugpdhDTZpFbNBMnejKDAIYWGboQBcQ8BsBDCy/KUa/nhOwP4k1qkQzLanjkZim3k6c0HNNctkABlYu6bI3BIJNAAMr2Pr2nG5+hcafWKZF9s3Fa+O6nNhgeLRnUmcEMLCccWMVBMJOAAMr7CeA+R0RqKvSyWO6bid8PKHa7zVoo6ONWGQ8AQws4yWiQQgYSwADy1hpstrY8hqdOiq6Jzb4QFxL7onplawWYDMIBJAABlYARWUkCLhAAAPLBciUCCaB7jihpNR64oTBFFkSBlZgpWUwCOScAAZWzhF7XuD6an3qmKimpSzFfkRs0HM9aMA/BDCw/KMVnULAJAIYWCapQS++I7C8SqeMKtGMlKX2x+KaRpzQdxIesGEMrAMi4gEIQGAfBDCwgn00um4bXNgVG7yC2GCw9Wa67BLAwMouT3aDQFgIYGCFRWnmzBkB4oQ5Q2vExhhYRshAExDwJQEMLF/K1qeme8QG334orsV3ERvsEzcegkA3AQwszgIEIOCEAAaWE2qsgcBeBGaVa/SkgaqVpfT6mK7kdsLgHBEMrOBoySQQcJsABpbbxN2pd0O1zjg6qmlJKfGjhGZy26A73KkSLAIYWMHSk2kg4BYBDCy3SFMn8AS644SWpbZH4ppOnDAYkmNgBUNHpoCAFwQwsLygntua8ys0bvdtg1LnvY266t6YXs1tRXaHQDAJYGAFU1emgkCuCWBg5Zow+4eKwLJqTRod1fROaedjCS35foNeDBWAAA6LgRVAURkJAi4RwMByCbRLZVbU6LSRUU1pT+vth+NacmdML7tUmjIQCBwBDKzAScpAEHCFAAaWK5gpEiYCdpzw5IGqtSxZa2K6YnVMm8I0f9BmxcAKmqLMAwH3CGBgucc615Wur9YZI/fEBpt+lNAMYoO5Js7+QSeAgRV0hZkPArkhgIGVG67sGnICXV/uOj1laddjcc0gTujfA4GB5V/t6BwCXhPAwPJagezU744NpqTOtcQGswOVXUJPAAMr9EcAABBwRAADyxE2FkHgwAR6xgkfTmjJD4gTHhiagU9gYBkoCi1BwCcEMLB8ItR+2iQ26H8NmcBMAhhYZupCVxAwnQAGlukK0Z+vCcyq1OiTS3fHCbUmpsuJE/pPTgws/2lGxxAwhQAGlilKOOtjZY1OP7pI01NS848Smk5s0BlHVkGgNwIYWJwLCEDACQEMLCfUWAOBfhBYVqPTRkc1LWWp9bG4ZhIn7Ac8Ax7FwDJABFqAgE8JYGD5VDhJcyo0bkKZFqUtdayNaTK3DfpXSzo3kwAGlpm60BUETCeAgWW6QvQXCAJ11Zo0Jqrp7dLOxxNafFuDXgrEYCEYAgMrBCIzIgRyRAADK0dgc7ytHRs8JqqpHWm99UiTau/g3+wcE2f7MBLAwAqj6swMgcwJYGBlzpAdINAnArMqdeykUtVqT5zwW8QJ+4TN84cwsDyXgAYg4FsCGFj+k25ljU47ukgzUlLLwwlNvbNBLydl/8vN/0whUFqgwn8p1MC/t6relJ7oo/8EMLD6z4wVEICAhIHl4inIk/KKpDynJduldFpKO13POu8JdH0ZrH07YfNjcc0iTui9JgfqAAPrQIT4cwhAYF8EMLD8dTbmVWjsiWVanLbUvjamq4kNmqGf/f58TJEGHlmiEaOiOuVDhTrnxU595+ptesSMDunCCQEMLCfUWAMBCGBguXgGFlTplH8p0EinJTd26NfLdugPTtezzgwCy6o1cXRUMzqlnQ8ltJhoghm67KsLDCyz9aE7CJhMAAPLZHXe29uKGp1+TFRT7Njg402qJervvXaWFPlCmT48YaDGjijQ6IH5OrIookGWZP2+RfPmbtdT3ndJB04JYGA5Jcc6CISbAAaWi/qvOURTRxToXKclN3Xquxe/rrucrmedOQTsOKF9O6Hd0dpGXXZ3TK+a0x2d9CSAgcV5gAAEnBLAwHJKzt11uz8dvSc2uOvBhK67m9iguwLsVa1YKjh/iI49aaC+MixfH8mPaGCeNCBpqX1bp371u1168CdxPf96Srs8bZTiGRHAwMoIH4shEFoCGFguSj+zQqcdXKDRvZUclK/ymgEaZ99281K7ftbbM6+061erGvQ7F1umVA4J2L/tHRnVtKSlpsfjmk2cMIewM9gaAysDeCyFQMgJYGCZfwDmVGjsxDItsiy13xvTNcQGvdHsA/kqGVOi6tElGnN4kc4Zlq8P2Z+06rQUa0nrjdc69cu7YnryH7u03ZsOqZptAhhY2SbKfhAIBwEMLEN0nlaukacP1PKkpfiZr+lLhrRFGzkmUFutiWOjmmHfTvhwTIvujOnlHJdk+34SwMDqJzAehwAE3iGAgWX2YegZG3y0SXU/aNCLZnccrO4KpMhJZao+uURjDyvUsUPz9clonqrsX+Y2pvTcjpT+9Pwu/e3HrXrhtXY1B2t6psHA4gxAAAJOCGBgOaGWgzUYWDmA6pMtZ1dqzKRSLZEUWduoS4kTmiUcBpZZetANBPxEAAPLXLWWV+nUUcWaaUXUdn9c1xIbdFer00v0oS8P0ZdHDNDxA/I0JF8qak2r8fWkfvrfzXpsY5veerFdzfYFRu52RjW3CGBguUWaOhAIFgEMLEP0xMAyRAiP2lhZo9OPjmpaKq3EIwnNvaNRL3Btt0di7FUWA8sMHegCAn4kgIFlpmrdscGUpfb7YrqGXxy5r9NPDtOGaESHd1pqrU/q7xvb9cTqhH79arsS7ndDRS8IYGB5QZ2aEPA/AQwsQzTEwDJECA/bqK3WhDFRzUxKO39EnNBDJd5bGgPLGCloBAK+I4CBZZ5kXb8wmtKe1lvEBr3T54kPaH1xnj7cktb2nUn99qUO/d9TcT39TIcavOuKym4SwMBykza1IBAcAhhYhmiJgWWIEB638c7thJby18Z0Cb8V9lgQSRhY3mtABxDwKwEMLLOU644NpqX2BxK6htigd/qcOVCHnTNIX/pAgc4sytPAlKW2dksNmzv0i7sa9cDTbdrmXXdUdoMABpYblKkBgeARwMAyRFMMLEOEMKCN7tsJU5bij8c17zbihJ6qgoHlKX6KQ8DXBDCwzJGvR2xw19qYruO2QTO0ObpQw88dojP+NarTivN00ICIhqalzrc69bvn2vT4s7v08p/btWNnUh1mdEwX2SKAgZUtkuwDgXARwMAyRG8MLEOEMKSNnnHCB2NaeFdMrxjSWujawMAKneQMDIGsEcDAyhrKjDbqGRv8cZPqvs9tgxnxzMXiQ/NV+vkh+sQRRRp10ACNL43oiIgUaUrrlVhaf3upXX9c26A/b06pKRf12dN9AhhY7jOnIgSCQAADy0UVB+WrZLBU1FvJfx+qo04v07ykpcSlr+ui3p5pTmpXY0RtLrZMKQ8JdN1OWKs9ccKLiRN6IwYGljfcqQqBIBDAwPJexeVVOmVUsWZZUseGmCbfE9MrXJLivS776qBYKjiiSKUTS/WJ0SX66kEDNNaSrLSltg5L9Rvb9JM7GnX/PzsUM3cKOusLAQysvlDiGQhAYG8CGFgunok1h2jqiAKd67Tkpk599+LXdZfT9azzH4Hrq3XGMVFNS0qxR+Oax+2E7muIgeU+cypCICgEMLC8VdKODU4o1aK0RGzQWykcVz9roA7/wiB9rrJAx0bzVFMglSYtdfxPq2Yt265fOd6YhZ4TwMDyXAIagIAvCWBguSjbd0boopoCne205KudWjvlTT3odD3r/ElgSaVOGluiWfbthA/EtOCHMW3y5yT+7BoDy5+60TUETCCAgeWdCrt/AVSs69rTevuxJtXd3qCN3nVD5UwIWFJkYpmqTyrRUR8q1JjyAh3/coe+f/U2PZLJvqz1lgAGlrf8qQ4BvxLAwHJRuYPzVTy8QIVOS+5Mqe2NpNqdrmedfwn0iBMWrI7pIr581j0tMbDcY00lCASNAAaWN4rWVenkMcWabUmdG2K6itigNzrkomp1gQr/pVBluyzl/3WXduSiBnu6QwADyx3OVIFA0AhgYAVNUeYJLIHrq/WpY6KampQafxzXfG4ndEdqDCx3OFMFAkEkgIHlvqo9YoOta2Oawi983NeAihDoCwEMrL5Q4hkIQGBvAhhYnAkI+IhAd5ywU6p/MKb5xAlzLx4GVu4ZUwECQSWAgeWusj1jg080qe57xAbdFSAH1T5aqIpongr+0abtHVIqByXY0iMCGFgegacsBHxOAAPL5wLSfvgI2L9dnlimJZIGrG7Uhfx2ObdnAAMrt3zZHQJBJoCB5Z66y6o1aXRUcyQl74vpSmKD7rHPZaVvV+nSjxTrS2tiuu7emJ7NZS32dpcABpa7vKkGgaAQwMAyTMk8KW9OhT7z0ai+8GKbHliwQ09EJMuwNmnHYwLdccJOqeGxuBbc2ajnOz3uKajlMbCCqixzQSD3BDCwcs/YrtAdG0xZat0Q15S7Y3rVncpUyTWBrwzWh78+RLe2Wnprztu6amO7mnJdk/3dIYCB5Q5nqkAgaAQwsAxU9GuD9LHzhummDkvx7+3U1KdatNXANmnJYwJLKnXi2BLNtuOED8Q0jxf23AiCgZUbruwKgTAQwMDKvcrdscHOtN5+NKGl9vdD5r4qFdwicFCBihZV6vLDCnXuq526f9Fb+u7rKe1yqz51ckcAAyt3bNkZAkEmgIFloLpFUt6NI3T1R4v0lVc7tGHm27p1Z1IdBrZKSx4TmFOhcXacMCINuKdRFxAnzL4gGFjZZ8qOEAgLAQys3CpdW62JY6Oaq4hS9zXqCmKDueXt1e7ji1U5s0rfLZGq/7ZLty14W+ta+D4sr+TIWl0MrKyhZCMIhIoABpaLch9TpEE1A1TSl5IDIiq5aJhuikZU8Uy7brl5ux57i9849QVd6J65oVqf+mRU05LSzkfjWvj9Rj0fOgg5HBgDK4dw2RoCASeAgZU7gedWasyEEi1KWmpdF9dUfoGTO9a52PnxQ7U2mq8P9nXviKX8vIjyUpY6Xu7QA9/aplV9XctzZhLAwDJTF7qCgOkEMLBcVOi7I/TVQwbotL6WzJMqi/NUlbTU/npSj/ygXj/8/S7t7Ot6ngsPgUWVOnF8V5zwvpjm8SKfPe0xsLLHkp0gEDYCGFi5UdyODR5drCkdab39eEJ1xAZzwzmXu957sFZEIzrEaY0vbdVXna5lnRkEMLDM0IEuIOA3AhhYLiq25hBNHVGgc52UTEk7f9Ksmat26K9O1rMm+AR6xAkL/7+B9Y17GvVa8KfO/YQYWLlnTAUIBJUABlb2le0RG7Tua9S3iA1mn7EbOx6cr+KiAYo4rfVKm1qdrmWdGQQwsMzQgS4g4DcCGFguKnZooYYMyVOpw5Lp15JqSCTV7nA9y0JA4J04oaUdjye08Lt8mW3GqmNgZYyQDSAQWgIYWNmVvmdscENcU7m8JLt82Q0CbhLAwHKTNrUgEBwCGFjB0ZJJILCbwOIqnTCuWHPs2wnXxzV3DZ/EyuhkYGBlhI/FEAg1AQys7MnfddvglHZLb/8krjp+QZM9tuwEAS8IYGB5QZ2aEPA/AQws/2vIBBB4H4H5FRp3on07oaWie+P6D+KEzg8JBpZzdqyEQNgJYGBl5wQsrtSE40o117IUWR/Tpatj2pSUrOzszi4QgIAXBDCwvKBOTQj4nwAGlv81ZAII9Ergxmqd+a9F+kqeVPhj4oSOTwkGlmN0LIRA6AlgYGV+BGZXasxJJZqTlOofjGkJscHMmbIDBEwggIFlggr0AAH/EcDA8p9mdAyBPhM4daDKrximWUURVa1p0Jx1CW3u82Ie3E0AA4uDAAEIOCWAgeWU3J51u28bjOqahrR+u6Jet/ylRYnMdmQ1BCBgCgEMLFOUoA8I+IsABpa/9KJbCPSbwJkDVXH5MC0tjugjd8f1db4Tq38IMbD6x4unIQCBdwlgYDk/DUsqddK4Es1vtvS3S9/QzO1JdTrfjZUQgIBpBDCwTFOEfiDgDwIYWP7QiS4hkBGBz5ap+pvDtcKOEz6W0OLvN+r5jDYM0WIMrBCJzagQyDIBDCxnQLtjg4m0/vrlLVrgbBdWQQACJhPAwDJZHXqDgLkEMLDM1YbOIJBVAhOLVX51pWYVRlS9Nq7Z6xqJE/YFMAZWXyjxDAQg0BsBDKz+n4sbqnXGJ6O6pp7YYP/hsQICPiKAgeUjsWgVAgYRwMAySAxagUCuCZw+UBVXDdOy4jx95O6YziNOeGDiGFgHZsQTEIBA7wQwsPp3MpZU6sRxJVrQbOnZi97Q9Iakkv3bgachAAG/EMDA8otS9AkBswhgYJmlB91AIOcEuuKEy/Okoh8ntOi7jXoh50V9XAADy8fi0ToEPCaAgdV3AeZWaswJJZpDbLDvzHgSAn4mgIHlZ/XoHQLeEcDA8o49lSHgGYEetxNWryFOuF8dMLA8O6YUhoDvCWBg9U1COzZ4VFTXxtL6zcp63fInbhvsGziegoCPCWBg+Vg8WoeAhwQwsDyET2kIeEnAjhNOHq7lUekIbifctxIYWF6eUmpDwN8EMLAOrN/iKp0wvlgLW9J67j+2aVqC2OCBofEEBAJAAAMrACIyAgQ8IICB5QF0SkLAFAJnl6nmsuFa2hUnXEyc8P3KYGCZclrpAwL+I4CBtX/N3rltMKW/fHmrFvpPYTqGAAScEsDAckqOdRAINwEMrHDrz/QQkB0nvHyYZkcjqrovrtmruZ3wPacCA4sfEghAwCkBDKx9k9t922Cxrm1MERt0er5YBwE/E8DA8rN69A4B7whgYHnHnsoQMIZAV5xwRVT68Oq4zsPEelcaDCxjjimNQMB3BDCwepdsQZWOP6FYi1rS+vvXtmlKS1Ip34lLwxCAQEYEMLAywsdiCISWAAZWaKVncAi8l4AdJ7x0uJbmR1T447iWECfcwwcDi58UCEDAKQEMrPeTs28bPKlEs2Mp/ZXYoNOTxToI+J8ABpb/NWQCCHhBAAPLC+rUhIChBOxPYl02TLOIE74rEAaWoYeVtiDgAwIYWO8Vafdtg8W6rsGODe7ULU+3Ku4DGWkRAhDIAQEMrBxAZUsIhIAABlYIRGZECPSHgG1iXTVMK0si+uCdcX19Xci/EwsDqz+nh2chAIGeBDCw3qWxoErHnVCsxS2W/nHeZl3bLKU5LRCAQHgJYGCFV3smh0AmBDCwMqHHWggElMA5Zaq5pFx1EanoiZDHCTGwAnrIGQsCLhDAwNoDueu2wdkJYoMunDpKQMAfBDCw/KETXULANAIYWKYpQj8QMITAmQNV8c1hmlUkVa9LaPaaRr1mSGuutoGB5SpuikEgUAQwsKTrq3XGMcW6rj6l367aqW//kdhgoM44w0DAKQEMLKfkWAeBcBPAwAq3/kwPgf0S2H074TCtLLbjhA36+rqENocNGQZW2BRnXghkj0DYDaz5FRp/YqmWtFr657mbdfUuycoeXXaCAAT8TAADy8/q0TsEvCOAgeUdeypDwBcEdscJh6s2ElHRY3HV3taoF3zReJaaxMDKEki2gUAICYTZwCI2GMIDz8gQ6AcBDKx+wOJRCEDgHQIYWBwGCEDggATOKFPlZcM1M4xxQgysAx4PHoAABPZBIKwGVldscEpjSr+5kdggPx8QgEAvBDCwOBYQgIATAhhYTqixBgIhJHDqQJVfM0w3RSM67K4QxQkxsEJ42BkZAlkiEEYDa06Fxk0sVW2rpef/bbMmJ4kNZuk0sQ0EgkUAAytYejINBNwigIHlFmnqQCAABOw44cXDVZsfUeGjcdWFIU6IgRWAg8sIEPCIQNgMLGKDHh00ykLAhwQwsHwoGi1DwAACGFgGiEALEPATge44YVSqXhuC2wkxsPx0OukVAmYRCJOB1R0bbEjqtzfV62ZuGzTrLNINBEwjgIFlmiL0AwF/EMDA8odOdAkBowh0xQlXRSP6wJ0NOm99QluMajCLzWBgZREmW0EgZATCYmDNqdDYSaWqa7H0wjmbdWXIZGZcCEDAAQEMLAfQWAIBCAgDi0MAAQg4ItAVJ1wSkYqeaFLt9xq00dFGhi/CwDJcINqDgMEEwmBgERs0+ADSGgQMJoCBZbA4tAYBgwlgYBksDq1BwHQCny5T5SXDNKswoup1Cc1a06jXTO+5v/1hYPWXGM9DAALdBIJuYK2s0elHRzWtManf3EhskIMPAQj0gwAGVj9g8SgEIPAOAQwsDgMEIJARgdMHquKa4bqpMKJD7orpG+satTmjDQ1bjIFlmCC0AwEfEQiygWXHBieWqq6V2KCPTiStQsAcAhhY5mhBJxDwEwEMLD+pRa8QMJRAV5xwcUSKBi1OiIFl6KGjLQj4gEBQDSzbvDqxVLMSKf3ly1u1yAdS0CIEIGAYAQwswwShHQj4hAAGlk+Eok0ImE7gzDJVXTJMM6MR1axLaGZQ4oQYWKafPPqDgLkEgmhg7b5t0I4NpvRrYoPmnj06g4DpBDCwTFeI/iBgJgEMLDN1oSsI+JJAjzjhQatjumB1AOKEGFi+PIo0DQEjCATNwJpbqTET7NhgWhu5bdCII0YTEPAtAQws30pH44X+aYEAAA7USURBVBDwlAAGlqf4KQ6B4BHoihMusuOEjzWp7naf306IgRW8M8pEEHCLQJAMLNu8OqFEs4kNunV6qAOBYBPAwAq2vkwHgVwRwMDKFVn2hUCICZxdpqqLh2lmYQDihBhYIT7IjA6BDAkExcDafdtgkaYTG8zwQLAcAhB4hwAGFocBAhBwQgADywk11kAAAgck0BUnXFUo1dwd10V+/U4sDKwDSs0DEIDAPggEwcCaXakxk0pV25rWS+ds1hWIDQEIQCAbBDCwskGRPSAQPgIYWOHTnIkh4BqBIMQJMbBcOy4UgkDgCPjdwJpXobHHc9tg4M4lA0HABAIYWCaoQA8Q8B8BDCz/aUbHEPAVge44YVGeatbG/Xc7IQaWr44bzULAKAJ+NrB6xAZ/c2O9Vv2xVXGj4NIMBCDgawIYWL6Wj+Yh4BkBDCzP0FMYAuEhcOZAVVw1XDcPkKruieviDY16rdMn42Ng+UQo2oSAgQT8amDNqtSxJ++5bfBFbhs08GDREgQCQAADKwAiMgIEPCCAgeUBdEpCIIwEuuKEC+3bCX/cpLrvN+hFP3DAwPKDSvQIATMJ+NHAmlOhcSeWaqZ92+BXt2pxUrLMpEtXEICAnwlgYPlZPXqHgHcEMLC8Y09lCISOwFllqv7mMM3sihPO8MMXu2Nghe6YMjAEskbAbwbWihqdPiqqaQ0p/e7GnbqJ2GDWjgIbQQACexHAwOJIQAACTghgYDmhxhoIQMAxgTPKVHl1uVYNiKhydaO+eV9Mr5ocJ8TAciw1CyEQegJ+MrBmVWp0j9jgVaEXDwAQgEBOCWBg5RQvm0MgsAQwsAIrLYNBwFwCdpzwwuFamC9FH21S3Q8MjhNiYJl7jugMAqYT8IuBNb9C447rig1+fauWtEtp09nSHwQg4G8CGFj+1o/uIeAVAQwsr8hTFwIhJ/DZMlVf6IM4IQZWyA8q40MgAwJ+MLDs2ODIqKbFU/rdip1a9adWxTIYmaUQgAAE+kQAA6tPmHgIAhDYiwAGFkcCAhDwjMDuOKF9O2Gehq9u1GXrY3rNtC8MxsDy7HhQGAK+J2C6gTW9XKNPHai6XXtuGyQ26PsTxwAQ8A8BDCz/aEWnEDCJAAaWSWrQCwRCSKDrdsIF9u2EjzZpqWlxQgysEB5KRoZAlgiYbGDNr9D440o1w75t8II3VduSVCpLY7MNBCAAgQMSwMA6ICIegAAEeiGAgcWxgAAEPCfQFSec1XU74XSTbifEwPL8eNAABHxLwFQDa0WNThsZ1fR4Sr9fuVM3ctugb48YjUPAtwQwsHwrHY1DwFMCGFie4qc4BCDQTeDTZaq8wo4TRjRsdUzfMiVOiIHFGYUABJwSMNHAmlmuUacMVF3rntjgZKezsQ4CEIBAJgQwsDKhx1oIhJcABlZ4tWdyCBhHYPfthMO0ID+i6CNNqrujQS953SQGltcKUB8C/iVgmoE1t0rHnVCs6XZs8OI3VZdIKulfunQOAQj4mQAGlp/Vo3cIeEcAA8s79lSGAAR6IXB2mWouGaaZhXmqWRuX53FCDCyOKQQg4JSASQaWHRs8JrrbvCI26FRQ1kEAAlkjgIGVNZRsBIFQEcDACpXcDAsBfxA4s0xVk4drVX5EQ9fFdPkaD28nxMDyx5mhSwiYSMAUA2v3y16ZalssvfQ5YoMmHhV6gkDoCGBghU5yBoZAVghgYGUFI5tAAALZJmBKnBADK9vKsh8EwkPABANrQZWOG98VG7zsTdU1EBsMzwFkUggYTAADy2BxaA0CBhPAwDJYHFqDQNgJ9IgTHrQ2rqle3E6IgRX2U8j8EHBOwGsDq+u2wWnxlP64cqdu4LZB51qyEgIQyC4BDKzs8mQ3CISFAAZWWJRmTgj4lIAdJ7xquFYVRDR4TUxXrYvp1aRkuTUOBpZbpKkDgeAR8NLAsm8bPLlMtbvS2njOFl0TPLpMBAEI+JkABpaf1aN3CHhHAAPLO/ZUhgAE+kig65NY87tuJ1zq5u2EGFh9FInHIACB9xHwysBaUKXjjy/WtFhaz1y5Tcu2J9WJPBCAAARMIoCBZZIa9AIB/xDAwPKPVnQKgVAT6PpOrFmFeRrhZpwQAyvUx47hIZARAS8MrOU1OnVUVNOJDWYkHYshAIEcE8DAyjFgtodAQAlgYAVUWMaCQBAJnF2mqsuH6+aCPA1c36jJ97oQJ8TACuJJYiYIuEPAbQNrRrlGnmrfNpjWi58jNuiOyFSBAAQcEcDAcoSNRRAIPQEMrNAfAQBAwF8EdscJh2tevlT8SJNyHifEwPLX+aBbCJhEwE0Da2GVThhXLPsL25+5+k0teyupDpNY0AsEIACBngQwsDgPEICAEwIYWE6osQYCEPCUwO444XDNKpQOWpvQlFzeToiB5anUFIeArwm4ZWAtr9KpI0s0PZHS/63cqZXcNujrY0PzEAgFAQysUMjMkBDIOgEMrKwjZUMIQMANAt1xwryIyjbEdHWu4oQYWG6oSQ0IBJOAGwaWHRs8pUy1rWlt/NwWXRtMkkwFAQgEjQAGVtAUZR4IuEMAA8sdzlSBAARyQOCzZaq+aLjm23HCh+OquzOml7NdBgMr20TZDwLhIZBrA6s7NphI6+lrt2nFG0m1h4cuk0IAAn4mgIHlZ/XoHQLeEcDA8o49lSEAgSwQOGewai4cotlF0og1OYgTYmBlQSS2gEBICeTSwFpepVNGley+bfDPK3fqemKDIT1kjA0BnxLAwPKpcLQNAY8JYGB5LADlIQCBzAmcVabqq4ZrVSSi0g0xXZPNOCEGVub6sAMEwkogVwbWtHKNPL1MS7puGyQ2GNYDxtwQ8DEBDCwfi0frEPCQAAaWh/ApDQEIZI9AzzjhQ3HV3hXTK9nYHQMrGxTZAwLhJJALA2txlU4YU6xpiZSemfqmVmxJqi2cdJkaAhDwMwEMLD+rR+8Q8I4ABpZ37KkMAQhkmYAdJ7xgiOZEIxqxJq7rsnE7IQZWlkViOwiEiEC2Dax3YoNJPb2yXiuIDYboMDEqBAJGAAMrYIIyDgRcIoCB5RJoykAAAu4QsOOEVw7XzXkRFa+P6bq1MW1KSpbT6hhYTsmxDgIQyKaBNbVcx5xeptoWSxs/v1nXQRcCEICAnwlgYPlZPXqHgHcEMLC8Y09lCEAgRwS64oTz8qSShzOME2Jg5UgktoVACAhky8BaVKkTx5ZoajylZ2bt0IpNbcQGQ3B8GBECgSaAgRVoeRkOAjkjgIGVM7RsDAEIeEng84M14vwhml0Y0UFr47rWaZwQA8tLFakNAX8TyIaBtbxKJ48s0YxEWs8s26HlT7cq7m8qdA8BCEBAwsDiFEAAAk4IYGA5ocYaCEDAFwTsT2JdtidOGF0f0xQncUIMLF9ITZMQMJJApgaWHRs8rUy1rcQGjdSXpiAAAecEMLCcs2MlBMJMAAMrzOozOwRCQKA7TpgfUfEDMdXd08/bCTGwQnBIGBECOSKQiYG1pFInHluiqfZtg3N26PqX2rQrR22yLQQgAAHXCWBguY6cghAIBAEMrEDIyBAQgMD+CHTFCecURTRiXVzXrG7U5r4Sw8DqKymegwAE9ibg1MDqGRtcsVPL/tSiBHQhAAEIBIkABlaQ1GQWCLhHAAPLPdZUggAEPCRgfxLrW+W6WVLRAzFNXd3H2wkxsDwUjdIQ8DkBJwbWlAodfYZ922B6922DU3yOgPYhAAEI9EoAA4uDAQEIOCGAgeWEGmsgAAFfEugZJ/xRTLU/jGnTgQbBwDoQIf4cAhDYF4H+Glh2bNC+bTCW0jPzd2jlC21qhS4EIACBIBLAwAqiqswEgdwTwMDKPWMqQAACBhHoihPO7YoTXn2gOCEGlkHi0QoEfEagPwbWsmpNGl2sGU0p/XVZvZYSG/SZ2LQLAQj0iwAGVr9w8TAEINBFAAOLowABCISOwNllqrmiXKskFd4X07T93U6IgRW648HAEMgagb4aWMQGs4acjSAAAZ8QwMDyiVC0CQHDCGBgGSYI7UAAAu4Q6IoTzs2PqOT+mGrt78TqrTIGljt6UAUCQSTQFwNrSaVO6rpt8Glig0E8BcwEAQj0RgADi3MBAQg4IYCB5YQaayAAgUAQsOOEFw7R3AERHbwurqt6ixNiYAVCaoaAgCcEDmRg1VVr0rHFmtmc0l+W1GvpX7ht0BOdKAoBCLhPAAPLfeZUhEAQCGBgBUFFZoAABBwTOKdMNZfZcUJLAx6Ia/retxNiYDlGy0IIhJ7A/gysrtjgkua0Nn5hs6aGHhYAIACBUBHAwAqV3AwLgawRwMDKGko2ggAE/Epgf3FCDCy/qkrfEPCewL4MrMWVmjCmRFMSKT29cLtu+Ge7Wrzvlg4gAAEIuEcAA8s91lSCQJAIYGAFSU1mgQAEHBPYfTvhYM0rztNBd8d11bpGbbY3w8ByjJSFEAg9gd4MrGXVmji6WDObUvpb3duqfbpdTaEHBQAIQCB0BDCwQic5A0MgKwQwsLKCkU0gAIEgEHgnTigVPBDTDDtOOKVSo88o1fe2duqeb7yuW4MwJzNAAALuENjbwCI26A53qkAAAuYTwMAyXyM6hICJBDCwTFSFniAAAc8InFWm6kuHa/fthBtiWjKiUOUYWJ7JQWEI+JpATwNrcIHKxkQ1JZbS04u368a/t6vZ18PRPAQgAIEMCGBgZQCPpRAIMQEMrBCLz+gQgEDvBLrihPPtOOGL7brnY1HN5BNYnBYIQKC/BLoNrO1JPVmRr9Ob03q27m0tITbYX5I8DwEIBI0ABlbQFGUeCLhDAAPLHc5UgQAEfEbAjhNeWq6boxEdbreOgeUzAWkXAgYQsA2saEQftKRkIqVff36LphnQFi1AAAIQ8JwABpbnEtAABHxJ4D0GVktaf96R1NO+nISmIQABCGSZQEm+qivzdY69bYulv+7o1B+zXILtIACBABM4uFBfLpCGpqWmt5J6vCPNF7YHWG5GgwAE+kGgukCTonk6YmtSd6fSau/HUh6FAARCTKA0TyPKC3RqxDpC6yWdG2IWjA4BCEAAAhCAAAQgAAEIQAACEIAABCBgMIH/B0xe3RDqA94+AAAAAElFTkSuQmCC;" parent="1" vertex="1">
          <mxGeometry x="20" y="-1150" width="1200" height="601" as="geometry" />
        </mxCell>
        <mxCell id="NGXWd_OmVZItZIc-o513-3" value="lines" parent="0" visible="0" />
        <mxCell id="NGXWd_OmVZItZIc-o513-5" value="" style="endArrow=none;html=1;rounded=0;" parent="NGXWd_OmVZItZIc-o513-3" edge="1">
          <mxGeometry width="50" height="50" relative="1" as="geometry">
            <mxPoint x="1219" y="-878" as="sourcePoint" />
            <mxPoint x="20" y="-878" as="targetPoint" />
          </mxGeometry>
        </mxCell>
        <mxCell id="NGXWd_OmVZItZIc-o513-6" value="" style="endArrow=none;html=1;rounded=0;" parent="NGXWd_OmVZItZIc-o513-3" edge="1">
          <mxGeometry width="50" height="50" relative="1" as="geometry">
            <mxPoint x="20" y="-549.9999999999998" as="sourcePoint" />
            <mxPoint x="20" y="-550" as="targetPoint" />
          </mxGeometry>
        </mxCell>
        <mxCell id="NGXWd_OmVZItZIc-o513-7" value="" style="endArrow=none;html=1;rounded=0;" parent="NGXWd_OmVZItZIc-o513-3" edge="1">
          <mxGeometry width="50" height="50" relative="1" as="geometry">
            <mxPoint x="20" y="-550" as="sourcePoint" />
            <mxPoint x="20" y="-878" as="targetPoint" />
          </mxGeometry>
        </mxCell>
        <mxCell id="NGXWd_OmVZItZIc-o513-8" value="" style="endArrow=none;html=1;rounded=0;" parent="NGXWd_OmVZItZIc-o513-3" edge="1">
          <mxGeometry width="50" height="50" relative="1" as="geometry">
            <mxPoint x="349" y="-550" as="sourcePoint" />
            <mxPoint x="349" y="-878" as="targetPoint" />
          </mxGeometry>
        </mxCell>
        <mxCell id="NGXWd_OmVZItZIc-o513-9" value="" style="endArrow=none;html=1;rounded=0;" parent="NGXWd_OmVZItZIc-o513-3" edge="1">
          <mxGeometry width="50" height="50" relative="1" as="geometry">
            <mxPoint x="620" y="-550" as="sourcePoint" />
            <mxPoint x="620" y="-1150" as="targetPoint" />
          </mxGeometry>
        </mxCell>
        <mxCell id="NGXWd_OmVZItZIc-o513-10" value="" style="endArrow=none;html=1;rounded=0;" parent="NGXWd_OmVZItZIc-o513-3" edge="1">
          <mxGeometry width="50" height="50" relative="1" as="geometry">
            <mxPoint x="948" y="-550" as="sourcePoint" />
            <mxPoint x="948" y="-1150" as="targetPoint" />
          </mxGeometry>
        </mxCell>
        <mxCell id="NGXWd_OmVZItZIc-o513-11" value="" style="endArrow=none;html=1;rounded=0;" parent="NGXWd_OmVZItZIc-o513-3" edge="1">
          <mxGeometry width="50" height="50" relative="1" as="geometry">
            <mxPoint x="1219" y="-550" as="sourcePoint" />
            <mxPoint x="1219" y="-878" as="targetPoint" />
          </mxGeometry>
        </mxCell>
        <mxCell id="NGXWd_OmVZItZIc-o513-12" value="" style="endArrow=none;html=1;rounded=0;" parent="NGXWd_OmVZItZIc-o513-3" edge="1">
          <mxGeometry width="50" height="50" relative="1" as="geometry">
            <mxPoint x="620" y="-550" as="sourcePoint" />
            <mxPoint x="948" y="-878" as="targetPoint" />
          </mxGeometry>
        </mxCell>
        <mxCell id="NGXWd_OmVZItZIc-o513-13" value="" style="endArrow=none;html=1;rounded=0;" parent="NGXWd_OmVZItZIc-o513-3" edge="1">
          <mxGeometry width="50" height="50" relative="1" as="geometry">
            <mxPoint x="784" y="-714" as="sourcePoint" />
            <mxPoint x="620" y="-878" as="targetPoint" />
          </mxGeometry>
        </mxCell>
        <mxCell id="NGXWd_OmVZItZIc-o513-14" value="" style="endArrow=none;html=1;rounded=0;" parent="NGXWd_OmVZItZIc-o513-3" edge="1">
          <mxGeometry width="50" height="50" relative="1" as="geometry">
            <mxPoint x="349" y="-550" as="sourcePoint" />
            <mxPoint x="20" y="-878" as="targetPoint" />
          </mxGeometry>
        </mxCell>
        <mxCell id="NGXWd_OmVZItZIc-o513-15" value="" style="endArrow=none;html=1;rounded=0;" parent="NGXWd_OmVZItZIc-o513-3" edge="1">
          <mxGeometry width="50" height="50" relative="1" as="geometry">
            <mxPoint x="184" y="-714" as="sourcePoint" />
            <mxPoint x="349" y="-878" as="targetPoint" />
          </mxGeometry>
        </mxCell>
        <mxCell id="NGXWd_OmVZItZIc-o513-16" value="" style="endArrow=none;html=1;rounded=0;" parent="NGXWd_OmVZItZIc-o513-3" edge="1">
          <mxGeometry width="50" height="50" relative="1" as="geometry">
            <mxPoint x="620" y="-1150" as="sourcePoint" />
            <mxPoint x="948" y="-1150" as="targetPoint" />
          </mxGeometry>
        </mxCell>
        <mxCell id="09NwuwOXUuBhDLMwwQkK-13" value="" style="endArrow=none;html=1;rounded=0;" parent="NGXWd_OmVZItZIc-o513-3" edge="1">
          <mxGeometry width="50" height="50" relative="1" as="geometry">
            <mxPoint x="1219" y="-550" as="sourcePoint" />
            <mxPoint x="1220.0000000000005" y="-550.414632721202" as="targetPoint" />
          </mxGeometry>
        </mxCell>
        <mxCell id="09NwuwOXUuBhDLMwwQkK-16" value="" style="endArrow=none;html=1;rounded=0;" parent="NGXWd_OmVZItZIc-o513-3" edge="1">
          <mxGeometry width="50" height="50" relative="1" as="geometry">
            <mxPoint x="1219" y="-550" as="sourcePoint" />
            <mxPoint x="20" y="-550" as="targetPoint" />
          </mxGeometry>
        </mxCell>
        <mxCell id="09NwuwOXUuBhDLMwwQkK-43" value="lines_top" parent="0" visible="0" />
        <mxCell id="09NwuwOXUuBhDLMwwQkK-58" value="" style="endArrow=none;html=1;rounded=0;" parent="09NwuwOXUuBhDLMwwQkK-43" edge="1">
          <mxGeometry width="50" height="50" relative="1" as="geometry">
            <mxPoint x="1219" y="-878" as="sourcePoint" />
            <mxPoint x="20" y="-878" as="targetPoint" />
          </mxGeometry>
        </mxCell>
        <mxCell id="09NwuwOXUuBhDLMwwQkK-59" value="" style="endArrow=none;html=1;rounded=0;" parent="09NwuwOXUuBhDLMwwQkK-43" edge="1">
          <mxGeometry width="50" height="50" relative="1" as="geometry">
            <mxPoint x="20" y="-549.9999999999998" as="sourcePoint" />
            <mxPoint x="20" y="-550" as="targetPoint" />
          </mxGeometry>
        </mxCell>
        <mxCell id="09NwuwOXUuBhDLMwwQkK-60" value="" style="endArrow=none;html=1;rounded=0;" parent="09NwuwOXUuBhDLMwwQkK-43" edge="1">
          <mxGeometry width="50" height="50" relative="1" as="geometry">
            <mxPoint x="20" y="-550" as="sourcePoint" />
            <mxPoint x="20" y="-878" as="targetPoint" />
          </mxGeometry>
        </mxCell>
        <mxCell id="09NwuwOXUuBhDLMwwQkK-61" value="" style="endArrow=none;html=1;rounded=0;" parent="09NwuwOXUuBhDLMwwQkK-43" edge="1">
          <mxGeometry width="50" height="50" relative="1" as="geometry">
            <mxPoint x="349" y="-550" as="sourcePoint" />
            <mxPoint x="349" y="-878" as="targetPoint" />
          </mxGeometry>
        </mxCell>
        <mxCell id="09NwuwOXUuBhDLMwwQkK-62" value="" style="endArrow=none;html=1;rounded=0;" parent="09NwuwOXUuBhDLMwwQkK-43" edge="1">
          <mxGeometry width="50" height="50" relative="1" as="geometry">
            <mxPoint x="620" y="-278" as="sourcePoint" />
            <mxPoint x="620" y="-878" as="targetPoint" />
          </mxGeometry>
        </mxCell>
        <mxCell id="09NwuwOXUuBhDLMwwQkK-63" value="" style="endArrow=none;html=1;rounded=0;" parent="09NwuwOXUuBhDLMwwQkK-43" edge="1">
          <mxGeometry width="50" height="50" relative="1" as="geometry">
            <mxPoint x="948" y="-278" as="sourcePoint" />
            <mxPoint x="948" y="-878" as="targetPoint" />
          </mxGeometry>
        </mxCell>
        <mxCell id="09NwuwOXUuBhDLMwwQkK-64" value="" style="endArrow=none;html=1;rounded=0;" parent="09NwuwOXUuBhDLMwwQkK-43" edge="1">
          <mxGeometry width="50" height="50" relative="1" as="geometry">
            <mxPoint x="1219" y="-550" as="sourcePoint" />
            <mxPoint x="1219" y="-878" as="targetPoint" />
          </mxGeometry>
        </mxCell>
        <mxCell id="09NwuwOXUuBhDLMwwQkK-65" value="" style="endArrow=none;html=1;rounded=0;" parent="09NwuwOXUuBhDLMwwQkK-43" edge="1">
          <mxGeometry width="50" height="50" relative="1" as="geometry">
            <mxPoint x="620" y="-550" as="sourcePoint" />
            <mxPoint x="948" y="-878" as="targetPoint" />
          </mxGeometry>
        </mxCell>
        <mxCell id="09NwuwOXUuBhDLMwwQkK-66" value="" style="endArrow=none;html=1;rounded=0;" parent="09NwuwOXUuBhDLMwwQkK-43" edge="1">
          <mxGeometry width="50" height="50" relative="1" as="geometry">
            <mxPoint x="784" y="-714" as="sourcePoint" />
            <mxPoint x="620" y="-878" as="targetPoint" />
          </mxGeometry>
        </mxCell>
        <mxCell id="09NwuwOXUuBhDLMwwQkK-67" value="" style="endArrow=none;html=1;rounded=0;" parent="09NwuwOXUuBhDLMwwQkK-43" edge="1">
          <mxGeometry width="50" height="50" relative="1" as="geometry">
            <mxPoint x="349" y="-550" as="sourcePoint" />
            <mxPoint x="20" y="-878" as="targetPoint" />
          </mxGeometry>
        </mxCell>
        <mxCell id="09NwuwOXUuBhDLMwwQkK-68" value="" style="endArrow=none;html=1;rounded=0;" parent="09NwuwOXUuBhDLMwwQkK-43" edge="1">
          <mxGeometry width="50" height="50" relative="1" as="geometry">
            <mxPoint x="184" y="-714" as="sourcePoint" />
            <mxPoint x="349" y="-878" as="targetPoint" />
          </mxGeometry>
        </mxCell>
        <mxCell id="09NwuwOXUuBhDLMwwQkK-69" value="" style="endArrow=none;html=1;rounded=0;" parent="09NwuwOXUuBhDLMwwQkK-43" edge="1">
          <mxGeometry width="50" height="50" relative="1" as="geometry">
            <mxPoint x="620" y="-278" as="sourcePoint" />
            <mxPoint x="948" y="-278" as="targetPoint" />
          </mxGeometry>
        </mxCell>
        <mxCell id="09NwuwOXUuBhDLMwwQkK-70" value="" style="endArrow=none;html=1;rounded=0;" parent="09NwuwOXUuBhDLMwwQkK-43" edge="1">
          <mxGeometry width="50" height="50" relative="1" as="geometry">
            <mxPoint x="1219" y="-550" as="sourcePoint" />
            <mxPoint x="1220.0000000000005" y="-550.414632721202" as="targetPoint" />
          </mxGeometry>
        </mxCell>
        <mxCell id="09NwuwOXUuBhDLMwwQkK-71" value="" style="endArrow=none;html=1;rounded=0;" parent="09NwuwOXUuBhDLMwwQkK-43" edge="1">
          <mxGeometry width="50" height="50" relative="1" as="geometry">
            <mxPoint x="1219" y="-550" as="sourcePoint" />
            <mxPoint x="20" y="-550" as="targetPoint" />
          </mxGeometry>
        </mxCell>
        <mxCell id="09NwuwOXUuBhDLMwwQkK-72" value="text_top" parent="0" visible="0" />
        <mxCell id="09NwuwOXUuBhDLMwwQkK-73" value="Top" style="text;html=1;align=center;verticalAlign=middle;whiteSpace=wrap;rounded=0;fontSize=25;rotation=-90;" parent="09NwuwOXUuBhDLMwwQkK-72" vertex="1">
          <mxGeometry x="540" y="-420" width="60" height="30" as="geometry" />
        </mxCell>
        <mxCell id="09NwuwOXUuBhDLMwwQkK-74" value="S&lt;sub&gt;4&lt;/sub&gt;" style="text;html=1;align=center;verticalAlign=middle;whiteSpace=wrap;rounded=0;fontSize=25;rotation=-180;" parent="09NwuwOXUuBhDLMwwQkK-72" vertex="1">
          <mxGeometry x="150" y="-530" width="60" height="30" as="geometry" />
        </mxCell>
        <mxCell id="09NwuwOXUuBhDLMwwQkK-75" value="S&lt;sub&gt;1&lt;/sub&gt;" style="text;html=1;align=center;verticalAlign=middle;whiteSpace=wrap;rounded=0;fontSize=25;rotation=-180;" parent="09NwuwOXUuBhDLMwwQkK-72" vertex="1">
          <mxGeometry x="440" y="-530" width="60" height="30" as="geometry" />
        </mxCell>
        <mxCell id="09NwuwOXUuBhDLMwwQkK-76" value="S&lt;sub&gt;2&lt;/sub&gt;" style="text;html=1;align=center;verticalAlign=middle;whiteSpace=wrap;rounded=0;fontSize=25;rotation=-180;" parent="09NwuwOXUuBhDLMwwQkK-72" vertex="1">
          <mxGeometry x="998" y="-500" width="60" height="30" as="geometry" />
        </mxCell>
        <mxCell id="09NwuwOXUuBhDLMwwQkK-77" value="S&lt;sub&gt;3&lt;/sub&gt;" style="text;html=1;align=center;verticalAlign=middle;whiteSpace=wrap;rounded=0;fontSize=25;rotation=-180;" parent="09NwuwOXUuBhDLMwwQkK-72" vertex="1">
          <mxGeometry x="1120" y="-483" width="60" height="30" as="geometry" />
        </mxCell>
        <mxCell id="09NwuwOXUuBhDLMwwQkK-78" value="" style="endArrow=classic;html=1;rounded=0;strokeWidth=3;" parent="09NwuwOXUuBhDLMwwQkK-72" edge="1">
          <mxGeometry width="50" height="50" relative="1" as="geometry">
            <mxPoint x="1011" y="-503.5" as="sourcePoint" />
            <mxPoint x="963" y="-537" as="targetPoint" />
          </mxGeometry>
        </mxCell>
        <mxCell id="09NwuwOXUuBhDLMwwQkK-2" value="text" parent="0" visible="0" />
        <mxCell id="09NwuwOXUuBhDLMwwQkK-3" value="Bottom" style="text;html=1;align=center;verticalAlign=middle;whiteSpace=wrap;rounded=0;fontSize=25;rotation=-90;" parent="09NwuwOXUuBhDLMwwQkK-2" vertex="1">
          <mxGeometry x="530" y="-1090" width="60" height="30" as="geometry" />
        </mxCell>
        <mxCell id="09NwuwOXUuBhDLMwwQkK-4" value="S&lt;sub&gt;4&lt;/sub&gt;" style="text;html=1;align=center;verticalAlign=middle;whiteSpace=wrap;rounded=0;fontSize=25;rotation=-180;" parent="09NwuwOXUuBhDLMwwQkK-2" vertex="1">
          <mxGeometry x="170" y="-930" width="60" height="30" as="geometry" />
        </mxCell>
        <mxCell id="09NwuwOXUuBhDLMwwQkK-5" value="S&lt;sub&gt;1&lt;/sub&gt;" style="text;html=1;align=center;verticalAlign=middle;whiteSpace=wrap;rounded=0;fontSize=25;rotation=-180;" parent="09NwuwOXUuBhDLMwwQkK-2" vertex="1">
          <mxGeometry x="460" y="-930" width="60" height="30" as="geometry" />
        </mxCell>
        <mxCell id="09NwuwOXUuBhDLMwwQkK-8" value="S&lt;sub&gt;2&lt;/sub&gt;" style="text;html=1;align=center;verticalAlign=middle;whiteSpace=wrap;rounded=0;fontSize=25;rotation=-180;" parent="09NwuwOXUuBhDLMwwQkK-2" vertex="1">
          <mxGeometry x="998" y="-957" width="60" height="30" as="geometry" />
        </mxCell>
        <mxCell id="09NwuwOXUuBhDLMwwQkK-9" value="S&lt;sub&gt;3&lt;/sub&gt;" style="text;html=1;align=center;verticalAlign=middle;whiteSpace=wrap;rounded=0;fontSize=25;rotation=-180;" parent="09NwuwOXUuBhDLMwwQkK-2" vertex="1">
          <mxGeometry x="1120" y="-940" width="60" height="30" as="geometry" />
        </mxCell>
        <mxCell id="09NwuwOXUuBhDLMwwQkK-42" value="" style="endArrow=classic;html=1;rounded=0;strokeWidth=3;" parent="09NwuwOXUuBhDLMwwQkK-2" edge="1">
          <mxGeometry width="50" height="50" relative="1" as="geometry">
            <mxPoint x="1006" y="-926" as="sourcePoint" />
            <mxPoint x="958" y="-883" as="targetPoint" />
          </mxGeometry>
        </mxCell>
        <mxCell id="09NwuwOXUuBhDLMwwQkK-11" value="Background2" parent="0" visible="0" />
        <mxCell id="09NwuwOXUuBhDLMwwQkK-14" value="" style="shape=image;verticalLabelPosition=bottom;labelBackgroundColor=default;verticalAlign=top;aspect=fixed;imageAspect=0;image=data:image/png,iVBORw0KGgoAAAANSUhEUgAACbEAAA20CAYAAADBfpIzAAAFtXpUWHRSYXcgcHJvZmlsZSB0eXBlIGV4aWYAAHja7VhbduQoDP1nFbMEJBCC5fA8p3cwy58r7Kq4KpWkM52/GbvLYFmAuFcP0m7+/Wu5v3BxlOSiaE4lJY8rlli4opP9cdX9JB/3c1+NfDmlD3LXoh+7xxAFtOH4kNPR0k1+Dri1VNGTy0S5nx/a44cSj5bz00R8NMEssv44JyrnRIGPD3ROUI9t+VSyPmxtHu05/oABP2ePmB/NfveuQG8I1gnMM1DweIZwGhDsJy5UdPJ+RijCZPRjKPvJ52QA5BVO9wvwu2WmxpdKj2zJXfogv/XcM1uRT5XwBHK6ty/ljuTpQ7ivw9eVYz57/CQvh9c5/4S+/dYaee09Yxc1JkCdzk3dtrJ70GuYypbODqYlr/gJptB9F2+rVN/JnLX7hrtTIQZdiyINqrRo7rZTh4mRp2NFh7lz2MIclAv3zV60mxYrOBxglkPftIPNuy20ly2+u71axsqDoMqEyQhDvn277w5Yy0KByJ/gwy1gF7OBDTOMOXtCDYzQOkGVDfDtfr6M1wAGxVC2ECkAth1TNKG3TBA20QGKgvaIQdJxTgCIsLTAGApgAKxREErklVmJAGQGQRWmM2KmgQES4QEjOYaQwE1mWxpDlLYqC0PsIEcyAxMSUlBwgygDWTEK/Edjhg9VCRJFJIlKliI1hRSTpJQ0WVKsGjQ6FU2qmrVozSHHLDllzTmXXAuXgKQpJRUtuZRSK9asmLlidIVCrY1baLGJa6lpy6202uE+PXbpqWvPvfQ6eISB/DHS0JFHGXXShCvNOGWmqTPPMuuCq63gVlyy0tKVV1n1zhqdYft8f4M1OlnjzZQp6p01SFVvU5ClEzHOQBi7SGBcjQI4NBtnPlOMbMwZZ74wokIYRopxNsgYA4NxEsuiG3eOD0aNuT/izWl84I3/LXPOqPsmc+95e8XasDLUN2NHFBqoPiD6oFM54x9q1XObumtr1oLxA+jh/XxF3YJgpOm1AyMhVPY5OoC1rtW+s6VZB3gIy82oDO4xFJ6V9hR+cJtZ6yrYAwhfPU/RrSOTx9alKghfbKYUpQgVlOwkM+eZqy5/rCcr1JT3imKl97dah84ouoYEW6nVVMabwF7r6H7lstGoyLB5hmeMwpDmrrYD0MP2N8sD2PNxrUK97s3N1gVQwNEq1GZbgSej5iBDFsq9DUJRiGvSsUqbGoc/rPC/1brdKY03hMBpYYZQt2C/em8CaRkViE8Im1JP7zDS2g7rzTazHxs87beCc+5gal4Ib5NxKLK1huamayJGZEUXhs4kXZD3UdoQJRwql4WidHhPn6X6J+e5tmOhAq424ZBl0ETkLh0K3hWHhBElaO+ADL4OtCzI1gD0fWbUxYmV2mVIMFV36grqNaIfNgt2OWFGuMw0SopxwdCpQKhqGx4hb14/bl7vPnP7T71+4JTBBUfBQG314hCPw0vbILdpsIXLTk432eDCMdbdS95t311HTa094RiYa1oXWE44N5ofIug+hJAh/MJ3rq37TmD6/yf6fquj6RTEtpLTherSG8icvKYgccMHiRqOBh5OkMBsB7E1L5SThVqzipiD8OwP391XCgVH01Qm8mWHjsaVKj4+ph1fWnNf5RmkmYpjo4gfRzAgKF/EQnK3lc2tP884t4SDc/qkeC0ZA7tyt23RCZphpruSDE2IF73gp5cdW9gj5dy/u68U7PsdvCNJxxcsDvcTpcgqkfuJUmTZ3v1EKbLW/UQpskrkfqIUmWO4PylF19a9CR5qyFlSIN72mgjHOh8mxwPIlWbI/Q0pd3SWpMP6w3arF0+290WfVhZnpaX3lqvpJPw9FnGShR/leHpPwdHNf3jmu7fu5QcKqRqHSDYxDcFms3l9MuPjqA0nRbKwavDABhO4insbZ2S/HImSNrO3v7W+OLHJT6Tb/8REiK1h/33zD2i2tqCReYhgAAABhGlDQ1BJQ0MgcHJvZmlsZQAAeJx9kT1Iw0AcxV9TpUUqChYUcchQnSwUFXHUKhShQqgVWnUwufQLmjQkKS6OgmvBwY/FqoOLs64OroIg+AHiLjgpukiJ/2sKLWI8OO7Hu3uPu3eAUC8zzeqKAZpum6lEXMxkV8XAK4LwYxAx9MvMMuYkKQnP8XUPH1/vojzL+9yfo1fNWQzwicSzzDBt4g3i6U3b4LxPHGZFWSU+Jx436YLEj1xXXH7jXGiywDPDZjo1TxwmFgsdrHQwK5oa8RRxRNV0yhcyLquctzhr5Spr3ZO/MJTTV5a5TnMECSxiCRJEKKiihDJsRGnVSbGQov24h3+46ZfIpZCrBEaOBVSgQW76wf/gd7dWfnLCTQrFge4Xx/kYBQK7QKPmON/HjtM4AfzPwJXe9lfqwMwn6bW2FjkC+raBi+u2puwBlzvA0JMhm3JT8tMU8nng/Yy+KQsM3AI9a25vrX2cPgBp6ip5AxwcAmMFyl73eHews7d/z7T6+wFrqnKknmJzIAAADRppVFh0WE1MOmNvbS5hZG9iZS54bXAAAAAAADw/eHBhY2tldCBiZWdpbj0i77u/IiBpZD0iVzVNME1wQ2VoaUh6cmVTek5UY3prYzlkIj8+Cjx4OnhtcG1ldGEgeG1sbnM6eD0iYWRvYmU6bnM6bWV0YS8iIHg6eG1wdGs9IlhNUCBDb3JlIDQuNC4wLUV4aXYyIj4KIDxyZGY6UkRGIHhtbG5zOnJkZj0iaHR0cDovL3d3dy53My5vcmcvMTk5OS8wMi8yMi1yZGYtc3ludGF4LW5zIyI+CiAgPHJkZjpEZXNjcmlwdGlvbiByZGY6YWJvdXQ9IiIKICAgIHhtbG5zOnhtcE1NPSJodHRwOi8vbnMuYWRvYmUuY29tL3hhcC8xLjAvbW0vIgogICAgeG1sbnM6c3RFdnQ9Imh0dHA6Ly9ucy5hZG9iZS5jb20veGFwLzEuMC9zVHlwZS9SZXNvdXJjZUV2ZW50IyIKICAgIHhtbG5zOmRjPSJodHRwOi8vcHVybC5vcmcvZGMvZWxlbWVudHMvMS4xLyIKICAgIHhtbG5zOkdJTVA9Imh0dHA6Ly93d3cuZ2ltcC5vcmcveG1wLyIKICAgIHhtbG5zOnRpZmY9Imh0dHA6Ly9ucy5hZG9iZS5jb20vdGlmZi8xLjAvIgogICAgeG1sbnM6eG1wPSJodHRwOi8vbnMuYWRvYmUuY29tL3hhcC8xLjAvIgogICB4bXBNTTpEb2N1bWVudElEPSJnaW1wOmRvY2lkOmdpbXA6ZDIwMWE3M2YtNTlmNi00ZWIwLWIzZTItMjJjNjJkY2M1ZDY2IgogICB4bXBNTTpJbnN0YW5jZUlEPSJ4bXAuaWlkOjE4NDM4YjE0LWFmOGQtNDI2Ny04MzIyLTFlNWZjYzQwZGIzYiIKICAgeG1wTU06T3JpZ2luYWxEb2N1bWVudElEPSJ4bXAuZGlkOmUyYzk0Zjk0LWNhMGUtNDllZC04ODU2LWU5NDgwZDlhZWNkYyIKICAgZGM6Rm9ybWF0PSJpbWFnZS9wbmciCiAgIEdJTVA6QVBJPSIyLjAiCiAgIEdJTVA6UGxhdGZvcm09IkxpbnV4IgogICBHSU1QOlRpbWVTdGFtcD0iMTc1NDI2NDk4MzA5NDk3NSIKICAgR0lNUDpWZXJzaW9uPSIyLjEwLjMwIgogICB0aWZmOk9yaWVudGF0aW9uPSIxIgogICB4bXA6Q3JlYXRvclRvb2w9IkdJTVAgMi4xMCI+CiAgIDx4bXBNTTpIaXN0b3J5PgogICAgPHJkZjpTZXE+CiAgICAgPHJkZjpsaQogICAgICBzdEV2dDphY3Rpb249InNhdmVkIgogICAgICBzdEV2dDpjaGFuZ2VkPSIvIgogICAgICBzdEV2dDppbnN0YW5jZUlEPSJ4bXAuaWlkOjBiOGM2NGI2LTkyNDEtNDcwOC04M2RhLTk1N2ViYzNmZDExYyIKICAgICAgc3RFdnQ6c29mdHdhcmVBZ2VudD0iR2ltcCAyLjEwIChMaW51eCkiCiAgICAgIHN0RXZ0OndoZW49IjIwMjUtMDgtMDRUMDE6NDk6NDMrMDI6MDAiLz4KICAgIDwvcmRmOlNlcT4KICAgPC94bXBNTTpIaXN0b3J5PgogIDwvcmRmOkRlc2NyaXB0aW9uPgogPC9yZGY6UkRGPgo8L3g6eG1wbWV0YT4KICAgICAgICAgICAgICAgICAgICAgICAgICAgICAgICAgICAgICAgICAgICAgICAgICAgICAgICAgICAgICAgICAgICAgICAgICAgICAgICAgICAgICAgICAgICAgICAgICAgIAogICAgICAgICAgICAgICAgICAgICAgICAgICAgICAgICAgICAgICAgICAgICAgICAgICAgICAgICAgICAgICAgICAgICAgICAgICAgICAgICAgICAgICAgICAgICAgICAgICAgCiAgICAgICAgICAgICAgICAgICAgICAgICAgICAgICAgICAgICAgICAgICAgICAgICAgICAgICAgICAgICAgICAgICAgICAgICAgICAgICAgICAgICAgICAgICAgICAgICAgICAKICAgICAgICAgICAgICAgICAgICAgICAgICAgICAgICAgICAgICAgICAgICAgICAgICAgICAgICAgICAgICAgICAgICAgICAgICAgICAgICAgICAgICAgICAgICAgICAgICAgIAogICAgICAgICAgICAgICAgICAgICAgICAgICAgICAgICAgICAgICAgICAgICAgICAgICAgICAgICAgICAgICAgICAgICAgICAgICAgICAgICAgICAgICAgICAgICAgICAgICAgCiAgICAgICAgICAgICAgICAgICAgICAgICAgICAgICAgICAgICAgICAgICAgICAgICAgICAgICAgICAgICAgICAgICAgICAgICAgICAgICAgICAgICAgICAgICAgICAgICAgICAKICAgICAgICAgICAgICAgICAgICAgICAgICAgICAgICAgICAgICAgICAgICAgICAgICAgICAgICAgICAgICAgICAgICAgICAgICAgICAgICAgICAgICAgICAgICAgICAgICAgIAogICAgICAgICAgICAgICAgICAgICAgICAgICAgICAgICAgICAgICAgICAgICAgICAgICAgICAgICAgICAgICAgICAgICAgICAgICAgICAgICAgICAgICAgICAgICAgICAgICAgCiAgICAgICAgICAgICAgICAgICAgICAgICAgICAgICAgICAgICAgICAgICAgICAgICAgICAgICAgICAgICAgICAgICAgICAgICAgICAgICAgICAgICAgICAgICAgICAgICAgICAKICAgICAgICAgICAgICAgICAgICAgICAgICAgICAgICAgICAgICAgICAgICAgICAgICAgICAgICAgICAgICAgICAgICAgICAgICAgICAgICAgICAgICAgICAgICAgICAgICAgIAogICAgICAgICAgICAgICAgICAgICAgICAgICAgICAgICAgICAgICAgICAgICAgICAgICAgICAgICAgICAgICAgICAgICAgICAgICAgICAgICAgICAgICAgICAgICAgICAgICAgCiAgICAgICAgICAgICAgICAgICAgICAgICAgICAgICAgICAgICAgICAgICAgICAgICAgICAgICAgICAgICAgICAgICAgICAgICAgICAgICAgICAgICAgICAgICAgICAgICAgICAKICAgICAgICAgICAgICAgICAgICAgICAgICAgICAgICAgICAgICAgICAgICAgICAgICAgICAgICAgICAgICAgICAgICAgICAgICAgICAgICAgICAgICAgICAgICAgICAgICAgIAogICAgICAgICAgICAgICAgICAgICAgICAgICAgICAgICAgICAgICAgICAgICAgICAgICAgICAgICAgICAgICAgICAgICAgICAgICAgICAgICAgICAgICAgICAgICAgICAgICAgCiAgICAgICAgICAgICAgICAgICAgICAgICAgICAgICAgICAgICAgICAgICAgICAgICAgICAgICAgICAgICAgICAgICAgICAgICAgICAgICAgICAgICAgICAgICAgICAgICAgICAKICAgICAgICAgICAgICAgICAgICAgICAgICAgICAgICAgICAgICAgICAgICAgICAgICAgICAgICAgICAgICAgICAgICAgICAgICAgICAgICAgICAgICAgICAgICAgICAgICAgIAogICAgICAgICAgICAgICAgICAgICAgICAgICAgICAgICAgICAgICAgICAgICAgICAgICAgICAgICAgICAgICAgICAgICAgICAgICAgICAgICAgICAgICAgICAgICAgICAgICAgCiAgICAgICAgICAgICAgICAgICAgICAgICAgICAgICAgICAgICAgICAgICAgICAgICAgICAgICAgICAgICAgICAgICAgICAgICAgICAgICAgICAgICAgICAgICAgICAgICAgICAKICAgICAgICAgICAgICAgICAgICAgICAgICAgICAgICAgICAgICAgICAgICAgICAgICAgICAgICAgICAgICAgICAgICAgICAgICAgICAgICAgICAgICAgICAgICAgICAgICAgIAogICAgICAgICAgICAgICAgICAgICAgICAgICAgICAgICAgICAgICAgICAgICAgICAgICAgICAgICAgICAgICAgICAgICAgICAgICAgICAgICAgICAgICAgICAgICAgICAgICAgCiAgICAgICAgICAgICAgICAgICAgICAgICAgIAo8P3hwYWNrZXQgZW5kPSJ3Ij8+iGtojgAAAAZiS0dEAP8A/wD/oL2nkwAAAAlwSFlzAAALEwAACxMBAJqcGAAAAAd0SU1FB+kIAxcxKtvVf1QAACAASURBVHja7NzBCYRAAATBXfFvMpd/BCZjBJqDCL0HVSHMu5k5AAAAWM4x7tsKAADwvWvMaQUAAIC1bCYAAAAAAAAAAACgImIDAAAAAAAAAAAgs5sAAADgL/xMAAAAr5wmAAAAWJsnNgAAAAAAAAAAADIiNgAAAAAAAAAAADIiNgAAAAAAAAAAADIiNgAAAAAAAAAAADIiNgAAAAAAAAAAADIiNgAAAAAAAAAAADIiNgAAAAAAAAAAADIiNgAAAAAAAAAAADIiNgAAAAAAAAAAADIiNgAAAAAAAAAAADIiNgAAAAAAAAAAADIiNgAAAAAAAAAAADIiNgAAAAAAAAAAADIiNgAAAAAAAAAAADIiNgAAAAAAAAAAADIiNgAAAAAAAAAAADIiNgAAAAAAAAAAADIiNgAAAAAAAAAAADIiNgAAAAAAAAAAADIiNgAAAAAAAAAAADIiNgAAAAAAAAAAADIiNgAAAAAAAAAAADIiNgAAAAAAAAAAADIiNgAAAAAAAAAAADIiNgAAAAAAAAAAADIiNgAAAAAAAAAAADIiNgAAAAAAAAAAADIiNgAAAAAAAAAAADIiNgAAAAAAAAAAADIiNgAAAAAAAAAAADIiNgAAAAAAAAAAADIiNgAAAAAAAAAAADIiNgAAAAAAAAAAADIiNgAAAAAAAAAAADIiNgAAAAAAAAAAADIiNgAAAAAAAAAAADIiNgAAAAAAAAAAADIiNgAAAAAAAAAAADIiNgAAAAAAAAAAADIiNgAAAAAAAAAAADIiNgAAAAAAAAAAADIiNgAAAAAAAAAAADIiNgAAAAAAAAAAADIiNgAAAAAAAAAAADIiNgAAAAAAAAAAADIiNgAAAAAAAAAAADIiNgAAAAAAAAAAADIiNgAAAAAAAAAAADIiNgAAAAAAAAAAADIiNgAAAAAAAAAAADIiNgAAAAAAAAAAADIiNgAAAAAAAAAAADIiNgAAAAAAAAAAADIiNgAAAAAAAAAAADIiNgAAAAAAAAAAADIiNgAAAAAAAAAAADIiNgAAAAAAAAAAADIiNgAAAAAAAAAAADIiNgAAAAAAAAAAADIiNgAAAAAAAAAAADIiNgAAAAAAAAAAADIiNgAAAAAAAAAAADIiNgAAAAAAAAAAADIiNgAAAAAAAAAAADIiNgAAAAAAAAAAADIiNgAAAAAAAAAAADIiNgAAAAAAAAAAADIiNgAAAAAAAAAAADIiNgAAAAAAAAAAADIiNgAAAAAAAAAAADIiNgAAAAAAAAAAADIiNgAAAAAAAAAAADIiNgAAAAAAAAAAADIiNgAAAAAAAAAAADIiNgAAAAAAAAAAADIiNgAAAAAAAAAAADIiNgAAAAAAAAAAADIiNgAAAAAAAAAAADIiNgAAAAAAAAAAADIiNgAAAAAAAAAAADIiNgAAAAAAAAAAADIiNgAAAAAAAAAAADIiNgAAAAAAAAAAADIiNgAAAAAAAAAAADIiNgAAAAAAAAAAADIiNgAAAAAAAAAAADIiNgAAAAAAAAAAADIiNgAAAAAAAAAAADIiNgAAAAAAAAAAADIiNgAAAAAAAAAAADIiNgAAAAAAAAAAADIiNgAAAAAAAAAAADIiNgAAAAAAAAAAADIiNgAAAAAAAAAAADIiNgAAAAAAAAAAADIiNgAAAAAAAAAAADIiNgAAAAAAAAAAADIiNgAAAAAAAAAAADIiNgAAAAAAAAAAADIiNgAAAAAAAAAAADIiNgAAAAAAAAAAADIiNgAAAAAAAAAAADIiNgAAAAAAAAAAADIiNgAAAAAAAAAAADIiNgAAAAAAAAAAADIiNgAAAAAAAAAAADIiNgAAAAAAAAAAADIiNgAAAAAAAAAAADIiNgAAAAAAAAAAADIiNgAAAAAAAAAAADIiNgAAAAAAAAAAADIiNgAAAAAAAAAAADIiNgAAAAAAAAAAADIiNgAAAAAAAAAAADIiNgAAAAAAAAAAADIiNgAAAAAAAAAAADIiNgAAAAAAAAAAADIiNgAAAAAAAAAAADIiNgAAAAAAAAAAADIiNgAAAAAAAAAAADIiNgAAAAAAAAAAADIiNgAAAAAAAAAAADIiNgAAAAAAAAAAADIiNgAAAAAAAAAAADIiNgAAAAAAAAAAADIiNgAAAAAAAAAAADIiNgAAAAAAAAAAADIiNgAAAAAAAAAAADIiNgAAAAAAAAAAADIiNgAAAAAAAAAAADIiNgAAAAAAAAAAADIiNgAAAAAAAAAAADIiNgAAAAAAAAAAADIiNgAAAAAAAAAAADIiNgAAAAAAAAAAADIiNgAAAAAAAAAAADIiNgAAAAAAAAAAADIiNgAAAAAAAAAAADIiNgAAAAAAAAAAADIiNgAAAAAAAAAAADIiNgAAAAAAAAAAADIiNgAAAAAAAAAAADIiNgAAAAAAAAAAADIiNgAAAAAAAAAAADIiNgAAAAAAAAAAADIiNgAAAAAAAAAAADIiNgAAAAAAAAAAADIiNgAAAAAAAAAAADIiNgAAAAAAAAAAADIiNgAAAAAAAAAAADIiNgAAAAAAAAAAADIiNgAAAAAAAAAAADIiNgAAAAAAAAAAADIiNgAAAAAAAAAAADIiNgAAAAAAAAAAADIiNgAAAAAAAAAAADIiNgAAAAAAAAAAADIiNgAAAAAAAAAAADIiNgAAAAAAAAAAADIiNgAAAAAAAAAAADIiNgAAAAAAAAAAADIiNgAAAAAAAAAAADIiNgAAAAAAAAAAADIiNgAAAAAAAAAAADIiNgAAAAAAAAAAADIiNgAAAAAAAAAAADIiNgAAAAAAAAAAADIiNgAAAAAAAAAAADIiNgAAAAAAAAAAADIiNgAAAAAAAAAAADIiNgAAAAAAAAAAADIiNgAAAAAAAAAAADIiNgAAAAAAAAAAADIiNgAAAAAAAAAAADIiNgAAAAAAAAAAADIiNgAAAAAAAAAAADIiNgAAAAAAAAAAADIiNgAAAAAAAAAAADIiNgAAAAAAAAAAADIiNgAAAAAAAAAAADIiNgAAAAAAAAAAADIiNgAAAAAAAAAAADIiNgAAAAAAAAAAADIiNgAAAAAAAAAAADIiNgAAAAAAAAAAADIiNgAAAAAAAAAAADIiNgAAAAAAAAAAADIiNgAAAAAAAAAAADIiNgAAAAAAAAAAADIiNgAAAAAAAAAAADIiNgAAAAAAAAAAADIiNgAAAAAAAAAAADIiNgAAAAAAAAAAADIiNgAAAAAAAAAAADIiNgAAAAAAAAAAADIiNgAAAAAAAAAAADIiNgAAAAAAAAAAADIiNgAAAAAAAAAAADIiNgAAAAAAAAAAADIiNgAAAAAAAAAAADIiNgAAAAAAAAAAADIiNgAAAAAAAAAAADIiNgAAAAAAAAAAADIiNgAAAAAAAAAAADIiNgAAAAAAAAAAADIiNgAAAAAAAAAAADIiNgAAAAAAAAAAADIiNgAAAAAAAAAAADIiNgAAAAAAAAAAADIiNgAAAAAAAAAAADIiNgAAAAAAAAAAADIiNgAAAAAAAAAAADIiNgAAAAAAAAAAADIiNgAAAAAAAAAAADIiNgAAAAAAAAAAADIiNgAAAAAAAAAAADIiNgAAAAAAAAAAADIiNgAAAAAAAAAAADIiNgAAAAAAAAAAADIiNgAAAAAAAAAAADIiNgAAAAAAAAAAADIiNgAAAAAAAAAAADIiNgAAAAAAAAAAADIiNgAAAAAAAAAAADIiNgAAAAAAAAAAADIiNgAAAAAAAAAAADIiNgAAAAAAAAAAADIiNgAAAAAAAAAAADIiNgAAAAAAAAAAADIiNgAAAAAAAAAAADIiNgAAAAAAAAAAADIiNgAAAAAAAAAAADIiNgAAAAAAAAAAADIiNgAAAAAAAAAAADIiNgAAAAAAAAAAADIiNgAAAAAAAAAAADIiNgAAAAAAAAAAADIiNgAAAAAAAAAAADIiNgAAAAAAAAAAADIiNgAAAAAAAAAAADIiNgAAAAAAAAAAADIiNgAAAAAAAAAAADIiNgAAAAAAAAAAADIiNgAAAAAAAAAAADIiNgAAAAAAAAAAADIiNgAAAAAAAAAAADIiNgAAAAAAAAAAADIiNgAAAAAAAAAAADIiNgAAAAAAAAAAADIiNgAAAAAAAAAAADIiNgAAAAAAAAAAADIiNgAAAAAAAAAAADIiNgAAAAAAAAAAADIiNgAAAAAAAAAAADIiNgAAAAAAAAAAADIiNgAAAAAAAAAAADIiNgAAAAAAAAAAADIiNgAAAAAAAAAAADIiNgAAAAAAAAAAADIiNgAAAAAAAAAAADIiNgAAAAAAAAAAADIiNgAAAAAAAAAAADIiNgAAAAAAAAAAADIiNgAAAAAAAAAAADIiNgAAAAAAAAAAADIiNgAAAAAAAAAAADIiNgAAAAAAAAAAADIiNgAAAAAAAAAAADIiNgAAAAAAAAAAADIiNgAAAAAAAAAAADIiNgAAAAAAAAAAADIiNgAAAAAAAAAAADIiNgAAAAAAAAAAADIiNgAAAAAAAAAAADIiNgAAAAAAAAAAADIiNgAAAAAAAAAAADIiNgAAAAAAAAAAADIiNgAAAAAAAAAAADIiNgAAAAAAAAAAADIiNgAAAAAAAAAAADIiNgAAAAAAAAAAADIiNgAAAAAAAAAAADIiNgAAAAAAAAAAADIiNgAAAAAAAAAAADIiNgAAAAAAAAAAADIiNgAAAAAAAAAAADIiNgAAAAAAAAAAADIiNgAAAAAAAAAAADIiNgAAAAAAAAAAADIiNgAAAAAAAAAAADIiNgAAAAAAAAAAADIiNgAAAAAAAAAAADIiNgAAAAAAAAAAADIiNgAAAAAAAAAAADIiNgAAAAAAAAAAADIiNgAAAAAAAAAAADIiNgAAAAAAAAAAADIiNgAAAAAAAAAAADIiNgAAAAAAAAAAADIiNgAAAAAAAAAAADIiNgAAAAAAAAAAADIiNgAAAAAAAAAAADIiNgAAAAAAAAAAADIiNgAAAAAAAAAAADIiNgAAAAAAAAAAADIiNgAAAAAAAAAAADIiNgAAAAAAAAAAADIiNgAAAAAAAAAAADIiNgAAAAAAAAAAADIiNgAAAAAAAAAAADIiNgAAAAAAAAAAADIiNgAAAAAAAAAAADIiNgAAAAAAAAAAADIiNgAAAAAAAAAAADIiNgAAAAAAAAAAADIiNgAAAAAAAAAAADIiNgAAAAAAAAAAADIiNgAAAAAAAAAAADIiNgAAAAAAAAAAADIiNgAAAAAAAAAAADIiNgAAAAAAAAAAADIiNgAAAAAAAAAAADIiNgAAAAAAAAAAADIiNgAAAAAAAAAAADIiNgAAAAAAAAAAADIiNgAAAAAAAAAAADIiNgAAAAAAAAAAADIiNgAAAAAAAAAAADIiNgAAAAAAAAAAADIiNgAAAAAAAAAAADIiNgAAAAAAAAAAADIiNgAAAAAAAAAAADIiNgAAAAAAAAAAADIiNgAAAAAAAAAAADIiNgAAAAAAAAAAADIiNgAAAAAAAAAAADIiNgAAAAAAAAAAADIiNgAAAAAAAAAAADIiNgAAAAAAAAAAADIiNgAAAAAAAAAAADIiNgAAAAAAAAAAADIiNgAAAAAAAAAAADIiNgAAAAAAAAAAADIiNgAAAAAAAAAAADIiNgAAAAAAAAAAADIiNgAAAAAAAAAAADIiNgAAAAAAAAAAADIiNgAAAAAAAAAAADIiNgAAAAAAAAAAADIiNgAAAAAAAAAAADIiNgAAAAAAAAAAADIiNgAAAAAAAAAAADIiNgAAAAAAAAAAADIiNgAAAAAAAAAAADIiNgAAAAAAAAAAADIiNgAAAAAAAAAAADIiNgAAAAAAAAAAADIiNgAAAAAAAAAAADIiNgAAAAAAAAAAADIiNgAAAAAAAAAAADIiNgAAAAAAAAAAADIiNgAAAAAAAAAAADIiNgAAAAAAAAAAADIiNgAAAAAAAAAAADIiNgAAAAAAAAAAADIiNgAAAAAAAAAAADIiNgAAAAAAAAAAADIiNgAAAAAAAAAAADIiNgAAAAAAAAAAADIiNgAAAAAAAAAAADIiNgAAAAAAAAAAADIiNgAAAAAAAAAAADIiNgAAAAAAAAAAADIiNgAAAAAAAAAAADIiNgAAAAAAAAAAADIiNgAAAAAAAAAAADIiNgAAAAAAAAAAADIiNgAAAAAAAAAAADIiNgAAAAAAAAAAADIiNgAAAAAAAAAAADIiNgAAAAAAAAAAADIiNgAAAAAAAAAAADIiNgAAAAAAAAAAADIiNgAAAAAAAAAAADIiNgAAAAAAAAAAADIiNgAAAAAAAAAAADIiNgAAAAAAAAAAADIiNgAAAAAAAAAAADIiNgAAAAAAAAAAADIiNgAAAAAAAAAAADIiNgAAAAAAAAAAADIiNgAAAAAAAAAAADIiNgAAAAAAAAAAADIiNgAAAAAAAAAAADIiNgAAAAAAAAAAADIiNgAAAAAAAAAAADIiNgAAAAAAAAAAADIiNgAAAAAAAAAAADIiNgAAAAAAAAAAADIiNgAAAAAAAAAAADIiNgAAAAAAAAAAADIiNgAAAAAAAAAAADIiNgAAAAAAAAAAADIiNgAAAAAAAAAAADIiNgAAAAAAAAAAADIiNgAAAAAAAAAAADIiNgAAAAAAAAAAADIiNgAAAAAAAAAAADIiNgAAAAAAAAAAADIiNgAAAAAAAAAAADIiNgAAAAAAAAAAADIiNgAAAAAAAAAAADIiNgAAAAAAAAAAADIiNgAAAAAAAAAAADIiNgAAAAAAAAAAADIiNgAAAAAAAB727ibE1ruw4/j3xttoFLQkIOhKEXQlYg2+ggR8AevKhVDEVSmIglJasIQGbF0YBBVfcCFBFBeCgl0odlEXBQXF0LpQfGkoQcFAqYKoUCUmNy4mixDmuBCb33kmnw/MYs7/nMvc38zqzHeeBwAAYEbEBgAAAAAAAAAAwIyIDQAAAAAAAAAAgBkRGwAAAAAAAAAAADMiNgAAAAAAAAAAAGZEbAAAAAAAAAAAAMyI2AAAAAAAAAAAAJgRsQEAAAAAAAAAADAjYgMAAAAAAAAAAGBGxAYAAAAAAAAAAMCMiA0AAAAAAAAAAIAZERsAAAAAAAAAAAAzIjYAAAAAAAAAAABmRGwAAAAAAAAAAADMiNgAAAAAAAAAAACYEbEBAAAAAAAAAAAwI2IDAAAAAAAAAABgRsQGAAAAAAAAAADAjIgNAAAAAAAAAACAGREbAAAAAAAAAAAAMyI2AAAAAAAAAAAAZkRsAAAAAAAAAAAAzIjYAAAAAAAAAAAAmBGxAQAAAAAAAAAAMCNiAwAAAAAAAAAAYEbEBgAAAAAAAAAAwIyIDQAAAAAAAAAAgBkRGwAAAAAAAAAAADMiNgAAAAAAAAAAAGZEbAAAAAAAAAAAAMyI2AAAAAAAAAAAAJi5bgIAAAAA+JN7dfXxP+G/91D1YPXb6hfVz6ufVP9Vfbv6nwNv9ZRH/w+P967qXj9KAAAAAFefiA0AAAAAzt/1Rz+eXt1avaB6xWPOv1d9pvq6qQAAAAA4GrcTBQAAAIDje3H1keruLkI3AAAAADgMERsAAAAAXB1vqD5R3WIKAAAAAI5CxAYAAAAAV8tLqjvNAAAAAMBRXDcBAAAAADxh7q6+9Ee87ubqGdVt1Yuql1evq5524vl/WX2t+sYBNnm4ut2PBgAAAMCTlyuxAQAAAMD5e7D6RfXf1Ver91Vvqr7yB17zzuqa6QAAAAA4dyI2AAAAADimX1f/XN1z4vyFXdxaFAAAAADOmogNAAAAAI7tU9V/njh7vXkAAAAAOHciNgAAAAA4vlNXY3uxaQAAAAA4dyI2AAAAADi+71S/ueTx55sGAAAAgHMnYgMAAACA47tR/eySx5+e9wABAAAAOHPXTQAAAAAAV8JlsdojB/i6n1J9+5LH31Xd69sKAAAAcPX5K0wAAAAAOL6nVc+55PFfdXGVNgAAAAA4WyI2AAAAADi+O7q4otnjPWAaAAAAAM6diA0AAAAAju3m6m9OnLkdJwAAAABnT8QGAAAAAMd1U3VX9bwT5/9uIgAAAADO3XUTAAAAAMAhPb/6h+r2E+f3Vt83EwAAAADnTsQGAAAAAOftevXU6tbqudWLqldXL6uunXjNg9VHTQcAAADAEYjYAAAAAOCJc+ejH//fPlTdZ24AAAAAjkDEBgAAAABXx40uArZ/MQUAAAAARyFiAwAAAICr4afVB6tvmQIAAACAIxGxAQAAAMCx3d/Flde+VP3OHAAAAAAcjYgNAAAAAI7lf6sfVj+ovlHdZxIAAAAAjkzEBgAAAABPnLu7uGLaZW6qbq5uq15W/VX1wkued391T/UjcwIAAABwFdxkAgAAAAA4Czeq31YPVF+u3l59pHrocc97ZfW56u+qPzMbAAAAAEcnYgMAAACA83Sj+nz1ni7itse6qXpb9YnqFlMBAAAAcGQiNgAAAAA4b/dW760evuTs9upjXdyGFAAAAAAOScQGAAAAAOfvm9WHT5z9RfWBvNcHAAAAwEF5YwsAAAAAjuGL1b+eOLujeoeJAAAAADgiERsAAAAAHMfd1U9OnP119SoTAQAAAHA0IjYAAAAAOI7fVHdVD11ydq36p+rPzQQAAADAkYjYAAAAAOBYfljdc+Lstuq9JgIAAADgSERsAAAAAHA8n61+cOLsjdUdJgIAAADgKERsAAAAAHA8D3dx69DfnTi/s3qmmQAAAAA4AhEbAAAAABzT/dWnT5zdVv29iQAAAAA4AhEbAAAAABzXZ6v7Tpy9uXqNiQAAAAA4dyI2AAAAADiuh6r3d3F70cv8Y/UMMwEAAABwzkRsAAAAAHBsP6o+d+Ls2dXfmggAAACAcyZiAwAAAIDju6f68Ymzt1QvNxEAAAAA50rEBgAAAADH92AXtxW9ceL8ruoWMwEAAABwjkRsAAAAAHA1fLf6womz51bvNhEAAAAA50jEBgAAAABXxyerB06cvbV6qYkAAAAAODfXTAAAAHB+ntUjjzzuodutAgAAf5T/eOwnv+ya340AAACcGVdiAwAAAAAAAAAAYEbEBgAAAAAAAAAAwIyIDQAAAAAAAAAAgBkRGwAAAAAAAAAAADMiNgAAAAAAAAAAAGZEbAAAAAAAAAAAAMxcNwEAAAAAPGn8W3XrmXwtr63+z7cEAAAAAFdiAwAAAAAAAAAAYEbEBgAAAAAAAAAAwIyIDQAAAAAAAAAAgBkRGwAAAAAAAAAAADPXTQAAAAAATxpvNAEAAAAA58aV2AAAAAAAAAAAAJgRsQEAAAAAAAAAADAjYgMAAAAAAAAAAGBGxAYAAAAAAAAAAMCMiA0AAAAAAAAAAIAZERsAAAAAAAAAAAAzIjYAAAAAAAAAAABmRGwAAAAAAAAAAADMiNgAAAAAAAAAAACYEbEBAAAAAAAAAAAwI2IDAAAAAAAAAABgRsQGAAAAAAAAAADAjIgNAAAAAAAAAACAGREbAAAAAAAAAAAAMyI2AAAAAAAAAAAAZkRsAAAAAAAAAAAAzIjYAAAAAAAAAAAAmBGxAQAAAAAAAAAAMCNiAwAAAAAAAAAAYEbEBgAAAAAAAAAAwIyIDQAAAAAAAAAAgBkRGwAAAAAAAAAAADMiNgAAAAAAAAAAAGZEbAAAAAAAAAAAAMyI2AAAAAAAAAAAAJgRsQEAAAAAAAAAADAjYgMAAAAAAAAAAGBGxAYAAAAAAAAAAMCMiA0AAAAAAAAAAIAZERsAAAAAAAAAAAAzIjYAAAAAAAAAAABmRGwAAAAAAAAAAADMiNgAAAAAAAAAAACYEbEBAAAAAAAAAAAwI2IDAAAAAAAAAABgRsQGAAAAAAAAAADAjIgNAAAAAAAAAACAGREbAAAAAAAAAAAAMyI2AAAAAAAAAAAAZkRsAAAAAAAAAAAAzIjYAAAAAAAAAAAAmBGxAQAAAAAAAAAAMCNiAwAAAAAAAAAAYEbEBgAAAAAAAAAAwIyIDQAAAAAAAAAAgBkRGwAAAAAAAAAAADMiNgAAAAAAAAAAAGZEbAAAAAAAAAAAAMyI2AAAAAAAAAAAAJgRsQEAAAAAAAAAADAjYgMAAAAAAAAAAGBGxAYAAAAAAAAAAMCMiA0AAAAAAAAAAIAZERsAAAAAAAAAAAAzIjYAAAAAAAAAAABmRGwAAAAAAAAAAADMiNgAAAAAAAAAAACYEbEBAAAAAAAAAAAwI2IDAAAAAAAAAABgRsQGAAAAAAAAAADAjIgNAAAAAAAAAACAGREbAAAAAAAAAAAAMyI2AAAAAAAAAAAAZkRsAAAAAAAAAAAAzIjYAAAAAAAAAAAAmBGxAQAAAAAAAAAAMCNiAwAAAAAAAAAAYEbEBgAAAAAAAAAAwIyIDQAAAAAAAAAAgBkRGwAAAAAAAAAAADMiNgAAAAAAAAAAAGZEbAAAAAAAAAAAAMyI2AAAAAAAAAAAAJgRsQEAAAAAAAAAADAjYgMAAAAAAAAAAGBGxAYAAAAAAAAAAMCMiA0AAAAAAAAAAIAZERsAAAAAAAAAAAAzIjYAAAAAAAAAAABmRGwAAAAAAAAAAADMiNgAAAAAAAAAAACYEbEBAAAAAAAAAAAwI2IDAAAAAAAAAABgRsQGAAAAAAAAAADAjIgNAAAAAAAAAACAGREbAAAAAAAAAAAAMyI2AAAAAAAAAAAAZkRsAAAAAAAAAAAAzIjYAAAAAAAAAAAAmBGxAQAAAAAAAAAAMCNiAwAAAAAAAAAAYEbEBgAAAAAAAAAAwIyIDQAAAAAAAAAAgBkRGwAAAAAAAAAAADMiNgAAAAAAAAAAAGZEbAAAAAAAAAAAAMyI2AAAAAAAAAAAAJgRsQEAAAAAAAAAADAjYgMAAAAAAAAAAGBGxAYAAAAAAAAAAMCMiA0AAAAAAAAAAIAZERsAAAAAAAAAAAAzIjYAAAAAAAAAAABmRGwAYig+xQAAIABJREFUAAAAAAAAAADMiNgAAAAAAAAAAACYEbEBAAAAAAAAAAAwI2IDAAAAAAAAAABgRsQGAAAAAAAAAADAjIgNAAAAAAAAAACAGREbAAAAAAAAAAAAMyI2AAAAAAAAAAAAZkRsAAAAAAAAAAAAzIjYAAAAAAAAAAAAmBGxAQAAAAAAAAAAMCNiAwAAAAAAAAAAYEbEBgAAAAAAAAAAwIyIDQAAAAAAAAAAgBkRGwAAAAAAAAAAADMiNgAAAAAAAAAAAGZEbAAAAAAAAAAAAMyI2AAAAAAAAAAAAJgRsQEAAAAAAAAAADAjYgMAAAAAAAAAAGBGxAYAAAAAAAAAAMCMiA0AAAAAAAAAAIAZERsAAAAAAAAAAAAzIjYAAAAAAAAAAABmRGwAAAAAAAAAAADMiNgAAAAAAAAAAACYEbEBAAAAAAAAAAAwI2IDAAAAAAAAAABgRsQGAAAAAAAAAADAjIgNAAAAAAAAAACAGREbAAAAAAAAAAAAMyI2AAAAAAAAAAAAZkRsAAAAAAAAAAAAzIjYAAAAAAAAAAAAmBGxAQAAAAAAAAAAMCNiAwAAAAAAAAAAYEbEBgAAAAAAAAAAwIyIDQAAAAAAAAAAgBkRGwAAAAAAAAAAADMiNgAAAAAAAAAAAGZEbAAAAAAAAAAAAMyI2AAAAAAAAAAAAJgRsQEAAAAAAAAAADAjYgMAAAAAAAAAAGBGxAYAAAAAAAAAAMCMiA0AAAAAAAAAAIAZERsAAAAAAAAAAAAzIjYAAAAAAAAAAABmRGwAAAAAAAAAAADMiNgAAAAAAAAAAACYEbEBAAAAAAAAAAAwI2IDAAAAAAAAAABgRsQGAAAAAAAAAADAjIgNAAAAAAAAAACAGREbAAAAAAAAAAAAMyI2AAAAAAAAAAAAZkRsAAAAAAAAAAAAzIjYAAAAAAAAAAAAmBGxAQAAAAAAAAAAMCNiAwAAAAAAAAAAYEbEBgAAAAAAAAAAwIyIDQAAAAAAAAAAgBkRGwAAAAAAAAAAADMiNgAAAAAAAAAAAGZEbAAAAAAAAAAAAMyI2AAAAAAAAAAAAJgRsQEAAAAAAAAAADAjYgMAAAAAAAAAAGBGxAYAAAAAAAAAAMCMiA0AAAAAAAAAAIAZERsAAAAAAAAAAAAzIjYAAAAAAAAAAABmRGwAAAAAAAAAAADMiNgAAAAAAAAAAACYEbEBAAAAAAAAAAAwI2IDAAAAAAAAAABgRsQGAAAAAAAAAADAjIgNAAAAAAAAAACAGREbAAAAAAAAAAAAMyI2AAAAAAAAAAAAZkRsAAAAAAAAAAAAzIjYAAAAAAAAAAAAmBGxAQAAAAAAAAAAMCNiAwAAAAAAAAAAYEbEBgAAAAAAAAAAwIyIDQAAAAAAAAAAgBkRGwAAAAAAAAAAADMiNgAAAAAAAAAAAGZEbAAAAAAAAAAAAMyI2AAAAAAAAAAAAJgRsQEAAAAAAAAAADAjYgMAAAAAAAAAAGBGxAYAAAAAAAAAAMCMiA0AAAAAAAAAAIAZERsAAAAAAAAAAAAzIjYAAAAAAAAAAABmRGwAAAAAAAAAAADMiNgAAAAAAAAAAACYEbEBAAAAAAAAAAAwI2IDAAAAAAAAAABgRsQGAAAAAAAAAADAjIgNAAAAAAAAAACAGREbAAAAAAAAAAAAMyI2AAAAAAAAAAAAZkRsAAAAAAAAAAAAzIjYAAAAAAAAAAAAmBGxAQAAAAAAAAAAMCNiAwAAAAAAAAAAYEbEBgAAAAAAAAAAwIyIDQAAAAAAAAAAgBkRGwAAAAAAAAAAADMiNgAAAAAAAAAAAGZEbAAAAAAAAAAAAMyI2AAAAAAAAAAAAJgRsQEAAAAAAAAAADAjYgMAAAAAAAAAAGBGxAYAAAAAAAAAAMCMiA0AAAAAAAAAAIAZERsAAAAAAAAAAAAzIjYAAAAAAAAAAABmRGwAAAAAAAAAAADMiNgAAAAAAAAAAACYEbEBAAAAAAAAAAAwI2IDAAAAAAAAAABgRsQGAAAAAAAAAADAjIgNAAAAAAAAAACAGREbAAAAAAAAAAAAMyI2AAAAAAAAAAAAZkRsAAAAAAAAAAAAzIjYAAAAAAAAAAAAmBGxAQAAAAAAAAAAMCNiAwAAAAAAAAAAYEbEBgAAAAAAAAAAwIyIDQAAAAAAAAAAgBkRGwAAAAAAAAAAADMiNgAAAAAAAAAAAGZEbAAAAAAAAAAAAMyI2AAAAAAAAAAAAJgRsQEAAAAAAAAAADAjYgMAAAAAAAAAAGBGxAYAAAAAAAAAAMCMiA0AAAAAAAAAAIAZERsAAAAAAAAAAAAzIjYAAAAAAAAAAABmRGwAAAAAAAAAAADMiNgAAAAAAAAAAACYEbEBAAAAAAAAAAAwI2IDAAAAAAAAAABgRsQGAAAAAAAAAADAjIgNAAAAAAAAAACAGREbAAAAAAAAAAAAMyI2AAAAAAAAAAAAZkRsAAAAAAAAAAAAzIjYAAAAAAAAAAAAmBGxAQAAAAAAAAAAMCNiAwAAAAAAAAAAYEbEBgAAAAAAAAAAwIyIDQAAAAAAAAAAgBkRGwAAAAAAAAAAADMiNgAAAAAAAAAAAGZEbAAAAAAAAAAAAMyI2AAAAAAAAAAAAJgRsQEAAAAAAAAAADAjYgMAAAAAAAAAAGBGxAYAAAAAAAAAAMCMiA0AAAAAAAAAAIAZERsAAAAAAAAAAAAzIjYAAAAAAAAAAABmRGwAAAAAAAAAAADMiNgAAAAAAAAAAACYEbEBAAAAAAAAAAAwI2IDAAAAAAAAAABgRsQGAAAAAAAAAADAjIgNAAAAAAAAAACAGREbAAAAAAAAAAAAMyI2AAAAAAAAAAAAZkRsAAAAAAAAAAAAzIjYAAAAAAAAAAAAmBGxAQAAAAAAAAAAMCNiAwAAAAAAAAAAYEbEBgAAAAAAAAAAwIyIDQAAAAAAAAAAgBkRGwAAAAAAAAAAADMiNgAAAAAAAAAAAGZEbAAAAAAAAAAAAMyI2AAAAAAAAAAAAJgRsQEAAAAAAAAAADAjYgMAAAAAAAAAAGBGxAYAAAAAAAAAAMCMiA0AAAAAAAAAAIAZERsAAAAAAAAAAAAzIjYAAAAAAAAAAABmRGwAAAAAAAAAAADMiNgAAAAAAAAAAACYEbEBAAAAAAAAAAAwI2IDAAAAAAAAAABgRsQGAAAAAAAAAADAjIgNAAAAAAAAAACAGREbAAAAAAAAAAAAMyI2AAAAAAAAAAAAZkRsAAAAAAAAAAAAzIjYAAAAAAAAAAAAmBGxAQAAAAAAAAAAMCNiAwAAAAAAAAAAYEbEBgAAAAAAAAAAwIyIDQAAAAAAAAAAgBkRGwAAAAAAAAAAADMiNgAAAAAAAAAAAGZEbAAAAAAAAAAAAMyI2AAAAAAAAAAAAJgRsQEAAAAAAAAAADAjYgMAAAAAAAAAAGBGxAYAAAAAAAAAAMCMiA0AAAAA+D17dxtqW17Qcfx3nXHCpykFNQuSNAecCpVGKcHUlCYdR0ohI+iN9iKLEiPoiehVUPTCCEsohOiF0BPNJRU1dMKkzO4IGlHEMD4wDKSFzgiJMzrTi3PGufectffZD2ut/9PnA5s7/Pfstc/+H9jstf/fs/4AAAAAUIyIDQAAAAAAAAAAgGJEbAAAAAAAAAAAABQjYgMAAAAAAAAAAKAYERsAAAAAAAAAAADFiNgAAAAAAAAAAAAoRsQGAAAAAAAAAABAMSI2AAAAAAAAAAAAihGxAQAAAAAAAAAAUIyIDQAAAAAAAAAAgGJEbAAAAAAAAAAAABQjYgMAAAAAAAAAAKAYERsAAAAAAAAAAADFiNgAAAAAAAAAAAAoRsQGAAAAAAAAAABAMSI2AAAAAAAAAAAAihGxAQAAAAAAAAAAUIyIDQAAAAAAAAAAgGJEbAAAAAAAAAAAABQjYgMAAAAAAAAAAKAYERsAAAAAAAAAAADFiNgAAAAAAAAAAAAoRsQGAAAAAAAAAABAMSI2AAAAAAAAAAAAihGxAQAAAAAAAAAAUIyIDQAAAAAAAAAAgGJEbAAAAAAAAAAAABQjYgMAAAAAAAAAAKAYERsAAAAAAAAAAADFiNgAAAAAAAAAAAAoRsQGAAAAAAAAAABAMSI2AAAAAAAAAAAAihGxAQAAAAAAAAAAUIyIDQAAAAAAAAAAgGJEbAAAAAAAAAAAABQjYgMAAAAAAAAAAKAYERsAAAAAAAAAAADFiNgAAAAAAAAAAAAoRsQGAAAAAAAAAABAMSI2AAAAAAAAAAAAihGxAQAAAAAAAAAAUIyIDQAAAAAAAAAAgGJEbAAAAAAAAAAAABQjYgMAAAAAAAAAAKAYERsAAAAAAAAAAADFiNgAAAAAAAAAAAAoRsQGAAAAAAAAAABAMSI2AAAAAAAAAAAAihGxAQAAAAAAAAAAUIyIDQAAAAAAAAAAgGJEbAAAAAAAAAAAABQjYgMAAAAAAAAAAKAYERsAAAAAAAAAAADFXDIFAAAA9fnWPPKIWQAAgPndn0vWRgAAACpzycIIAAAAAAAAAAAApdhOFAAAAAAAAAAAgGJEbAAAAAAAAAAAABQjYgMAAAAAAAAAAKCY66/671tMBwAAQFFXLrjfeRsAAPiMDQAA0N25myuxAQAAVHKCZgoAAMDncAAAgBGJ2AAAAMqzcAYAAD6PAwAADEvEBgAAUNbUgpktjQAAYDm37Pi5HAAAgJWI2AAAAMoRsAEAQBlCNgAAgIqI2AAAAMoQsAEAQFlCNgAAgEqI2AAAANYnYAMAgDoI2QAAACogYgMAAFiXgA0AAOoiZAMAAChMxAYAALAeARsAANRJyAYAAFCQiA0AAGAdAjYAAKibkA0AAKAQERsAAMDyBGwAANAGIRsAAEABIjYAAIBlCdgAAKAtQjYAAICVidgAAACWI2ADAIA2CdkAAABWJGIDAABYhoANAADaJmQDAABYiYgNAABgfgI2AADog5ANAABgBSI2AACAeQnYAACgL0I2AACAhYnYAAAA5iNgAwCAPgnZAAAAFiRiAwAAmIeADQAA+iZkAwAAWIiIDQAA4HgCNgAAGIOQDQAAYAEiNgAAgOMI2AAAYCxCNgAAgJmJ2AAAAA4nYAMAgDEJ2QAAAGYkYgMAADiMgA0AAMYmZAMAAJiJiA0AAGB/AjYAAGDTeYCQDQAAYE8iNgAAgP0I2AAAgIvOB4RsAAAAexCxAQAA7E7ABgAAZMfzAiEbAADAjkRsAAAAuxGwAQAA2wjZAAAADiRiAwAAuJiADQAA2IWQDQAA4AAiNgAAgO0EbAAAwD6EbAAAAHsSsQEAAGwmYAMAAA4hZAMAANiDiA0AAGCagA0AADiGkA0AAGBHIjYAAIDzBGwAAMAchGwAAAA7ELEBAABcS8AGAADMScgGAABwAREbAADAYwRsAADAEoRsAAAAW4jYAAAATgjYAACAJQnZAAAANhCxAQAACNgAAIB1CNkAAAAmiNgAAIDRCdgAAIA1CdkAAADOELEBAAAjE7ABAAAlCNkAAACuImIDAABGJWADAABKErIBAACcErEBAAAjErABAAA1ELIBAABExAYAAIxHwAYAANREyAYAAAxPxAYAAIxEwAYAANRIyAYAAAxNxAYAAIxCwAYAANRMyAYAAAxLxAYAAIxAwAYAALRAyAYAAAxJxAYAAPROwAYAALREyAYAAAxHxAYAAPRMwAYAALRIyAYAAAxFxAYAAPRKwAYAALRMyAYAAAxDxAYAAPRIwAYAAPRAyAYAAAxBxAYAAPRGwAYAAPREyAYAAHRPxAYAAPREwAYAAPRIyAYAAHRNxAYAAPRCwAYAAPRMyAYAAHRLxAYAAPRAwAYAAIxAyAYAAHRJxAYAALROwAYAAIxEyAYAAHRHxAYAALRMwAYAAIxIyAYAAHRFxAYAALRKwAYAAIxMyAYAAHRDxAYAALRIwAYAACBkAwAAOiFiAwAAWiNgAwAA2H4+JGQDAACaImIDAABaImADAADY7bxIyAYAADRDxAYAALRCwAYAALCZkA0AAGiWiA0AAGiBgA0AAOBiQjYAAKBJIjYAAKB2AjYAAIDdCdkAAIDmiNgAAICaCdgAAAD2J2QDAACaImIDAABqJWADAAA4nJANAABohogNAACokYANAADgeEI2AACgCSI2AACgNgI2AACA+QjZAACA6onYAACAmgjYAAAA5idkAwAAqiZiAwAAaiFgAwAAWI6QDQAAqJaIDQAAqIGADQAAYHlCNgAAoEoiNgAAoDQBGwAAwHqEbAAAQHVEbAAAQEkCNgAAgPUJ2QAAgKqI2AAAgFIEbAAAAOUI2QAAgGqI2AAAgBIEbAAAAOUJ2QAAgCqI2AAAgLUJ2AAAAOohZAMAAIoTsQEAAGsSsAEAANRHyAYAABQlYgMAANYiYAMAAKiXkA0AAChGxAYAAKxBwAYAAFA/IRsAAFCEiA0AAFiagA0AAKAdQjYAAGB1IjYAAGBJAjYAAID2CNkAAIBVidgAAIClCNgAAADaJWQDAABWI2IDAACWIGADAABon5ANAABYhYgNAACYm4ANAACgH0I2AABgcSI2AABgTgI2AACA/gjZAACARYnYAACAuQjYAAAA+iVkAwAAFiNiAwAA5iBgAwAA6J+QDQAAWISIDQAAOJaADQAAYBxCNgAAYHYiNgAA4BgCNgAAgPEI2QAAgFmJ2AAAgEMJ2AAAAMYlZAMAAGYjYgMAAA4hYAMAAEDIBgAAzELEBgAA7EvABgAAwLbzQSEbAACwFxEbAACwDwEbAAAAu5wXCtkAAICdidgAAIBdCdgAAADYRMgGAAAcTMQGAADsQsAGAADARYRsAADAQURsAADARQRsAAAA7ErIBgAA7E3EBgAAbCNgAwAAYF9CNgAAYC8iNgAAYBMBGwAAAIcSsgEAADsTsQEAAFMEbAAAABxLyAYAAOxExAYAAJwlYAMAAGAuQjYAAOBCIjYAAOBqAjYAAADmJmQDAAC2ErEBAACPErABAACwFCEbAACwkYgNAABIBGwAAAAsT8gGAABMErEBAAACNgAAANYiZAMAAM4RsQEAwNgEbAAAAKxNyAYAAFxDxAYAAOMSsAEAAFCKkA0AAPgmERsAAIxJwAYAAEBpQjYAACCJiA0AAEYkYAMAAKAWQjYAAEDEBgAAgxGwAQAAUBshGwAADE7EBgAA4xCwAQAAUCshGwAADEzEBgAAYxCwAQAAUDshGwAADErEBgAA/ROwAQAA0AohGwAADEjEBgAAfROwAQAA0BohGwAADEbEBgAA/RKwAQAA0CohGwAADETEBgAAfRKwAQAA0DohGwAADELEBgAA/RGwAQAA0AshGwAADEDEBgAAfRGwAQAA0BshGwAAdE7EBgAA/RCwAQAA0CshGwAAdEzEBgAAfRCwAQAA0DshGwAAdErEBgAA7ROwAQAAMAohGwAAdEjEBgAAbROwAQAAMBohGwAAdEbEBgAA7RKwAQAAMCohGwAAdETEBgAAbRKwAQAAMDohGwAAdELEBgAA7RGwAQAAwObzYSEbAAA0RsQGAABtEbABAADAxefFQjYAAGiIiA0AANohYAMAAIBpQjYAAGiYiA0AANogYAMAAIDthGwAANAoERsAANRPwAYAAAC7EbIBAECDRGwAAFA3ARsAAADsR8gGAACNEbEBAEC9BGwAAABwGCEbAAA0RMQGAAB1ErABAADAcYRsAADQCBEbAADUR8AGAAAA8xCyAQBAA0RsAABQFwEbAAAAzEvIBgAAlROxAQBAPQRsAAAAsAwhGwAAVEzEBgAAdRCwAQAAwLKEbAAAUCkRGwAAlCdgAwAAgHUI2QAAoEIiNgAAKEvABgAAAOsSsgEAQGVEbAAAUI6ADQAAAMoQsgEAQEVEbAAAUIaADQAAAMoSsgEAQCVEbAAAsD4BGwAAANRByAYAABUQsQEAwLoEbAAAAFAXIRsAABQmYgMAgPUI2AAAAKBOQjYAAChIxAYAAOsQsAEAAEDdhGwAAFCIiA0AAJYnYAMAAIA2CNkAAKAAERsAACxLwAYAAABtEbIBAMDKRGwAALAcARsAAAC0ScgGAAArErEBAMAyBGwAAADQNiEbAACsRMQGAADzE7ABAABAH4RsAACwAhEbAADMS8AGAAAAfRGyAQDAwkRsAAAwHwEbAAAA9EnIBgAACxKxAQDAPARsAAAA0DchGwAALETEBgAAxxOwAQAAwBiEbAAAsAARGwAAHEfABgAAAGMRsgEAwMxEbAAAcDgBGwAAAIxJyAYAADMSsQEAwGEEbAAAADA2IRsAAMxExAYAAPsTsAEAAACJkA0AAGYhYgMAgP0I2AAAAICrCdkAAOBIIjYAANidgA0AAACYImQDAIAjiNgAAGA3AjYAAABgGyEbAAAcSMQGAAAXE7ABAAAAuxCyAQDAAURsAACwnYANAAAA2IeQDQAA9iRiAwCAzQRsAAAAwCGEbAAAsAcRGwAATBOwAQAAAMcQsgEAwI5EbAAAcJ6ADQAAAJiDkA0AAHYgYgMAgGsJ2AAAAIA5CdkAAOACIjYAAHiMgA0AAABYgpANAAC2ELEBAMAJARsAAACwJCEbAABsIGIDAAABGwAAALAOIRsAAEwQsQEAMDoBGwAAALAmIRsAAJwhYgMAYGQCNgAAAKAEIRsAAFxFxAYAwKgEbAAAAEBJQjYAADglYgMAYEQCNgAAAKAGQjYAAIiIDQCA8QjYAAAAgJoI2QAAGJ6IDQCAkQjYAAAAgBoJ2QAAGJqIDQCAUQjYAAAAgJoJ2QAAGJaIDQCAEQjYAAAAgBYI2QAAGJKIDQCA3gnYAAAAgJYI2QAAGI6IDQCAngnYAAAAgBYJ2QAAGIqIDQCAXgnYAAAAgJYJ2QAAGIaIDQCAHgnYAAAAgB4I2QAAGIKIDQCA3gjYAAAAgJ4I2QAA6J6IDQCAngjYAAAAgB4J2QAA6JqIDQCAXgjYAAAAgJ4J2QAA6JaIDQCAHgjYAAAAgBEI2QAA6JKIDQCA1gnYAAAAgJEI2QAA6I6IDQCAlgnYAAAAgBEJ2QAA6IqIDQCAVgnYAAAAgJEJ2QAA6IaIDQCAFgnYAAAAAIRsAAB0QsQGAEBrBGwAAAAAjxGyAQDQPBEbAAAtEbABAAAAnCdkAwCgaSI2AABaIWADAAAA2EzIBgBAs0RsAAC0QMAGAAAAcDEhGwAATRKxAQBQOwEbAAAAwO6EbAAANEfEBgBAzQRsAAAAAPsTsgEA0BQRGwAAtRKwAQAAABxOyAYAQDNEbAAA1EjABgAAAHA8IRsAAE0QsQEAUBsBGwAAAMB8hGwAAFRPxAYAQE0EbAAAAADzE7IBAFA1ERsAALUQsAEAAAAsR8gGAEC1RGwAANRAwAYAAACwPCEbAABVErEBAFCagA0AAABgPUI2AACqI2IDAKAkARsAAADA+oRsAABURcQGAEApAjYAAACAcoRsAABUQ8QGAEAJAjYAAACA8oRsAABUQcQGAMDaBGwAAAAA9RCyAQBQnIgNAIA1CdgAAAAA6iNkAwCgKBEbAABrEbABAAAA1EvIBgBAMSI2AADWIGADAAAAqJ+QDQCAIkRsAAAsTcAGAAAA0A4hGwAAqxOxAQCwJAEbAAAAQHuEbAAArErEBgDAUgRsAAAAAO0SsgEAsBoRGwAASxCwAQAAALRPyAYAwCpEbAAAzE3ABgAAANAPIRsAAIsTsQEAMCcBGwAAAEB/hGwAACxKxAYAwFwEbAAAAAD9ErIBALAYERsAAHMQsAEAAAD0T8gGAMAiRGwAABxLwAYAAAAwDiEbAACzE7EBAHAMARsAAADAeIRsAADMSsQGAMChBGwAAAAA4xKyAQAwGxEbAACHELABAAAAIGQDAGAWIjYAAPYlYAMAAADgUUI2AACOJmIDAGAfAjYAAAAAzhKyAQBwFBEbAAC7ErABAAAAsImQDQCAg4nYAADYhYANAAAAgIsI2QAAOIiIDQCAiwjYAAAAANiVkA0AgL2J2AAA2EbABgAAAMC+hGwAAOxFxAYAwCYCNgAAAAAOJWQDAGBnIjYAAKYI2AAAAAA4lpANAICdiNgAADhLwAYAAADAXIRsAABcSMQGAMDVBGwAAAAAzE3IBgDAViI2AAAeJWADAAAAYClCNgAANhKxAQCQCNgAAAAAWJ6QDQCASSI2AAAEbAAAAACsRcgGAMA5IjYAgLEJ2AAAAABYm5ANAIBriNgAAMYlYAMAAACgFCEbAADfJGIDABiTgA0AAACA0oRsAAAkEbEBAIxIwAYAAABALYRsAACI2AAABiNgAwAAAKA2QjYAgMGJ2AAAxiFgAwAAAKBWQjYAgIGJ2AAAxiBgAwAAAKB2QjYAgEGJ2AAA+idgAwAAAKAVQjYAgAGJ2AAA+iZgAwAAAKA1QjYAgMGI2AAA+iVgAwAAAKBVQjYAgIGI2AAA+iRgAwAAAKB1QjYAgEGI2AAA+iNgAwAAAKAXQjYAgAGI2AAA+iJgAwAAAKA3QjYAgM6J2AAA+iFgAwAAAKBXQjYAgI6J2AAA+iBgAwAAAKB3QjYAgE6J2AAA2idgAwAAAGAUQjYAgA6J2AAA2iZgAwAAAGA0QjYAgM6I2AAA2iVgAwAAAGBUQjYAgI6I2AAA2iRgAwAAAGB0QjYAgE6I2AAA2iNgAwAAAIATQjYAgA6I2AAA2iJgAwAAAIBrCdkAABonYgMAaIeADQAAAACmCdkAABomYgMAaIOADQAAAAC2E7IBADRKxAYAUD8BGwAAAADsRsgGANAgERsAQN0EbAAAAACwHyEbAEBjRGwAAPUSsAEAAADAYYRsAAANEbEBANRJwAYAAAAAxxGyAQA0QsQGAFAfARsAAAAAzEPIBgDQABEbAEBdBGwAAAAAMC8hGwBA5URsAAD1ELABAAAAwDKEbAAAFROxAQDUQcAGAAAAAMsSsgEAVErEBgBQnoANAAAAANYhZAMAqJAmR4JxAAAgAElEQVSIDQCgLAEbAAAAAKxLyAYAUBkRGwBAOQI2AAAAAChDyAYAUBERGwBAGQI2AAAAAChLyAYAUAkRGwDA+gRsAAAAAFAHIRsAQAVEbAAA6xKwAQAAAEBdhGwAAIWJ2AAA1iNgAwAAAIA6CdkAAAoSsQEArEPABgAAAAB1E7IBABQiYgMAWJ6ADQAAAADaIGQDAChAxAYAsCwBGwAAAAC0RcgGALAyERsAwHIEbAAAAADQJiEbAMCKRGwAAMsQsAEAAABA24RsAAArEbEBAMxPwAYAAAAAfRCyAQCsQMQGADAvARsAAAAA9EXIBgCwMBEbAMB8BGwAAAAA0CchGwDAgkRsAADzELABAAAAQN+EbAAACxGxAQAcT8AGAAAAAGMQsgEALEDEBgBwHAEbAAAAAIxFyAYAMDMRGwDA4QRsAAAAADAmIRsAwIxEbAAAhxGwAQAAAMDYhGwAADMRsQEA7E/ABgAAAAAkQjYAgFmI2AAA9iNgAwAAAACuJmQDADiSiA0AYHcCNgAAAABgipANAOAIIjYAgN0I2AAAAACAbYRsAAAHErEBAFxMwAYAAAAA7ELIBgBwABEbAMB2AjYAAAAAYB9CNgCAPYnYAAA2E7ABAAAAAIcQsgEA7EHEBgAwTcAGAAAAABxDyAYAsCMRGwDAeQI2AAAAAGAOQjYAgB2I2AAAriVgAwAAAADmJGQDALiAiA0A4DECNgAAAABgCUI2AIAtRGwAACcEbAAAAADAkoRsAAAbiNgAAARsAAAAAMA6hGwAABNEbADA6ARsAAAAAMCahGwAAGeI2ACAkQnYAAAAAIAShGwAAFcRsQEAoxKwAQAAAAAlCdkAAE6J2ACAEQnYAAAAAIAaCNkAACJiAwDGI2ADAAAAAGoiZAMAhidiAwBGImADAAAAAGokZAMAhiZiAwBGIWADAAAAAGomZAMAhiViAwBGIGADAAAAAFogZAMAhnS9KQAqdlOS90yMvyvJu1d8vj85vbHddUn+ZWL855N8wvRQkIANAAAAAGjJLTn/veaV+F4TWMbbkvzMxPjfJvmdlX6Gn07yyxPjv5nkg35F51iXpUsiNoDlP0C8OMkLknx/kmcluTHJU5J8Lcn9Sb6c5D+S3HX6oeLLpg1mI2ADAAAAAFokZAPWckemI7ZXJ/n9JA+u8DPcPjH2QJI79ziGdVlonIgNYBlPTvKmJG9M8owt78FPSvIdSW4+/X8fTPLeJH+e5F7TCEcRsAEAAAAALROyAWv4XJJP5ST+utpTkrwsyYcXfv7nJ3nexPj7s1tAZ10WOvE4UwAwu5ck+Yskb93yQWmTG5K8Iclfnv4LHEbABgAAAAD0YOp7zSumBZjZ5Q3jt63w3LdvGL9jh8dal4WOiNgA5vWGJH+U5JlHHueGJL+Rk33egf0I2AAAAACAngjZgKX9fZL/mxh/aZJvW/B5b0jyYxPj/57k7gsea10WOmM7UYD53Jrk15JcmvGYP5HkS0n+uIHX/40IhShPwAYAAAAA9MjWosCSvprkQ0l+/Mz49Ul+NCdXK1vCy5PcODF+0VXYrMt6/6dDIjaAeTw9J3X+pitcfj4nl+G9K8l9SR5I8sScXNb2hUlel+T7Njz2zUk+neRjphm2ErABAAAAAD0TsgFLupzzEVtyso65VMQ2tZXoV5N8cMtjrMtCp0RsAPN4++mHn7MeTPKOJH+T5OEz9z1wers7yV8neWWS38r0Xxu8PcnHk3zdVMMkARsAAAAAMAIhG7CUf0tyT5LnnBm/Ocmzk3xu5ud7RpIfnBjftLXpo6zLQqceZwoAjvb0JK+eGH8oyS8m+auJD0pT7kzyliT3T9z37CQ/YqphkoANAAAAABjJ1PefV0wLMIPLG8ZvW+C5bst0s7JtK1HrstAxERvA8W7d8H76zpxcpnYfn0ny2xvue7mphnMEbAAAAADAiIRswBLen+krkL0myaWZn2tqK9F7crKd5ybWZaFjIjaA4/3wxNgXc1L6H+JjST41Mf4SUw3XELABAAAAACMTsgFz+1KSj06MPyvJi2Z8nhcm+a6J8TsueJx1WeiYiA3geN8zMfbRnOy7fqg7J8aemuTxphuSCNgAAAAAABIhGzC/TSHZnFuKvn5i7KEk77vgcdZloWMiNoDjPD3JjRPjnz7yuPduGH9qxXNx3emJ8dmbv1RgbgI2AAAAAIDHCNmAOX08yRcmxl+d5IYZjv+E02OddWeS+7c8zrrsY6zL0qXrTQHAUb6Yk78UuOn09rzTf//nyONuiowfNuUMTsAGAAAAAHDeLTn//emV+P4U2N/DSf4uyVvOjD8pySuSfOjI478qyRMnxi/aStS6LHROxAZwvPtOb/8w4zGn9oD/ek72oYdRCdgAAAAAADYTsgFzuZzkzUkunRl/bY6P2Ka2Er0vyb/u8FjrstAx24kC1OllE2N3J/mGqWFQAjYAAAAAgIvZWhSYw6ao7IeSPO2I435nkhdNjF9O8kih12pdFiohYgOoz81JXjAx/s+mhkEJ2AAAAAAAdidkA+ZweWLsuiS3HnHM23P+6m6Pbl9agnVZqIiIDaAul5L80ob73md6GJCADQAAAABgf0I24Fh3JnlgYvy1Bx7vUpLXTYz/U5IvFHh91mWhMtebAqBBbz299ehNG04sP5rks371DEbABgAAAABwuFty/nvWK/E9K7CbB5N8IMlPnhl/fpLvTvKZPY/34iTfPjF+R6HXZ10WKuNKbAD1eEGSt02MP5TkD00PgxGwAQAAAAAczxXZgGNsCsxuO+BYr58Y+98k/1jgdVmXhQqJ2ADq8Nwk70jy+In7/jRqf8YiYAMAAAAAmI+QDTjUfyX5z4nx1+RkO85dPTnJKyfG35vkGyu/JuuyUCkRG0B5z03yriQ3Ttz3iSR/ZooYiIANAAAAAGB+QjbgUJcnxp6Z5Af2OMatSb7lzNgjG469JOuyUDERG0BZ35uTov9pE/d9NsmvJnnYNDEIARsAAAAAwHKEbMAhPpDkaxPj+2wpOrWV6CeTfH7F12FdFip3vSkAGvSuJO9e4Lg3JXnPiq/jpUl+L8kTJu67L8kvJPmKXzeDELABAAAAACzvlpz/PvZKfB8LbPaVJB/JyRaiV3tVkt/NdOB2tefkJCA7644VX4N1WWiAK7EBlPHGJH+w5YPSzyX5b9PEIARsAAAAAADrcUU2YF9T234+Mckrdnjs7RNjDyT58Eo/u3VZaISIDWD9991fSfLrG96D70nyltMPTDACARsAAAAAwPqEbMA+7kpy78T4RVuKXpfktRPjH0jy4MI/s3VZaIyIDWA9NyZ5Z5Kf2nD/J5P8bJIvmioGIWCD/2fvXmMtO+/6jv8mPpgmlBjbYEJK2iaQRGkIbcSQpknjEBnZsU2iSmloQYIXVCARQaOCuFOhKkUtSOUFb7iItC+KHFSprceNaRynhDiQixmqxhEpSkMCUQDhFicYPCRjzwwvznE6PmftffZlXZ7L5yMdjea/z9nr+Dn2zN5rff0sAAAAAFiOkA3Y1JUk9wzMX57kxjVf98oVj099K1HXZaFCIjaAeTw/yS8nedmKx/97Du+1/qilohMCNgAAAACA5QnZgE29PcnlY7OnJbltzdcM3Ur0I0k+OuH36bosVErEBjC9W5L8+yTPHnjsSpKfT/IvkzxuqeiEgA0AAAAAoBxCNmATDyd5/8B81S1Fr0/yqoH5lLuwuS4LFROxAUzru5L8VJKnDzx2IckPJPkly0RHBGwAAAAAAOURsgGbGArQXpjkqwbmtyc5ODb7bJL7JvreXJeFyonYAKZxkORfHb1YGvKHSb4jya9bKjoiYAMAAAAAKJeQDTjNe5M8MjAf2o1t6Fai9yd5bOTvyXVZaISIDWB81yb5d1m9de4Hk3xbko9ZKjoiYAMAAAAAKJ+QDVjniST3DsxvTXLmqt9/dZLnD3ze2LcSdV0WGiJiAxjXFyb52SSvXPH425J8b5JHLRUdEbABAAAAANRDyAasc25g9qwkX3vV7+8Y+JxPJPnQiN+H67LQGBEbwHgOkvz0ijd3l5L86xz+nwCXLRUdEbABAAAAANRHyAas8vtJHhqY33b069OSvHbg8TF3YXNdFhokYgMYzw9kuPS/kOSfZ/ztcaF0AjYAAAAAgHoJ2YBVhq573pLDW4q+JMlNxx57PMO3Id2V67LQIBEbwDjuTPKGgflnk3xPDu+3Dj0RsAEAAAAA1E/IBgx5Vw6DsavdmOTFSV4z8PnvSfKZkY7tuiw0SsQGsL+bkvzgwPzy0fwhS0RnBGwAAAAAAO0QsgHHXUhy/8D85iSvHpiPtTOa67LQMBEbwP7enOSLBuZvTfI+y0NnBGwAAAAAAO0RsgHHnRuYvSHJc47N/jjJgyMd03VZaNiBJQDYy3OT3Lrise88+hjTtyf5iGWnUAI2AAAAAIB2nc3J88Dn4zww9OqhJB9P8ryrZtcNfN49OdwpbV+uy0Lj7MQGsJ83JjljGUDABgAAAADQATuyAVe755THL2/wOZtyXRYaJ2ID2M8/tAQgYAMAAAAA6IiQDXjSvUmeWPP4B5L8yUjHcl0WGidiA9jddUmebRnonIANAAAAAKA/QjYgST6d5IE1j9890nFcl4UOiNgAdvclloDOCdgAAAAAAPolZAOS5NyK+SNZH7htw3VZ6MCZ63LlypoXGQAAQwRsAP6sBQAAr6sB8GctADDK6wk7sQEAW7+AGJg5IQEAAAAA0Cc7sgEAexOxAQDbELABAAAAAHCckA0A2IuIDQDYlIANAAAAAIBVhGwAwM5EbADAJgRsAAAAAACcRsgGAOxExAYAnEbABgAAAADApoRsAMDWRGwAwDoCNgAAAAAAtiVkAwC2cmAJAKr0ziQ3FPK93Jzkgh9JkwRsAAAAAADs6mxOnmc+H+eZgbq4LgszsRMbADBEwAYAAAAAwL7syAYAbETEBgAcJ2ADAAAAAGAsQjYA4FQiNgDgagI2AAAAAADGJmQDANYSsQEATxKwAQAAAAAwFSEbALDSgSUAqNKtloCRCdgAAAAAAJja2Zw8H30+zkcD5XJdFmZiJzYAQMAGAAAAAMBc7MgGAJwgYgOAvgnYAAAAAACYm5ANAHgKERsA9EvABgAAAADAUoRsAMDnidgAoE8CNgAAAAAAliZkAwCSiNgAoEcCNgAAAAAASiFkAwBEbADQGQEbAAAAAAClEbIBQOdEbADQDwEbAAAAAAClErIBQMdEbADQBwEbAAAAAAClE7IBQKdEbADQPgEbAAAAAAC1ELIBQIdEbADQNgEbAAAAAAC1EbIBQGdEbADQLgEbAAAAAAC1ErIBQEdEbADQJgEbAAAAAAC1E7IBQCdEbADQHgEbAAAAAACtELIBQAdEbADQFgEbAAAAAACtEbIBQONEbADQDgEbAAAAAACtErIBQMNEbADQBgEbAAAAAACtE7IBQKNEbABQPwEbAAAAAAC9ELIBQINEbABQNwEbAAAAAAC9EbIBQGNEbABQLwEbAAAAAAC9ErIBQENEbABQJwEbAAAAAAC9E7IBQCNEbABQHwEbAAAAAAAcErIBQANEbABQFwEbAAAAAAA8lZANAConYgOAegjYAAAAAABgmJANAComYgOAOgjYAAAAAABgPSEbAFRKxAYA5ROwAQAAAADAZoRsAFAhERsAlE3ABgAAAAAA2xGyAUBlRGwAUC4BGwAAAAAA7EbIBgAVEbEBQJkEbAAAAAAAsB8hGwBUQsQGAOURsAEAAAAAwDiEbABQAREbAJRFwAYAAAAAAOMSsgFA4URsAFAOARsAAAAAAExDyAYABROxAUAZBGwAAAAAADAtIRsAFErEBgDLE7ABAAAAAMA8hGwAUCARGwAsS8AGAAAAAADzErIBQGFEbACwHAEbAAAAAAAsQ8gGAAURsQHAMgRsAAAAAACwLCEbABRCxAYA8xOwAQAAAABAGYRsAFAAERsAzEvABgAAAAAAZRGyAcDCRGwAMB8BGwAAAAAAlEnIBgALErEBwDwEbAAAAAAAUDYhGwAsRMQGANMTsAEAAAAAQB2EbACwABEbAExLwAYAAAAAAHURsgHAzERsADAdARsAAAAAANRJyAYAMxKxAcA0BGwAAAAAAFA3IRsAzETEBgDjE7ABAAAAAEAbhGwAMAMRGwCMS8AGAAAAAABtEbIBwMREbAAwHgEbAAAAAAC0ScgGABMSsQHAOARsAAAAAADQNiEbAExExAYA+xOwAQAAAABAH4RsADABERsA7EfABgAAAAAAfRGyAcDIRGwAsDsBGwAAAAAA9EnIBgAjErEBwG4EbAAAAAAA0DchGwCMRMQGANsTsAEAAAAAAImQDQBGIWIDgO0I2AAAAAAAgKsJ2QBgTyI2ANicgA0AAAAAABgiZAOAPYjYAGAzAjYAAAAAAGAdIRsA7EjEBgCnE7ABAAAAAACbELIBwA5EbACwnoANAAAAAADYhpANALYkYgOA1QRsAAAAAADALoRsALAFERsADBOwAQAAAAAA+xCyAcCGRGwAsNkbSAEbAAAAAACwLSEbAGxAxAYAp79xFLABAAAAAAC7ErIBwClEbACw/g2jgA0AAAAAANiXkA0A1hCxAcDqN4oCNgAAAAAAYCxCNgBYQcQGAAI2AAAAAABgHkI2ABggYgOgdwI2AAAAAABgTkI2ADhGxAZAzwRsAAAAAADAEoRsAHAVERsAvRKwAQAAAAAASxKyAcARERsAPRKwAQAAAAAAJRCyAUBEbAD0R8AGAAAAAACURMgGQPdEbAD0RMAGAAAAAACUSMgGQNdEbAD0QsAGAAAAAACUTMgGQLdEbAD0QMAGAAAAAADUQMgGQJdEbAC0TsAGAAAAAADURMgGQHdEbAC0TMAGAAAAAADUSMgGQFdEbAC0SsAGAAAAAADUTMgGQDdEbAC0SMAGAAAAAAC0QMgGQBdEbAC0RsAGAAAAAAC0RMgGQPNEbAC0RMAGAAAAAAC0aFXIJmYDoAkiNgBaIWADAAAAAABatuq6h5ANgOqJ2ABogYANAAAAAADowdm4vSgADRKxAVA7ARsAAAAAANAbIRsATRGxAVAzARsAAAAAANArIRsAzRCxAVArARsAAAAAANA7IRsATRCxAVAjARsAAAAAAMAhIRsA1ROxAVAbARsAAAAAAMBTCdkAqJqIDYCaCNgAAAAAAACGCdkAqJaIDYBaCNgAAAAAAADWE7IBUCURGwA1ELABAAAAAABsRsgGQHVEbACUTsAGAAAAAACwHSEbAFU5sAQAFEzABgAA1OoVSX52YP5vkvznCY73giR3Dcx/8eijZNck+eDA/E1JHvSvEgAA7OxsTl5rOR/XWgAokJ3YACiVgA0AAAAAAGA/dmQDoAoiNgBKJGADAAAAAAAYh5ANgOKJ2AAojYANAAAAAABgXEI2AIomYgOgJAI2AAAAAACAaQjZACjWgSUAoBACNgAAgD5d8v4PAABmczYnr8mc95ocgKXZiQ2AEgjYAAAAAAAA5mFHNgCKI2IDYGkCNgAAAAAAgHkJ2QAoiogNgCUJ2AAAAAAAAJYhZAOgGCI2AJYiYAMAAAAAAFiWkA2AIojYAFiCgA0AAAAAAKAMQjYAFidiA2BuAjYAAAAAAICyCNkAWJSIDYA5CdgAAAA47pqj94vHP15maQAAYFZCNgAWI2IDYC4CNgAAAAAAgLIJ2QBYhIgNgDkI2AAAAAAAAOogZANgdiI2AKYmYAMAAAAAAKiLkA2AWYnYAJiSgA0AAAAAAKBOQjYAZiNiA2AqAjYAAAAAAIC6CdkAmIWIDYApCNgAAAAAAADaIGQDYHIiNgDGJmADAAAAAABoi5ANgEmJ2AAYk4ANAAAAAACgTUI2ACYjYgNgLAI2AAAAAACAtgnZAJiEiA2AMQjYAAAAAAAA+iBkA2B0IjYA9iVgAwAAAAAA6IuQDYBRidgA2IeADQAAAAAAoE9CNgBGI2IDYFcCNgAAgNUurZhPdT5u1fM+4UcBAABMSMgGwChEbADsQsAGAACw3sUV8y+Y6HirnvdxPwoAAGBiQjYA9iZiA2BbAjYAAIDTfW7FfKqI7elbfh8AAABjErIBsBcRGwDbELABAABs5i9WzK+b6HjP3PL7AAAAGJuQDYCdidgA2JSADQAAYHP/b8X8+omOd9OW3wcAAMAUhGwA7ETEBsAmBGwAAADbuZDksYH5syc63nNWzEVsAADA3IRsAGxNxAbAaQRsAAAAu/nkwOx5Ex3rhQOzJ5J8yo8BAABYgJANgK2I2ABYR8AGAACwu/89MLs+yXNHPs4zkrxoYP6JJBf9GAAAgIUI2QDYmIgNgFUEbAAAAPv5nRXzW0Y+zquSfMHA/MN+BAAAwMKEbABsRMQGQDZ88yBgAwAA2M5vJLk8MP8nOdw9bSz/dMX8AT8CAACgAEI2AE4lYgNgkzcNAjYAAIDt/WmS/zUwvz7Jj450jNcnecnA/DNJHvQjAAAACiFkA2AtERsAp71ZELABAADs7pdXzF+b5Iey3/m525P88IrH7kpy0fIDAAAFEbIBsJKIDYB1bxIEbAAAAPt5IMmHVzz2xiT/IcM7qa3zlUl+PMlbklw78PgfJfkVSw8AABRIyAbAoANLAEAEbAAAAFP6iRzuyPaMgcdenMOQ7cNJfv3o108meTTJpSRffPTxFUm+JslLk/z9rP6fUy/lMHC7YNkBAIBCnc3Ja1Pn49oUQNdEbAAI2AAAAKb1ySQ/muSnM7xzWnK4G9tL9jzOpSQ/kuQhSw4AABROyAbAU7idKEDfBGwAAADz+I0kb07y5xM9/58l+b4kv2apAQCASri1KACfJ2ID6JeADQAAYF6/leSbk7xn5Of9zSTfcvQrAABATYRsACQRsQH0SsAGAACwjP+b5PuTfHuS+5J8bsfnuZjkgSTfkcMd3h62tAAAQKWEbADkwBIAdEfABgAAsLyPJPmxJNcm+bokL03yt5M8J8kNSZ6e5K8leTzJY0n+Ismnknzs6Gvfl+RCI2txyftSAADo3tmcvIZ13nsFgH6I2AD6ImADAAAoy8Uk7z/6AAAA6JmQDaBjbicK0A8BGwAAAAAAACVza1GATonYAPogYAMAAAAAAKAGQjaADonYANonYAMAAAAAAKAmQjaAzojYANomYAMAAAAAAKBGQjaAjojYANolYAMAAAAAAKBmQjaAThxYAoAmCdgAAAAY8s4kNxTyvdyc5IIfCQAAcIqzOXnt63xc+wJoip3YANojYAMAAAAAAKAldmQDaJyIDaAtAjYAAAAAAABaJGQDaJiIDaAdAjYAAAAAAABaJmQDaJSIDaANAjYAAAAAAAB6IGQDaNCBJQConoANAACATd1qCQAAgAaczclrZOfjGhlAtezEBlA3ARsAAAAAAAA9siMbQENEbAD1ErABAAAAAADQMyEbQCNEbAB1ErABAAAAAACAkA2gCSI2gPoI2AAAAAAAAOD/E7IBVE7EBlAXARsAAAAAAACcJGQDqJiIDaAeAjYAAAAAAABYTcgGUCkRG0AdBGwAAAAAAABwOiEbQIVEbADlE7ABAAAAAADA5oRsAJURsQGUTcAGAAAAAAAA2xOyAVRExAZQLgEbAAAAAAAA7E7IBlAJERtAmQRsAAAAAAAAsD8hG0AFRGwA5RGwAQAAAAAAwHiEbACFE7EBlEXABgAAAAAAAOMTsgEUTMQGUA4BGwAAAAAAAExHyAZQKBEbQBkEbAAAAAAAADA9IRtAgURsAMsTsAEAAAAAAMB8hGwAhRGxASxLwAYAAAAAAADzE7IBFETEBrAcARsAAAAAAAAsR8gGUAgRG8AyBGwAAAAAAACwPCEbQAFEbADzE7ABAAAAAABAOYRsAAsTsQHMS8AGAAAAAAAA5RGyASxIxAYwHwEbAAAAAAAAlEvIBrAQERvAPARsAAAAAAAAUD4hG8ACRGwA0xOwAQAAAAAAQD2EbAAzE7EBTEvABgAAAAAAAPURsgHMSMQGMB0BGwAAAAAAANRLyAYwExEbwDQEbAAAAAAAAFA/IRvADERsAOMTsAEAAAAAAEA7hGwAExOxAYxLwAYAAAAAAADtEbIBTEjEBjAeARsAAAAAAAC0S8gGMBERG8A4BGwAAAAAAADQPiEbwAREbAD7E7ABAAAAAABAP4RsACMTsQHsR8AGAAAAAAAA/RGyAYxIxAawOwEbAAAAAAAA9EvIBjASERvAbgRsAAAAAAAAgJANYAQiNoDtCdgAAAAAAACAJwnZAPYkYgPYjoANAAAAAAAAOE7IBrAHERvA5gRsAAAAAAAAwCpCNoAdidgANiNgAwAAAAAAAE4jZAPYgYgN4HQCNgAAAAAAAGBTQjaALYnYANYTsAEAAAAAAADbErIBbEHEBrCagA0AAAAAAADYlZANYEMiNoBhAjYAAAAAAABgX0I2gA2I2AA2e9EoYAMAAAAAAAB2IWQDOIWIDeD0F4sCNgAAAAAAAGAfQjaANURsAOtfJArYAAAAAAAAgDEI2QBWELEBrH5xKGADAAAAAAAAxiRkAxggYgMQsAEAAAAAAADzEbIBHCNiA3onYAMAAAAAAADmJmQDuIqIDeiZgA0AAAAAAABYipAN4IiIDeiVgA0AAAAAAABYmpANICI2oE8CNgAAAAAAAKAUQjageyI2oDcCNgAAAAAAAKA0QjagayI2oCcCNgAAAAAAAKBUQjagWyI2oBcCNgAAAAAAAKB0QjagSyI2oAcCNgAAAAAAAKAWQjagOyI2oHUCNgAAAAAAAKA2QjagKyI2oGUCNgAAAAAAAKBWQjagGyI2oFUCNgAAAAAAAKB2QjagCyI2oEUCNgAAAAAAAKAVQjageSI2oDUCNgAAAAAAAKA1QjagaSI2oCUCNgAAAAAAAKBVQjagWSI2oBUCNgAAAAAAAKB1QjagSSI2oAUCNgAAAAAAAKAXQjagOSI2oC2JbWcAACAASURBVHYCNgAAAAAAAKA3QjagKSI2oGYCNgAAAAAAAKBXQjagGSI2oFYCNgAAAAAAAKB3QjagCSI2oEYCNgAAAAAAAIBDQjageiI2oDYCNgAAAAAAAICnErIBVROxATURsAEAAAAAAAAME7IB1RKxAbUQsAEAAAAAAACsJ2QDqiRiA2ogYAMAAAAAAADYjJANqI6IDSidgA0AAAAAAABgO0I2oCoiNqBkAjYAAAAAAACA3QjZgGqI2IBSCdgAAAAAAAAA9iNkA6ogYgNKJGADAAAAAAAAGIeQDSieiA0ojYANAAAAAAAAYFxCNqBoIjagJAI2AAAAAAAAgGkI2YBiidiAUgjYAAAAAAAAAKYlZAOKJGIDSiBgAwAAAAAAAJiHkA0ojogNWJqADQAAAAAAAGBeQjagKCI2YEkCNgAAAAAAAIBlCNmAYojYgKUI2AAAAAAAAACWJWQDiiBiA5YgYAMAAAAAAAAog5ANWJyIDZibgA0AAAAAAACgLEI2YFEiNmBOAjYAAAAAAACAMgnZgMWI2IC5CNgAAAAAAAAAyiZkAxYhYgPmIGADAAAAAAAAqIOQDZidiA2YmoANAAAAAAAAoC5CNmBWIjZgSgI2AAAAAAAAgDoJ2YDZiNiAqQjYAAAAAAAAAOomZANmcWAJgAkI2IAWvSDJXQPzn0vy1hmP94tHH6x3TZIPDszflORBywMAAADAgt6c5NsG5v81yU/O9D18a5LvG5j/WJL7/IhOcL6R3p3NyWvA5+MaMDAiO7EBYxOwAdTr1qM/x5/8uMOSAAAAAMDo7l4x/8Yk1870PbxuYPZoknePeAznG6EtdmQDJiViA8YkYAOo13VJ/oVlAAAAAIDJ/UGSDw3MvzjJq2Y4/ouSPH9g/qtJLo50DOcboU1CNmAyIjZgLAI2gLpfE74lyZdZCgAAAACYxbkV8ztnOPbrVszvHun5nW+EtgnZgEmI2IAxCNgA6vZDSV5hGQAAAABgNvcnuTAwf0WSL5nwuNcmee3A/HeSfGykYzjfCO0TsgGjO7AEwJ4EbAD1OpPDLf3f0OA/2yV/HwEAAABQsL9M8s4k/+jY/CDJrUn+00THfXWSZw7Mx9iFzflG6MvZnLxWfN5/K8Cu7MQG7EPABlCvgyQ/keRbLQUAAAAALGLVLUW/acJjDt1K9C+T3Lfn8zrfCH2yIxswGhEbsCsBG0C9bkzyC5n2ZBgAAAAAsN6Hk3x8YP53kvytCY53U5KXD8xX3dp0U843Qt+EbMAoRGzALgRsAPW6OcnbkvxdSwEAAAAAi1u1G9udExzrzgxfH97nVqLONwKJkA0YgYgN2JaADaBOX5rkLUl+JskNlgMAAAAAivCrSZ4YmN+e5MzIxxq6lejHkzy0w3M53wgcJ2QD9iJiA7YhYAOozzOS/LMk/yWHJ75W/fl+wVIBAAAAwOw+neSBgflXJHnpiMf5e0n+5sB8213YnG8E1hGyATsTsQGbErAB1OcVSd6e5LtzeHJpyK8k+Z4kj1suAAAAAFjEqpBszFuKvn5g9niSe7d4DucbgU0I2YCdHFgCYAMCNoA6vSDJM1c89nCSn0zym43+s1+T5IMD8zcledC/GgAAAAAU5AM5PF9307H5Nyb5qSQX93z+px8913HvTvJnWzyP840nOd8Iw87m5DXm83GNGVjDTmzAaQRsAG15IsldSd6Ydk8oAQAAAEBNLif5bwPzL0ryDSM8/y0Z3jnt7hGe2/lGYBU7sgFbEbEB6wjYANpxJcl9Sf5xkp9J8pglAQAAAIBinMvhObzj7hjhuYduJfpHSX5rj+d0vhHYhJAN2JjbiQKrCNgA2nAxybuS/Mck/8dyAAAAAECRnozKXnZs/g+S3JDkkR2f928keenAfFU0dxrnG4FtubUosBERGzBEwAbQhvcmuSe7n+ACAAAAAOZzLicjtmuS3JbkbTs+5+uSnDk2W3X70tM43wjsSsgGnMrtRIEMvFgYelEBQH1+L04oAQAAAEAt3p3k0YH5rrcUPZPkmwbm70vy8A7P53wjsA+3FgXWshMbcNqLBAEbwHrfffQBAAAAALCPi0nekeSbj81flOS5ST6x5fN9fZJnDczvttTAQuzIBqxkJzbg6hcHQy8iAAAAAAAAmMeqwOzOHZ7r9QOzP83hbUEBlmJHNmCQiA1Y9aJAwAYAAAAAADCvjyb53YH57Tm8Peim/nqS1wzM357kkmUGFiZkA04QsQECNgAAAAAAgHKcG5h9eZKv2+I5bkvyhcdmV1Y8N8AShGzAU4jYoG8CNgAAAAAAgLK8I8nnBubb3FJ06Fai/zPJJy0vUBAhG/B5B5YAuiVgAxjHzyV56wTP+4Ikd1leAAAAAOjOnyf5tRzeQvRqtyT5txkO3K72vCQvHpjfbWmBAp3NyWvX5+PaNXTHTmzQJwEbAAAAAABAuYZu+/mMJN+wwde+bmD2aJL/YVmBQtmRDRCxQYcEbAAAAAAAAGX77SSfGpifdkvRa5LcMTB/R5KLlhUomJANOidig74I2AAAAAAAAMp3Jck9A/OXJ7lxzde9csXjbiUK1EDIBh0TsUE/BGwAAAAAAAD1eHuSy8dmT0ty25qvGbqV6EeSfNRyApUQskGnRGzQBwEbAAAAAABAXR5O8v6B+apbil6f5FUDc7uwAbURskGHRGzQPgEbAAAAAABAnYYCtBcm+aqB+e1JDo7NPpvkPssIVEjIBp0RsUHbBGwAAAAAAAD1em+SRwbmQ7uxDd1K9P4kj1lGoFJCNuiIiA3aJWADAAAAAACo2xNJ7h2Y35rkzFW//+okzx/4PLcSBWonZINOiNigTQI2AAAAAACANpwbmD0rydde9fs7Bj7nE0k+ZPmABgjZoAMiNmiPgA0AAAAAAKAdv5/koYH5bUe/Pi3Jawcetwsb0BIhGzROxAZtEbABAAAAAAC0ZyhIuyWHtxR9SZKbjj32eIZvQwpQMyEbNEzEBu0QsAEAAAAAALTpXUkuHJvdmOTFSV4z8PnvSfIZywY0SMgGjRKxQRsEbAAAAAAAAO26kOT+gfnNSV49MHcrUaBlQjZokIgN6idgAwAAAAAAaN+5gdkbkjzn2OyPkzxouYDGCdmgMSI2qJuADQAAAAAAoA8PJfn4sdl1A593T5LLlgvogJANGiJig3oJ2AAAAAAAAPpyzymPX97gcwBaImSDRojYoE4CNgAAAAAAgP7cm+SJNY9/IMmfWCagM0I2aICIDeojYAMAAAAAAOjTp5M8sObxuy0R0CkhG1ROxAZ1EbABAAAAAAD07dyK+SNZH7gBtE7IBhU7c12uXFnzHzNQDgEbAIDXf17/AQCA19UAAHgNCM39d2snNvCXLAAAAAAAAAC0wo5sUCERG5RPwAYAAAAAAAAAmxOyQWVEbFA2ARsAAAAAAAAAbE/IBhURsUG5BGwAAAAAAAAAsDshG1RCxAZlErABAAAAAAAAwP6EbFABERuUR8AGAAAAAAAAAOMRskHhDiwBFEXABkCN3pnkhkK+l5uTXPAjAQAAAIBqOd8ITOVsTl6TPx/X5KEIdmKDcgjYAAAAAAAAAGA6dmSDQonYoAwCNgAAAAAAAACYnpANCiRig+UJ2AAAAAAAAABgPkI2KIyIDZYlYAMAAAAAAACA+QnZoCAHlgAWI2ADoBW3WgIAAAAAYCTONwJzOpuT1+7Px7V7mJ2d2GAZAjYAAAAAAAAAWJ4d2aAAIjaYn4ANAAAAAAAAAMohZIOFidhgXgI2AAAAAAAAACiPkA0WJGKD+QjYAAAAAAAAAKBcQjZYiIgN5iFgAwAAAAAAAIDyCdlgASI2mJ6ADQAAAAAAAADqIWSDmYnYYFoCNgAAAAAAAACoj5ANZiRig+kI2AAAAAAAAACgXkI2mImIDaYhYAMAAAAAAACA+gnZYAYiNhifgA0AAAAAAAAA2iFkg4mJ2GBcAjYAAAAAAAAAaI+QDSYkYoPxCNgAAAAAAAAAoF1CNpiIiA3GIWADAAAAAAAAgPYJ2WACIjbYn4ANAAAAAAAAAPohZIORidhgPwI2AAAAAAAAAOiPkA1GJGKD3QnYAAAAAAAAAKBfQjYYiYgNdiNgAwAAAAAAAACEbDACERtsT8AGAAAAAAAAADxJyAZ7ErHBdgRsAAAAAAAAAMBxQjbYg4gNNidgAwAAAAAAAABWEbLBjkRssBkBGwAAAAAAAABwGiEb7EDEBqcTsAEAAAAAAAAAmxKywZZEbLCegA0AAAAAAAAA2JaQDbYgYoPVBGwAAAAAAAAAwK6EbLAhERsME7ABAAAAAAAAAPsSssEGRGyw2V8WAjYAAAAAAAAAYBdCNjiFiA1O/0tCwAYAAAAAAAAA7EPIBmuI2GD9Xw4CNgAAAAAAAABgDEI2WEHEBqv/UhCwAQAAAAAAAABjErLBABEbCNgAAAAAAAAAgPkI2eAYERu9E7ABAAAAAAAAAHMTssFVRGz0TMAGAAAAAAAAACxFyAZHRGz0SsAGAAAAAAAAACxNyAYRsdEnARsAAAAAAAAAUAohG90TsdEbARsAAAAAAAAAUBohG10TsdETARsAAAAAAAAAUCohG90SsdELARsAAAAAAAAAUDohG10SsdEDARsAAAAAAAAAUAshG90RsdE6ARsAAAAAAAAAUBshG10RsdEyARsAAAAAAAAAUCshG934K/buJdmRYomiqOoafSbz5j8CJsMIigbwqAJ98hOZx8NjraZSkQ23MO9om0nERlcCNgAAAAAAAABgdkI2liBioyMBGwAAAAAAAADQhZCN9kRsdCNgAwAAAAAAAAC6EbLRmoiNTgRsAAAAAAAAAEBXQjbaErHRhYANAAAAAAAAAOhOyEZLIjY6ELABAAAAAAAAAKsQstGOiI3ZCdgAAAAAAAAAgNUI2WhFxMbMBGwAAAAAAAAAwKqEbLQhYmNWAjYAAAAAAAAAYHVCNloQsTEjARsAAAAAAAAAwJ+EbExPxMZsBGwAAAAAAAAAAD8TsjE1ERszEbABAAAAAAAAADwnZGNaIjZmIWADAAAAAAAAAHhPyMaURGzMQMAGAAAAAAAAALCNkI3piNioTsAGAAAAAAAAALCPkI2piNioTMAGAAAAAAAAAHCMkI1piNioSsAGAAAAAAAAAHCOkI0piNioSMAGAAAAAAAAADCGkI3yRGxUI2ADAAAAAAAAABhLyEZpIjYqEbABAAAAAAAAAFxDyEZZIjaqELABAAAAAAAAAFxLyEZJIjYqELABAAAAAAAAANxDyEY5IjbSBGwAAAAAAAAAAPcSslGKiI0kARsAAAAAAAAAQIaQjTJEbKQI2AAAAAAAAAAAsoRslCBiI0HABgAAAAAAAABQg5CNOBEbdxOwAQAAAAAAAADUImQjSsTGnQRsAAAAAAAAAAA1CdmIEbFxFwEbAAAAAAAAAEBtQjYiRGzcQcAGAAAAAAAAADAHIRu3E7FxNQEbAAAAAAAAAMBchGzcSsTGlQRsAAAAAAAAAABzErJxGxEbVxGwAQAAAAAAAADMTcjGLURsXEHABgAAAAAAAADQg5CNy4nYGE3ABgAAAAAAAADQi5CNS4nYGEnABgAAAAAAAADQk5CNy4jYGEXABgAAAAAAAADQm5CNS4jYGEHABgAAAAAAAACwBiEbw4nYOEvABgAAAAAAAACwFiEbQ4nYOEPABgAAAAAAAACwJiEbw4jYOErABgAAAAAAAACwNiEbQ4jYOELABgAAAAAAAADA4yFkYwARG3sJ2AAAAAAAAAAA+JGQjVNEbOwhYAMAAAAAAAAA4BkhG4eJ2NhKwAYAAAAAAAAAwDtCNg4RsbGFgA0AAAAAAAAAgC2EbOwmYuMTARsAAAAAAAAAAHsI2dhFxMY7AjYAAAAAAAAAAI4QsrGZiI1XBGwAAAAAAAAAAJwhZGMTERuPjctCwAYAAAAAAAAAwF5CNj4SsbFlSQjYAAAAAAAAAAA4SsjGWyI2Pi0HARsAAAAAAAAAAGcJ2XhJxMa7pSBgAwAAAAAAAABgFCEbT4nYeLUMBGwAAAAAAAAAAIwmZOM/RGwI2AAAAAAAAAAAuJOQjZ+I2NYmYAMAAAAAAAAAIEHIxv+J2NYlYAMAAAAAAAAAIEnIxuPxELGtSsAGAAAAAAAAAEAFQjZEbAsSsAEAAAAAAAAAUImQbXEitrUI2AAAAAAAAAAAqEjItjAR2zoEbAAAAAAAAAAAVCZkW5SIbQ0CNgAAAAAAAAAAZiBkW5CIrT8BGwAAAAAAAAAAMxGyLUbE1puADQAAAAAAAACAGQnZFiJi60vABgAAAAAAAADAzIRsixCx9SRgAwAAAAAAAACgAyHbAkRs/QjYAAAAAAAAAADoRMjWnIitFwEbAAAAAAAAAAAdCdkaE7H1IWADAAAAAAAAAKAzIVtTIrYeBGwAAAAAAAAAAKxAyNaQiG1+AjYAAAAAAAAAAFYiZGtGxDY3ARsAAAAAAAAAACsSsjUiYpuXgA0AAAAAAAAAgJUJ2ZoQsc1JwAYAAAAAAAAAAEK2FkRs8xGwAQAAAAAAAADAP4RskxOxzUXABgAAAAAAAAAA/yVkm5iIbR4CNgAAAAAAAAAAeE3INikR2xwEbAAAAAAAAAAA8JmQbUIitvoEbAAAAAAAAAAAsJ2QbTIittoEbAAAAAAAAAAAsJ+QbSIitroEbAAAAAAAAAAAcJyQbRIitpoEbAAAAAAAAAAAcJ6QbQIitnoEbAAAAAAAAAAAMI6QrTgRWy0CNgAAAAAAAAAAGE/IVpiIrQ4BGwAAAAAAAAAAXEfIVpSIrQYBGwAAAAAAAAAAXE/IVpCILU/ABgAAAAAAAAAA9xGyFSNiyxKwAQAAAAAAAADA/YRshYjYcgRsAAAAAAAAAACQI2QrQsSWIWADAAAAAAAAAIA8IVsBIrb7CdgAAAAAAAAAAKAOIVuYiO1eAjYAAAAAAAAAAKhHyBYkYruPgA0AAAAAAAAAAOoSsoWI2O4hYAMAAAAAAAAAgPqEbAEitusJ2AAAAAAAAAAAYB5CtpuJ2K4lYAMAAAAAAAAAgPkI2W4kYruOgA0AAAAAAAAAAOYlZLuJiO0aAjYAAAAAAAAAAJifkO0GIrbxBGwAAAAAAAAAANCHkO1iIraxBGwAAAAAAAAAANCPkO1CIrZxBGwAAAAAAAAAANCXkO0iIrYxBGwAAAAAAAAAANCfkO0CIrbzBGwAAAAAAAAAALAOIdtgIrZzBGwAAAAAAAAAALAeIdtAIrbjBGwAAAAAAAAAALAuIdsgIrZjBGwAAAAAAAAAAICQbQAR234CNgAAAAAAAAAA4G9CtpNEbPsI2AAAAAAAAAAAgH8Tsp0gYttOwAYAAAAAAAAAALwiZDtIxLaNgA0AAAAAAAAAAPhEyHaAiO0zARsAAAAAAAAAALCVkG0nEdt7AjYAAAAAAAAAAGAvIdsOIrbXBGwAAAAAAAAAAMBRQraNRGzPCdgAAAAAAAAAAICzhGwbiNi2XRIBGwAAAAAAAAAAcISQ7QMR2+fLIWADAAAAAAAAAADOELK9IWJ7fykEbAAAAAAAAAAAwAhCthdEbK8vg4ANAAAAAAAAAAAYScj2hIhNwAYAAAAAAAAAANxHyPYvq0dsAjYAAAAAAAAAAOBuQrYfrByxCdgAAAAAAAAAAIAUIdtfVo3YBGwAAAAAAAAAAECakO2xZsQmYAMAAAAAAAAAAKpYPmRbLWITsAEAAAAAAAAAANUsHbKtFLEJ2AAAAAAAAAAAgKqWDdlWidgEbAAAAAAAAAAAQHVLhmwrRGwCNgAAAAAAAAAAYBbLhWzdIzYBGwAAAAAAAAAAMJulQrbOEZuADQAAAAAAAAAAmNUyIVvXiE3ABgAAAAAAAAAAzG6JkK1jxCZgAwAAAAAAAAAAumgfsnWL2ARsAAAAAAAAAABAN61Dtk4Rm4ANAAAAAAAAAADoqm3I1iViE7ABAAAAAAAAAADdtQzZOkRsAjYAAAAAAAAAAGAV7UK22SM2ARsAAAAAAAAAALCaViHbzBGbgA0AAAAAAAAAAFhVm5Bt1ohNwAYAAAAAAAAAAKyuRcg2Y8QmYAMAAAAAAAAAAPjT9CHbbBGbgA0AAAAAAAAAAOBnU4dsM0VsAjYAAAAAAAAAAIDnpg3ZZonYBGwAAAAAAAAAAADvTRmyzRCxCdgAAAAAAAAAAAC2mS5kqx6xCdgAAAAAAAAAAAD2mSpkqxyxCdgAAAAAAAAAAACOmSZkqxqxCdgAAAAAAAAAAADOmSJkqxixCdgAAAAAAAAAAADGKB+yVYvYBGwAAAAAAAAAAABjlQ7ZKkVsAjYAAAAAAAAAAIBrlA3ZqkRsAjYAAAAAAAAAAIBrlQzZKkRsAjYAAAAAAAAAAIB7lAvZ0hGbgA0AAAAAAAAAAOBepUK2ZMQmYAMAAAAAAAAAAMgoE7KlIjYBGwAAAAAAAAAAQFaJkC0RsQnYAAAAAAAAAAAAaoiHbHdHbAI2AAAAAAAAAACAWqIh250Rm4ANAAAAAAAAAACgpljIdlfEJmADAAAAAAAAAACoLRKy3RGxCdgAAAAAAAAAAADmcHvIdnXEJmADAAAAAAAAAACYy60h25URm4ANAAAAAAAAAABgTreFbFdFbAI2AAAAAAAAAACAud0Ssl0RsQnYAAAAAAAAAAAAerg8ZBsdsQnYAAAAAAAAAAAAerk0ZBsZsQnYAAAAAAAAAAAAerosZBsVsQnYAAAAAAAAAAAAerskZBsRsQnYAAAAAAAAAAAA1jA8ZDsbsQnYAAAAAAAAAAAA1jI0ZDsTsQnYAAAAAAAAAAAA1jQsZDsasQnYAAAAAAAAAAAA1jYkZDsSsQnYAAAAAAAAAAAAeDwGhGx7IzYBGwAAAAAAAAAAAD86FbLtidgEbAAAAAAAAAAAADxzOGTbGrEJ2AAAAAAAAAAAAHjnUMi2JWITsAEAAAAAAAAAALDF7pDtU8QmYAMAAAAAAAAAAGCPXSHbu4hNwAYAAAAAAAAAAMARm0O2VxGbgA0AAAAAAAAAAIAzNoVsX1u+9BCwAQAAAAAAAAAAsN/HkO3r3cM3LwEAAAAAAAAAAIAt3oZsX88+/HAYAAAAAAAAAAAA9ngZsn3tPAQAAAAAAAAAAABHPG3Svv36+P7dbAAAAAAAAAAAAEj4MgIAAAAAAAAAAABSRGwAAAAAAAAAAADEiNgAAAAAAAAAAACI+WYEAAAA9fz6+P7dFAAAYLzfH9/8NgIAAFDML0YAAAAwhf8ZAQAAHPKbEQAAANTm70QBAAAAAAAAAACIEbEBAAAAAAAAAAAQI2IDAAAAAAAAAAAgRsQGAAAAAAAAAABAjIgNAAAAAAAAAACAGBEbAAAAAAAAAAAAMSI2AAAAAAAAAAAAYkRsAAAAAAAAAAAAxIjYAAAAAAAAAAAAiBGxAQAAAAAAAAAAECNiAwAAAAAAAAAAIEbEBgAAAAAAAAAAQIyIDQAAAAAAAAAAgBgRGwAAAAAAAAAAADEiNgAAAAAAAAAAAGJEbAAAAAAAAAAAAMSI2AAAAAAAAAAAAIgRsQEAAAAAAAAAABAjYgMAAAAAAAAAACBGxAYAAAAAAAAAAECMiA0AAAAAAAAAAIAYERsAAAAAAAAAAAAxIjYAAAAAAAAAAABiRGwAAAAAAAAAAADEiNgAAAAAAAAAAACIEbEBAAAAAAAAAAAQI2IDAAAAAAAAAAAgRsQGAAAAAAAAAABAjIgNAAAAAAAAAACAGBEbAAAAAAAAAAAAMSI2AAAAAAAAAAAAYkRsAAAAAAAAAAAAxIjYAAAAAAAAAAAAiBGxAQAAAAAAAAAAECNiAwAAAAAAAAAAIEbEBgAAAAAAAAAAQIyIDQAAAAAAAAAAgBgRGwAAAAAAAAAAADEiNgAAAAAAAAAAAGJEbAAAAAAAAAAAAMSI2AAAAAAAAAAAAIgRsQEAAAAAAAAAABAjYgMAAAAAAAAAACBGxAYAAAAAAAAAAECMiA0AAAAAAAAAAIAYERsAAAAAAAAAAAAxIjYAAAAAAAAAAABiRGwAAAAAAAAAAADEiNgAAAAAAAAAAACIEbEBAAAAAAAAAAAQI2IDAAAAAAAAAAAgRsQGAAAAAAAAAABAjIgNAAAAAAAAAACAGBEbAAAAAAAAAAAAMSI2AAAAAAAAAAAAYkRsAAAAAAAAAAAAxIjYAAAAAAAAAAAAiBGxAQAAAAAAAAAAECNiAwAAAAAAAAAAIEbEBgAAAAAAAAAAQIyIDQAAAAAAAAAAgBgRGwAAAAAAAAAAADEiNgAAAAAAAAAAAGJEbAAAAAAAAAAAAMSI2AAAAAAAAAAAAIgRsQEAAAAAAAAAABAjYgMAAAAAAAAAACBGxAYAAAAAAAAAAECMiA0AAAAAAAAAAIAYERsAAAAAAAAAAAAxIjYAAAAAAAAAAABiRGwAAAAAAAAAAADEiNgAAAAAAAAAAACIEbEBAAAAAAAAAAAQI2IDAAAAAAAAAAAgRsQGAAAAAAAAAABAjIgNAAAAAAAAAACAGBEbAAAAAAAAAAAAMSI2AAAAAAAAAAAAYkRsAAAAAAAAAAAAxIjYAAAAAAAAAAAAiBGxAQAAAAAAAAAAECNiAwAAAAAAAAAAIEbEBgAAAAAAAAAAQIyIDQAAAAAAAAAAgBgRGwAAAAAAAAAAADEiNgAAAAAAAAAAAGJEbAAAAAAAAAAAAMSI2AAAAAAAAAAAAIgRsQEAAAAAAAAAABAjYgMAAAAAAAAAACBGxAYAAAAAAAAAAECMiA0AAAAAAAAAAIAYERsAAAAAAAAAAAAxIjYAAAAAAAAAAABiRGwAAAAAAAAAAADEiNgAAAAAAAAAAACIEbEBAAAAAAAAAAAQI2IDAAAAAAAAAAAgRsQGAAAAAAAAAABAjIgNAAAAAAAAAACAGBEbAAAAAAAAAAAAMSI2AAAAAAAAAAAAYkRsAAAAAAAAAAAAxIjYCCNfwAAAIABJREFUAAAAAAAAAAAAiBGxAQAAAAAAAAAAECNiAwAAAAAAAAAAIEbEBgAAAAAAAAAAQIyIDQAAAAAAAAAAgBgRGwAAAAAAAAAAADEiNgAAAAAAAAAAAGJEbAAAAAAAAAAAAMSI2AAAAAAAAAAAAIgRsQEAAAAAAAAAABAjYgMAAAAAAAAAACBGxAYAAAAAAAAAAECMiA0AAAAAAAAAAIAYERsAAAAAAAAAAAAxIjYAAAAAAAAAAABiRGwAAAAAAAAAAADEiNgAAAAAAAAAAACIEbEBAAAAAAAAAAAQI2IDAAAAAAAAAAAgRsQGAAAAAAAAAABAjIgNAAAAAAAAAACAGBEbAAAAAAAAAAAAMSI2AAAAAAAAAAAAYkRsAAAAAAAAAAAAxIjYAAAAAAAAAAAAiBGxAQAAAAAAAAAAECNiAwAAAAAAAAAAIEbEBgAAAAAAAAAAQIyIDQAAAAAAAAAAgBgRGwAAAAAAAAAAADEiNgAAAAAAAAAAAGJEbAAAAAAAAAAAAMSI2AAAAAAAAAAAAIgRsQEAAAAAAAAAABAjYgMAAAAAAAAAACBGxAYAAAAAAAAAAECMiA0AAAAAAAAAAIAYERsAAAAAAAAAAAAxIjYAAAAAAAAAAABiRGwAAAAAAAAAAADEiNgAAAAAAAAAAACIEbEBAAAAAAAAAAAQI2IDAAAAAAAAAAAgRsQGAAAAAAAAAABAjIgNAAAAAAAAAACAGBEbAAAAAAAAAAAAMSI2AAAAAAAAAAAAYkRsAAAAAAAAAAAAxIjYAAAAAAAAAAAAiBGxAQAAAAAAAAAAECNiAwAAAAAAAAAAIEbEBgAAAAAAAAAAQIyIDQAAAAAAAAAAgBgRGwAAAAAAAAAAADEiNgAAAAAAAAAAAGJEbAAAAAAAAAAAAMSI2AAAAAAAAAAAAIgRsQEAAAAAAAAAABAjYgMAAAAAAAAAACBGxAYAAAAAAAAAAECMiA0AAAAAAAAAAIAYERsAAAAAAAAAAAAxIjYAAAAAAAAAAABiRGwAAAAAAAAAAADEiNgAAAAAAAAAAACIEbEBAAAAAAAAAAAQI2IDAAAAAAAAAAAgRsQGAAAAAAAAAABAjIgNAAAAAAAAAACAGBEbAAAAAAAAAAAAMSI2AAAAAAAAAAAAYkRsAAAAAAAAAAAAxIjYAAAAAAAAAAAAiBGxAQAAAAAAAAAAECNiAwAAAAAAAAAAIEbEBgAAAAAAAAAAQIyIDQAAAAAAAAAAgBgRGwAAAAAAAAAAADEiNgAAAAAAAAAAAGJEbAAAAAAAAAAAAMSI2AAAAAAAAAAAAIgRsQEAAAAAAAAAABAjYgMAAAAAAAAAACBGxAYAAAAAAAAAAECMiA0AAAAAAAAAAIAYERsAAAAAAAAAAAAxIjYAAAAAAAAAAABiRGwAAAAAAAAAAADEiNgAAAAAAAAAAACIEbEBAAAAAAAAAAAQI2IDAAAAAAAAAAAgRsQGAAAAAAAAAABAjIgNAAAAAAAAAACAGBEbAAAAAAAAAAAAMSI2AAAAAAAAAAAAYkRsAAAAAAAAAAAAxIjYAAAAAAAAAAAAiBGxAQAAAAAAAAAAECNiAwAAAAAAAAAAIEbEBgAAAAAAAAAAQIyIDQAAAAAAAAAAgBgRGwAAAAAAAAAAADEiNgAAAAAAAAAAAGJEbAAAAAAAAAAAAMSI2AAAAAAAAAAAAIgRsQEAAAAAAAAAABAjYgMAAAAAAAAAACBGxAYAAAAAAAAAAECMiA0AAAAAAAAAAIAYERsAAAAAAAAAAAAxIjYAAAAAAAAAAABiRGwAAAAAAAAAAADEiNgAAAAAAAAAAACIEbEBAAAAAAAAAAAQI2IDAAAAAAAAAAAgRsQGAAAAAAAAAABAjIgNAAAAAAAAAACAGBEbAAAAAAAAAAAAMSI2AAAAAAAAAAAAYkRsAAAAAAAAAAAAxIjYAAAAAAAAAAAAiBGxAQAAAAAAAAAAECNiAwAAAAAAAPiDnTs2aSiAwjB6g68XnMXaSmxdwio7uJi4gGLhKNrYSawEkYAixi/Bc7q8IoQ/6fJxAQDIiNgAAAAAAAAAAADIiNgAAAAAAAAAAADIiNgAAAAAAAAAAADIiNgAAAAAAAAAAADIiNgAAAAAAAAAAADIiNgAAAAAAAAAAADIiNgAAAAAAAAAAADIiNgAAAAAAAAAAADIiNgAAAAAAAAAAADIiNgAAAAAAAAAAADIiNgAAAAAAAAAAADIiNgAAAAAAAAAAADIiNgAAAAAAAAAAADIiNgAAAAAAAAAAADIiNgAAAAAAAAAAADIiNgAAAAAAAAAAADIiNgAAAAAAAAAAADIiNgAAAAAAAAAAADIiNgAAAAAAAAAAADIiNgAAAAAAAAAAADIiNgAAAAAAAAAAADIiNgAAAAAAAAAAADIiNgAAAAAAAAAAADIiNgAAAAAAAAAAADIiNgAAAAAAAAAAADIiNgAAAAAAAAAAADIiNgAAAAAAAAAAADIiNgAAAAAAAAAAADIiNgAAAAAAAAAAADIiNgAAAAAAAAAAADIiNgAAAAAAAAAAADIiNgAAAAAAAAAAADIiNgAAAAAAAAAAADIiNgAAAAAAAAAAADIiNgAAAAAAAAAAADIiNgAAAAAAAAAAADIiNgAAAAAAAAAAADIiNgAAAAAAAAAAADIiNgAAAAAAAAAAADIiNgAAAAAAAAAAADIiNgAAAAAAAAAAADIiNgAAAAAAAAAAADIiNgAAAAAAAAAAADIiNgAAAAAAAAAAADIiNgAAAAAAAAAAADIiNgAAAAAAAAAAADIiNgAAAAAAAAAAADIiNgAAAAAAAAAAADIiNgAAAAAAAAAAADIiNgAAAAAAAAAAADIiNgAAAAAAAAAAADIiNgAAAAAAAAAAADIiNgAAAAAAAAAAADIiNgAAAAAAAAAAADIiNgAAAAAAAAAAADIiNgAAAAAAAAAAADIiNgAAAAAAAAAAADIiNgAAAAAAAAAAADIiNgAAAAAAAAAAADIiNgAAAAAAAAAAADIiNgAAAAAAAAAAADIiNgAAAAAAAAAAADIiNgAAAAAAAAAAADIiNgAAAAAAAAAAADIiNgAAAAAAAAAAADIiNgAAAAAAAAAAADIiNgAAAAAAAAAAADIiNgAAAAAAAAAAADIiNgAAAAAAAAAAADIiNgAAAAAAAAAAADIiNgAAAAAAAAAAADIiNgAAAAAAAAAAADIiNgAAAAAAAAAAADIiNgAAAAAAAAAAADIiNgAAAAAAAAAAADIiNgAAAAAAAAAAADIiNgAAAAAAAAAAADIiNgAAAAAAAAAAADIiNgAAAAAAAAAAADIiNgAAAAAAAAAAADIiNgAAAAAAAAAAADIiNgAAAAAAAAAAADIiNgAAAAAAAAAAADIiNgAAAAAAAAAAADIiNgAAAAAAAAAAADIiNgAAAAAAAAAAADIiNgAAAAAAAAAAADIiNgAAAAAAAAAAADIiNgAAAAAAAAAAADIiNgAAAAAAAAAAADIiNgAAAAAAAAAAADIiNgAAAAAAAAAAADIiNgAAAAAAAAAAADIiNgAAAAAAAAAAADIiNgAAAAAAAAAAADIiNgAAAAAAAAAAADIiNgAAAAAAAAAAADIiNgAAAAAAAAAAADIiNgAAAAAAAAAAADIiNgAAAAAAAAAAADIiNgAAAAAAAAAAADIiNgAAAAAAAAAAADIiNgAAAAAAAAAAADIiNgAAAAAAAAAAADIiNgAAAAAAAAAAADIiNgAAAAAAAAAAADIiNgAAAAAAAAAAADIiNgAAAAAAAAAAADIiNgAAAAAAAAAAADIiNgAAAAAAAAAAADIiNgAAAAAAAAAAADIiNgAAAAAAAAAAADIiNgAAAAAAAAAAADIiNgAAAAAAAAAAADIiNgAAAAAAAAAAADIiNgAAAAAAAAAAADIiNgAAAAAAAAAAADIiNgAAAAAAAAAAADIiNgAAAAAAAAAAADIiNgAAAAAAAAAAADIiNgAAAAAAAAAAADIiNgAAAAAAAAAAADIiNgAAAAAAAAAAADIiNgAAAAAAAAAAADIiNgAAAAAAAAAAADIiNgAAAAAAAAAAADIiNgAAAAAAAAAAADIiNgAAAAAAAAAAADIiNgAAAAAAAAAAADIiNgAAAAAAAAAAADIiNgAAAAAAAAAAADIiNgAAAAAAAAAAADIiNgAAAAAAAAAAADIiNgAAAAAAAAAAADIiNgAAAAAAAAAAADIiNgAAAAAAAAAAADIiNgAAAAAAAAAAADIiNgAAAAAAAAAAADIiNgAAAAAAAAAAADIiNgAAAAAAAAAAADIiNgAAAAAAAAAAADIiNgAAAAAAAAAAADIiNgAAAAAAAAAAADIiNgAAAAAAAAAAADIiNgAAAAAAAAAAADIiNgAAAAAAAAAAADIiNgAAAAAAAAAAADIiNgAAAAAAAAAAADIiNgAAAAAAAAAAADIiNgAAAAAAAAAAADIiNgAAAAAAAAAAADIiNgAAAAAAAAAAADIiNgAAAAAAAAAAADIiNgAAAAAAAAAAADIiNgAAAAAAAAAAADIiNgAAAAAAAAAAADIiNgAAAAAAAAAAADIiNgAAAAAAAAAAADIiNgAAAAAAAAAAADIiNgAAAAAAAAAAADIiNgAAAAAAAAAAADIiNgAAAAAAAAAAADIiNgAAAAAAAAAAADIiNgAAAAAAAAAAADIiNgAAAAAAAAAAADIiNgAAAAAAAAAAADIiNgAAAAAAAAAAADIiNgAAAAAAAAAAADIiNgAAAAAAAAAAADIiNgAAAAAAAAAAADIiNgAAAAAAAAAAADIiNgAAAAAAAAAAADIiNgAAAAAAAAAAADIiNgAAAAAAAAAAADIiNgAAAAAAAAAAADIiNgAAAAAAAAAAADIiNgAAAAAAAAAAADIiNgAAAAAAAAAAADIiNgAAAAAAAAAAADIiNgAAAAAAAAAAADIiNgAAAAAAAAAAADIiNgAAAAAAAAAAADIiNgAAAAAAAAAAADIiNgAAAAAAAAAAADIiNgAAAAAAAAAAADIiNgAAAAAAAAAAADIiNgAAAAAAAAAAADIiNgAAAAAAAAAAADIiNgAAAAAAAAAAADIiNgAAAAAAAAAAADIiNgAAAAAAAAAAADIiNgAAAAAAAAAAADIiNgAAAAAAAAAAADIiNgAAAAAAAAAAADIiNgAAAAAAAAAAADIiNgAAAAAAAAAAADIiNgAAAAAAAAAAADIiNgAAAAAAAAAAADIiNgAAAAAAAAAAADIiNgAAAAAAAAAAADIiNgAAAAAAAAAAADIiNgAAAAAAAAAAADIiNgAAAAAAAAAAADIiNgAAAAAAAAAAADIiNgAAAAAAAAAAADIiNgAAAAAAAAAAADIiNgAAAAAAAAAAADIiNgAAAAAAAAAAADIiNgAAAAAAAAAAADIiNgAAAAAAAAAAADIiNgAAAAAAAAAAADIiNgAAAAAAAAAAADIiNgAAAAAAAAAAADIiNgAAAAAAAAAAADIiNgAAAAAAAAAAADIiNgAAAAAAAAAAADIiNgAAAAAAAAAAADIiNgAAAAAAAAAAADIiNgAAAAAAAAAAADILCYAAAAAgF93PTOXW56fz8zTP9ngaGbutjxfz8y9nwgAAAAA71xiAwAAAAAAAAAAICNiAwAAAAAAAAAAICNiAwAAAAAAAAAAICNiAwAAAAAAAAAAILOYAAAAAADYgdeZOTUDAAAAAF9xiQ0AAAAAAAAAAICMiA0AAAAAAAAAAICMiA0AAAAAAAAAAICMiA0AAAAAAAAAAICMiA0AAAAAAAAAAICMiA0AAAAAAAAAAIDMYgIAAAAAYAeOZuZuy/P1zNybBwAAAIB3LrEBAAAAAAAAAACQEbEBAAAAAAAAAACQEbEBAAAAAAAAAACQEbEBAAAAAAAAAACQEbEBAAAAAAAAAACQEbEBAAAAAAAAAACQEbEBAAAAAAAAAACQEbEBAAAAAAAAAACQEbEBAAAAAAAAAACQEbEBAAAAAAAAAACQEbEBAAAAAAAAAACQEbEBAAAAAAAAAACQEbEBAAAAAAAAAACQEbEBAAAAAAAAAACQEbEBAAAAAAAAAACQEbEBAAAAAAAAAACQEbEBAAAAAAAAAACQEbEBAAAAAAAAAACQEbEBAAAAAAAAAACQEbEBAAAAAAAAAACQEbEBAAAAAAAAAACQEbEBAAAAAAAAAACQEbEBAAAAAAAAAACQEbEBAAAAAAAAAACQEbEBAAAAAAAAAACQWUwAAAAAAH/mdgfveTUzj6YFAAAA4FC5xAYAAAAAAAAAAEBGxAYAAAAAAAAAAEBGxAYAAAAAAAAAAEBGxAYAAAAAAAAAAEBmZQIAAID9czybzadHp1YBAIAfefj44nlW/hsBAADYMy6xAQAAAAAAAAAAkBGxAQAAAAAAAAAAkBGxAQAAAAAAAAAAkBGxAQAAAAAAAAAAkBGxAQAAAAAAAAAAkBGxAQAAAAAAAAAAkFlMAAAAAAAH72ZmTvbks5zNzIuvBAAAAIDvcokNAAAAAAAAAACAjIgNAAAAAAAAAACAjIgNAAAAAAAAAACAjIgNAAAAAAAAAACAzGICAAAAADh4FyYAAAAA4FC5xAYAAAAAAAAAAEBGxAYAAAAAAAAAAEBGxAYAAAAAAAAAAEBGxAYAAAAAAAAAAEBGxAYAAAAAAAAAAEBGxAYAAAAAAAAAAEBGxAYAAAAAAAAAAEBGxAYAAAAAAAAAAEBGxAYAAAAAAAAAAEBGxAYAAAAAAAAAAEBGxAYAAAAAAAAAAEBGxAYAAAAAAAAAAEBGxAYAAAAAAAAAAEBGxAYAAAAAAAAAAEBGxAYAAAAAAAAAAEBGxAYAAAAAAAAAAEBGxAYAAAAAAAAAAEBGxAYAAAAAAAAAAEBGxAYAAAAAAAAAAEBGxAYAAAAAAAAAAEBGxAYAAAAAAAAAAEBGxAYAAAAAAAAAAEBGxAYAAAAAAAAAAEBGxAYAAAAAAAAAAEBGxAYAAAAAAAAAAEBGxAYAAAAAAAAAAEBGxAYAAAAAAAAAAEBGxAYAAAAAAAAAAEBGxAYAAAAAAAAAAEBGxAYAAAAAAAAAAEBGxAYAAAAAAAAAAEBGxAYAAAAAAAAAAEBGxAYAAAAAAAAAAEBGxAYAAAAAAAAAAEBGxAYAAAAAAAAAAEBGxAYAAAAAAAAAAEBGxAYAAAAAAAAAAEBGxAYAAAAAAAAAAEBGxAYAAAAAAAAAAEBGxAYAAAAAAAAAAEBGxAYAAAAAAAAAAEBGxAYAAAAAAAAAAEBGxAYAAAAAAAAAAEBGxAYAAAAAAAAAAEBGxAYAAAAAAAAAAEBGxAYAAAAAAAAAAEBGxAYAAAAAAAAAAEBGxAYAAAAAAAAAAEBGxAYAAAAAAAAAAEBGxAYAAAAAAAAAAEBGxAYAAAAAAAAAAEBGxAYAAAAAAAAAAEBGxAYAAAAAAAAAAEBGxAYAAAAAAAAAAEBGxAYAAAAAAAAAAEBGxAYAAAAAAAAAAEBGxAYAAAAAAAAAAEBGxAYAAAAAAAAAAEBGxAYAAAAAAAAAAEBGxAYAAAAAAAAAAEBGxAYAAAAAAAAAAEBGxAYAAAAAAAAAAEBGxAYAAAAAAAAAAEBGxAYAAAAAAAAAAEBGxAYAAAAAAAAAAEBGxAYAAAAAAAAAAEBGxAYAAAAAAAAAAEBGxAYAAAAAAAAAAEBGxAYAAAAAAAAAAEBGxAYAAAAAAAAAAEBGxAYAAAAAAAAAAEBGxAYAAAAAAAAAAEBGxAYAAAAAAAAAAEBGxAYAAAAAAAAAAEBGxAYAAAAAAAAAAEBGxAYAAAAAAAAAAEBGxAYAAAAAAAAAAEBGxAYAAAAAAAAAAEBGxAYAAAAAAAAAAEBGxAYAAAAAAAAAAEBGxAYAAAAAAAAAAEBGxAYAAAAAAAAAAEBGxAYAAAAAAAAAAEBGxAYAAAAAAAAAAEBGxAYAAAAAAAAAAEBGxAYAAAAAAAAAAEBGxAYAAAAAAAAAAEBGxAYAAAAAAAAAAEBGxAYAAAAAAAAAAEBGxAYAAAAAAAAAAEBGxAYAAAAAAAAAAEBGxAYAAAAAAAAAAEBGxAYAAAAAAAAAAEBGxAYAAAAAAAAAAEBGxAYAAAAAAAAAAEBGxAYAAAAAAAAAAEBGxAYAAAAAAAAAAEBGxAYAAAAAAAAAAEBGxAYAAAAAAAAAAEBGxAYAAAAAAAAAAEBGxAYAAAAAAAAAAEBGxAYAAAAAAAAAAEBGxAYAAAAAAAAAAEBGxAYAAAAAAAAAAEBGxAYAAAAAAAAAAEBGxAYAAAAAAAAAAEBGxAYAAAAAAAAAAEBGxAYAAAAAAAAAAEBGxAYAAAAAAAAAAEBGxAYAAAAAAAAAAEBGxAYAAAAAAAAAAEBGxAYAAAAAAAAAAEBGxAYAAAAAAAAAAEBGxAYAAAAAAAAAAEBGxAYAAAAAAAAAAEBGxAYAAAAAAAAAAEBGxAYAAAAAAAAAAEBGxAYAAAAAAAAAAEBGxAYAAAAAAAAAAEBGxAYAAAAAAAAAAEBGxAYAAAAAAAAAAEBGxAYAAAAAAAAAAEBGxAYAAAAAAAAAAEBGxAYAAAAAAAAAAEBGxAYAAAAAAAAAAEBGxAYAAAAAAAAAAEBGxAYAAAAAAAAAAEBGxAYAAAAAAAAAAEBGxAYAAAAAAAAAAEBGxAYAAAAAAAAAAEBGxAYAAAAAAAAAAEBGxAYAAAAAAAAAAEBGxAYAAAAAAAAAAEBGxAYAAAAAAAAAAEBGxAYAAAAAAAAAAEBGxAYAAAAAAAAAAEBGxAYAAAAAAAAAAEBGxAYAAAAAAAAAAEBGxAYAAAAAAAAAAEBGxAYAAAAAAAAAAEBGxAYAAAAAAAAAAEBGxAYAAAAAAAAAAEBGxAYAAAAAAAAAb+zdQQ0AMQgAwVbB+ZdZBT0TTZbHjAS+bAAAyIjYAAAAAAAAAAAAyIjYAAAAAAAAAAAAyIjYAAAAAAAAAAAAyIjYAAAAAAAAAAAAyIjYAAAAAAAAAAAAyIjYAAAAAAAAAAAAyIjYAAAAAAAAAAAAyIjYAAAAAAAAAAAAyIjYAAAAAAAAAAAAyIjYAAAAAAAAAAAAyIjYAAAAAAAAAAAAyIjYAAAAAAAAAAAAyIjYAAAAAAAAAAAAyIjYAAAAAAAAAAAAyIjYAAAAAAAAAAAAyIjYAAAAAAAAAAAAyIjYAAAAAAAAAAAAyIjYAAAAAAAAAAAAyIjYAAAAAAAAAAAAyIjYAAAAAAAAAAAAyIjYAAAAAAAAAAAAyIjYAAAAAAAAAAAAyIjYAAAAAAAAAAAAyIjYAAAAAAAAAAAAyIjYAAAAAAAAAAAAyIjYAAAAAAAAAAAAyIjYAAAAAAAAAAAAyIjYAAAAAAAAAAAAyIjYAAAAAAAAAAAAyIjYAAAAAAAAAAAAyIjYAAAAAAAAAAAAyIjYAAAAAAAAAAAAyIjYAAAAAAAAAAAAyIjYAAAAAAAAAAAAyIjYAAAAAAAAAAAAyIjYAAAAAAAAAAAAyIjYAAAAAAAAAAAAyIjYAAAAAAAAAAAAyIjYAAAAAAAAAAAAyIjYAAAAAAAAAAAAyIjYAAAAAAAAAAAAyIjYAAAAAAAAAAAAyIjYAAAAAAAAAAAAyIjYAAAAAAAAAAAAyIjYAAAAAAAAAAAAyIjYAAAAAAAAAAAAyIjYAAAAAAAAAAAAyIjYAAAAAAAAAAAAyIjYAAAAAAAAAAAAyIjYAAAAAAAAAAAAyIjYAAAAAAAAAAAAyIjYAAAAAAAAAAAAyIjYAAAAAAAAAAAAyIjYAAAAAAAAAAAAyIjYAAAAAAAAAAAAyIjYAAAAAAAAAAAAyIjYAAAAAAAAAAAAyIjYAAAAAAAAAAAAyIjYAAAAAAAAAAAAyIjYAAAAAAAAAAAAyIjYAAAAAAAAAAAAyIjYAAAAAAAAAAAAyIjYAAAAAAAAAAAAyIjYAAAAAAAAAAAAyIjYAAAAAAAAAAAAyIjYAAAAAAAAAAAAyIjYAAAAAAAAAAAAyIjYAAAAAAAAAAAAyIjYAAAAAAAAAAAAyIjYAAAAAAAAAAAAyIjYAAAAAAAAAAAAyIjYAAAAAAAAAAAAyIjYAAAAAAAAAAAAyIjYAAAAAAAAAAAAyIjYAAAAAAAAAAAAyIjYAAAAAAAAAAAAyIjYAAAAAAAAAAAAyIjYAAAAAAAAAAAAyIjYAAAAAAAAAAAAyIjYAAAAAAAAAAAAyIjYAAAAAAAAAAAAyIjYAAAAAAAAAAAAyIjYAAAAAAAAAAAAyIjYAAAAAAAAAAAAyIjYAAAAAAAAAAAAyIjYAAAAAAAAAAAAyIjYAAAAAAAAAAAAyIjYAAAAAAAAAAAAyIjYAAAAAAAAAAAAyIjYAAAAAAAAAAAAyIjYAAAAAAAAAAAAyIjYAAAAAAAAAAAAyIjYAAAAAAAAAAAAyIjYAAAAAAAAAAAAyIjYAAAAAAAAAAAAyIjYAAAAAAAAAAAAyIjYAAAAAAAAAAAAyIjYAAAAAAAAAAAAyIjYAAAAAAAAAAAAyIjYAAAAAAAAAAAAyIjYAAAAAAAAAAAAyIjYAAAAAAAAAAAAyIjYAAAAAAAAAAAAyIjYAAAAAAAAAAAAyIjYAAAAAAAAAAAAyIjYAAAAAAAAAAAAyIjYAAAAAAAAAAAAyIjYAAAAAAAAAAAAyIjYAAAAAAAAAAAAyIjYAAAAAAAAAAAAyIjYAAAAAAAAAAAAyIjYAAAAAAAAAAAAyIjYAAAAAAAAAAAAyIjYAAAAAAAAAAAAyIjYAAAAAAAAAAAAyIjYAAAAAAAAAAAAyIjYAAAAAAAAAAAAyIjYAAAAAAAAAAAAyIjYAAAAAAAAAAAAyIjYAAAAAAAAAAAAyIjYAAAAAAAAAAAAyIjYAAAAAAAAAAAAyIjYAAAAAAAAAAAAyIjYAAAAAAAAAAAAyIjYAAAAAAAAAAAAyIjYAAAAAAAAAAAAyIjYAAAZg1jgAAAgAElEQVQAAAAAAAAAyIjYAAAAAAAAAAAAyIjYAAAAAAAAAAAAyIjYAAAAAAAAAAAAyIjYAAAAAAAAAAAAyIjYAAAAAAAAAAAAyIjYAAAAAAAAAAAAyIjYAAAAAAAAAAAAyIjYAAAAAAAAAAAAyIjYAAAAAAAAAAAAyIjYAAAAAAAAAAAAyIjYAAAAAAAAAAAAyIjYAAAAAAAAAAAAyIjYAAAAAAAAAAAAyIjYAAAAAAAAAAAAyIjYAAAAAAAAAAAAyIjYAAAAAAAAAAAAyIjYAAAAAAAAAAAAyIjYAAAAAAAAAAAAyIjYAAAAAAAAAAAAyIjYAAAAAAAAAAAAyIjYAAAAAAAAAAAAyIjYAAAAAAAAAAAAyIjYAAAAAAAAAAAAyIjYAAAAAAAAAAAAyIjYAAAAAAAAAAAAyIjYAAAAAAAAAAAAyIjYAAAAAAAAAAAAyIjYAAAAAAAAAAAAyIjYAAAAAAAAAAAAyIjYAAAAAAAAAAAAyIjYAAAAAAAAAAAAyIjYAAAAAAAAAAAAyIjYAAAAAAAAAAAAyIjYAAAAAAAAAAAAyIjYAAAAAAAAAAAAyIjYAAAAAAAAAAAAyIjYAAAAAAAAAAAAyIjYAAAAAAAAAAAAyIjYAAAAAAAAAAAAyIjYAAAAAAAAAAAAyIjYAAAAAAAAAAAAyIjYAAAAAAAAAAAAyIjYAAAAAAAAAAAAyIjYAAAAAAAAAAAAyIjYAAAAAAAAAAAAyIjYAAAAAAAAAAAAyIjYAAAAAAAAAAAAyIjYAAAAAAAAAAAAyIjYAAAAAAAAAAAAyIjYAAAAAAAAAAAAyIjYAAAAAAAAAAAAyIjYAAAAAAAAAAAAyIjYAAAAAAAAAAAAyIjYAAAAAAAAAAAAyIjYAAAAAAAAAAAAyIjYAAAAAAAAAAAAyIjYAAAAAAAAAAAAyIjYAAAAAAAAAAAAyIjYAAAAAAAAAAAAyIjYAAAAAAAAAAAAyIjYAAAAAAAAAAAAyIjYAAAAAAAAAAAAyIjYAAAAAAAAAAAAyIjYAAAAAAAAAAAAyIjYAAAAAAAAAAAAyIjYAAAAAAAAAAAAyIjYAAAAAAAAAAAAyIjYAAAAAAAAAAAAyIjYAAAAAAAAAAAAyIjYAAAAAAAAAAAAyIjYAAAAAAAAAAAAyIjYAAAAAAAAAAAAyIjYAAAAAAAAAAAAyIjYAAAAAAAAAAAAyIjYAAAAAAAAAAAAyIjYAAAAAAAAAAAAyIjYAAAAAAAAAAAAyIjYAAAAAAAAAAAAyIjYAAAAAAAAAAAAyIjYAAAAAAAAAAAAyIjYAAAAAAAAAAAAyIjYAAAAAAAAAAAAyIjYAAAAAAAAAAAAyIjYAAAAAAAAAAAAyIjYAAAAAAAAAAAAyIjYAAAAAAAAAAAAyIjYAAAAAAAAAAAAyIjYAAAAAAAAAAAAyIjYAAAAAAAAAAAAyIjYAAAAAAAAAAAAyIjYAAAAAAAAAAAAyIjYAAAAAAAAAAAAyIjYAAAAAAAAAAAAyIjYAAAAAAAAAAAAyIjYAAAAAAAAAAAAyIjYAAAAAAAAAAAAyIjYAAAAAAAAAAAAyIjYAAAAAAAAAAAAyIjYAAAAAAAAAAAAyGwjAAAAmOdb95oCAAC8d9a2GwEAABjGJTYAAAAAAAAAAAAyIjYAAAAAAAAAAAAyTmYDAAAM5q0oAAC84Y0oAAAAAAAAAAAAAAAAAAAAAAAAAAAAAAAAAAAAAAAAAAAAAAAAAAAAAAAAAAAAAAAAAAAAAAAAAAAAAAAAAAAAAAAAAAAAAAAAAAAAAAAAAAAAAAAAAAAAAAAAAAAAAAAAAAAAAAAAAAAAAAAAAAAAAAAAAAAAAAAAAAAAAAAAAAAAAAAAAAAAAAAAAAAAAAAAAAAAAAAAAAAAAAAAAAAAAAAAAAAAAAAAAAAAAAAAAAAAAAAAAAAAAAAAAAAAAAAAAAAAAAAAAAAAAAAAAAAAAAAAAAAAAAAAAAAAAAAAAAAAAAAAAAAAAAAAAAAAAAAAAAAAAAAAAAAAAAAAAAAAAAAAAAAAAAAAAAAAAAAAAAAAAAAAAAAAAAAAAAAAAAAAAAAAAAAAAAAAAAAAAAAAAAAAAAAAAAAAAAAAAAAAAAAAAAAAAAAAAAAAAAAAAAAAAAAAAAAAAAAAAAAAAAAAAAAAAAAAAAAAAAAAAAAAAAAAAAAAAAAAAAAAAAAAAAAAAAAAAAAAAAAAAAAAAAAAAAAAAAAAAAAAAAAAAAAAAAAAAAAAAAAAAAAAAAAAAAAAAAAAAAAAAAAAAAAAAAAAAAAAAAAAAAAAAAAAAAAAAAAAAAAAAAAAAAAAAAAAAAAAAAAAAAAAAAAAAAAAAAAAAAAAAAAAAAAAAAAAAAAAAAAAAAAAAAAAAAAAAAAAAAAAAAAAAAAAAAAAAAAAAAAAAAAAAAAAAAAAAAAAAAAAAAAAAAAAAAAAAAAAAAAAAAAAAAAAAAAAAAAAAAAAAAAAAAAAAAAAAAAAAAAAAAAAAAAAAAAAAAAAAAAAAAAAAAAAAAAAAAAAAAAAAAAAAAAAAAAAAAAAAAAAAAAAAAAAAAAAAAAAAAAAAAAAAAAAAAAAAAAAAAAAAAAAAAAAAAAAAAAAAAAAAAAAAAAAAAAAAAAAAAAAAAAAAAAAAAAAAAAAAAAAAAAAAAAAAAAAAAAAAAAAAAAAAAAAAAAAAAAAAAAAAAAAAAAAAAAAAAAAAAAAAAAAAAAAAAAAAAAAAAAAAAAAAAAAAAAAAAAAAAAAAAAAAAAAAAAAAAAAAAAAAAAAAAAAAAAAAAAAAAAAAAAAAAAAAAAAAAAAAAAAAAAAAAAAAAAAAAAAAAAAAAAAAAAAAAAAAAAAAAAAAAAAAAAAAAAAAAAAAAAAAAAAAAAAAAAAAAAAAAAAAAAAAAAAAAAAAAAAAAAAAAAAAAAAAAAAAAAAAAAAAAAAAAAAAAAAAAAAAAAAAAAAAAAAAAAAAAAAAAAAAAAAAAAAAAAAAAAAAAAAAAAAAAAAAAAAAAAAAAAAAAAAAAAAAAAAAAAAAAAAAAAAAAAAAAAAAAAAAAAAAAAAAAAAAAAAAAAAAAAAAAAAAAAAAAAAAAAAAAAAAAAAAAAAAAAAAAAAAAAAAAAAAAAAAAAAAAAAAAAAAAAAAAAAAAAAAAAAAAAAAAAAAAAAAAAAAAAAAAAAAAAAAAAAAAAAAAAAAAAAAAAAAAAAAAAAAAAAAAAAAAAAAAAAAAAAAAAAAAAAAAAAAAAAAAAAAAAAAAAAAAAAAAAAAAAAAAAAAAAAAAAAAAAAAAAAAAAAAAAAAAAAAAAAAAAAAAAAAAAAAAAAAAAAAAAAAAAAAAAAAAAAAAAAAAAAAAAAAAAAAAAAAAAAAAAAAAAAAAAAAAAAAAAAAAAAAAAAAAAAAAAAAAAAAAAAAAAAAAAAAAAAAAAAAAAAAAAAAAAAAAAAAAAAAAAAAAAAAAAAAAAAAAAAAAAAAAAAAAAAAAAAAAAAAAAAAAAAAAAAAAAAAAAAAAAAAAAAAAAAAAAAAAAAAAAAAAAAAAAAAAAAAAAAAAAAAAAAAAAAAAAAAAAAAAAAAAAAAAAAAAAAAAAAAAAAAAAAAAAAAAAAAAAAAAAAAAAAAAAAAAAAAAAAAAAAAAAAAAAAAAAAAAAAAAAAAAAAAAAAAAAAAAAAAAAAAAAAAAAAAAAAAAAAAAAAAAAAAAAAAAAAAAAAAAAAAAAAAAAAAAAAAAAAAAAAAAAAAAAAAAAAAAAAAAAAAAAAAAAAAAAAAAAAAAAAAAAAAAAAAAAAAAAAAAAAAAAAAAAAAAAAAAAAAAAAAAAAAAAAAAAAAAAAAAAAAAAAAAAAAAAAAAAAAAAAAAAAAAAAAAAAAAAAAAAAAAAAAAAAAAAAAAAAAAAAAAAAAAAAAAAAAAAAAAAAAAAAAAAAAAAAAAAAAAAAAAAAAAAAAAAAAAAAAAAAAAAAAAAAAAAAAAAAAAAAAAAAAAAAAAAAAAAAAAAAAAAAAAAAAAAAAAAAAAAAAAAAAAAAAAAAAAAAAAAAAAAAAAAAAAAAAAAAAAAAAAAAAAAAAAAAAAAAAAAAAAAAAAAAAAAAAAAAAAAAAAAAAAAAAAAAAAAAAAAAAAAAAAAAAAAAAAAAAAAAAAAAAAAAAAAAAAAAAAAAAAAAAAAAAAAAwM8eHAgAAAAAAPm/NoKqqqqqqqqqqqqqqqqqqqqqqqqqqqqqqqqqqqqqqqqqqqqqqqqqqqqqqqqqqqqqqqqqqqqqqqqqqqqqqqqqqqqqqqqqqqqqqqqqqqqqqqqqqqqqqqqqqqqqqqqqqqqqqqqqqqqqqqqqqqqqqqqqqqqqqqqqqqqqqqqqqqqqqqqqqqqqqqqqqqqqqqqqqqqqqqqqqqqqqqqqqqqqqqqqqqqqqqqqqqqqqqqqqqqqqqqqqqqqqqqqqqqqqqqqqqqqqqqqqqqqqqqqqqqqqqqqqqqqqqqqqqqqqqqqqqqqqqqqqqqqqqqqqqqqqqqqqqqqqqqqqqqqqqqqqqqqqqqqqqqqqqqqqqqqqqqqqqqqqqqqqqqqqqqqqqqqqqqqqqqqqqqqqqqqqqqqqqqqqqqqqqqqqqqqqqqqqqqqqqqqqqqqqqqqqqqqqqqqqqqqqqqqqqqqqqqqqqqqqqqqqqqqqqqqqqqqqqqqqqqqqqqqqqqqqqqqqqqqqqqqqqqqqqqqqqqqqqqqqqqqqqqqqqqqqqqqqqqqqqqqqqqqqqqqqqqqqqqqqqqqqqqqqqqqqqqqqqqqqqqqqqqqqqqqqqqqqqqqqqqqqqqqqqqqqqqqqqqqqqqqqqqqqqqqqqqqqqqqqqqqqqqqqqqqqqqqqqqqqqqqqqqqqqqqqqqqqqqqqqqqqqqqqqqqqqqqqqqqqqqqqqqqqqqqqqqqqqqqqqqqqqqqqqqqqqqqqqqqqqqqqqqqqqqqqqqqqqqqqqqqqqqqqqqqqqqqqqqqqqqqqqqqqqqqqqqqqqqqqqqqqqqqqqqqqqqqqqqqqqqqqqqqqqqqqqqqqqqqqqqqqqqqqqqqqqqqqqqqqqqqqqqqqqqqqqqqqqqqqqqqqqqqqqqqqqqqqqqqqqqqqqqqqqqqqqqqqqqqqqqqqqqqqqqqqqqqqqqqqqqqqqqqqqqqqqqqqqqqqqqqqqqqqqqqqqqqqqqqqqqqqqqqqqqqqqqqqqqqqqqqqqqqqqqqqqqqqqqqqqqqqqqqqqqqqqqqqqqqqqqqqqqqqqqqqqqqqqqqqqqqqqqqqqqqqqqqqqqqqqqqqqqqqqqqqqqqqqqqqqqqqqqqqqqqqqqqqqqqqqqqqqqqqqqqqqqqqqqqqqqqqqqqqqqqqqqqqqqqqqqqqqqqqqqqqqqqqqqqqqqqqqqqqqqqqqqqqqqqqqqqqqqqqqqqqqqqqqqqqqqqqqqqqqqqqqqqqqqqqqqqqqqqqqqqqqqqqqqqqqqqqqqqqqqqqqqqqqqqqqqqqqqqqqqqqqqqqqqqqqqqqqqqqqqqqqqqqqqqqqqqqqqqqqqqqqqqqqqqqqqqqqqqqqqqqqqqqqqqqqqqqqqqqqqqqqqqqqqqqqqqqqqqqqqqqqqqqqqqqqqqqqqqqqqqqqqqqqqqqqqqqqqqqqqqqqqqqqqqqqqqqqqqqqqqqqqqqqqqqqqqqqqqqqqqqqqqqqqqqqqqqqqqqqqqqqqqqqqqqqqqqqqqqqqqqqqqqqqqqqqqqqqqqqqqqqqqqqqqqqqqqqqqqqqqqqqqqqqqqqqqqqqqqqqqqqqqqqqqqqqqqqqqqqqqqqqqqqqqqqqqqqqqqqqqqqqqqqqqqqqqqqqqqqqqqqqqqqqqqqqqqqqqqqqqqqqqqqqqqqqqqqqqqqqqqqqqqqqqqqqqqqqqqqqqqqqqqqqqqqqqqqqqqqqqqqqqqqqqqqqqqqqqqqqqqqqqqqqqqqqqqqqqqqqqqqqqqqqqqqqqqqqqqqqqqqqqqqqqqqqqqqqqqqqqqqqqqqqqqqqqqqqqqqqqqqqqqqqqqqqqqqqqqqqqqqqqqqqqqqqqqqqqqqqqqqqqqqqqqqqqqqqqqqqqqqqqqqqqqqqqqqqqqqqqqqqqqqqqqqqqqqqqqqqqqqqqqqqqqqqqqqqqqqqqqqqqqqqqqqqqqqqqqqqqqqqqqqqqqqqqqqqqqqqqqqqqqqqqqqqqqqqqqqqqqqqqqqqqqqqqqqqqqqqqqqqqqqqqqqqqqqqqqqqqqqqqqqqqqqqqqqqqqqqqqqqqqqqqqqqqqqqqqqqqqqqqqqqqqqqqqqqqqqqqqqqqqqqqqqqqqqqqqqqqqqqqqqqqqqqqqqqqqqqqqqqqqqqqqqqqqqqqqqqqqqqqqqqqqqqqqqqqqqqqqqqqqqqqqqqqqqqqqqqqqqqqqqqqqqqqqqqqqqqqqqqqqqqqqqqqqqqqqqqqqqqqqqqqqqqqqqqqqqqqqqqqqqqqqqqqqqqqqqqqqqqqqqqqqqqqqqqqqqqqqqqqqqqqqqqqqqqqqqqqqqqqqqqqqqqqqqqqqqqqqqqqqqqqqqqqqqqqqqqqqqqqqqqqqqqqqqqqqqqqqqqqqqqqqqqqqqqqqqqqqqqqqqqqqqqqqqqqqqqqqqqqqqqqqqqqqqqqqqqqqqqqqqqqqqqqqqqqqqqqqqqqqqqqqqqqqqqqqqqqqqqqqqqqqqqqqqqqqqqqqqqqqqqqqqqqqqqqqqqqqqqqqqqqqqqqqqqqqqqqqqqqqqqqqqqqqqqqqqqqqqqqqqqqqqqqqqqqqqqqqqqqqqqqqqqqqqqqqqqqqqqqqqqqqqqqqqqqqqqqqqqqqqqqqqqqqqqqqqqqqqqqqqqqqqqqqqqqqqqqqqqqqqqqqqqqqqqqqqqqqqqqqqqqqqqqqqqqqqqqqqqqqqqqqqqqqqqqqqqqqqqqqqqqqqqqqqqqqqqqqqqqqqqqqqqqqqqqqqqqqqqqqqqqqqqqqqqqqqqqqqqqqqqqqqqqqqqqqqqqqqqqqqqqqqqqqqqqqqqqqqqqqqqqqqqqqqqqqqqqqqqqqqqqqqqqqqqqqqqqqqqqqqqqqqqqqqqqqqqqqqqqqqqqqqqqqqqqqqqqqqqqqqqqqqqqqqqqqqqqqqqqqqqqqqqqqqqqqqqqqqqqqqqqqqqqqqqqqqqqqqqqqqqqqqqqqqqqqqqqqqqqqqqqqqqqqqqqqqqqqqqqqqqqqqqqqqqqqqqqqqqqqqqqqqqqqqqqqqqqqqqqqqqqqqqqqqqqqqqqqqqqqqqqqqqqqqqqqqqqqqqqqqqqqqqqqqqqqqqqqqqqqqqqqqqqqqqqqqqqqqqqqqqqqqqqqqqqqqqqqqqqqqqqqqqqqqqqqqqqqqqqqqqqqqqqqqqqqqqqqqqqqqqqqqqqqqqqqqqqqqqqqqqqqqqqqqqqqqqqqqqqqqqqqqqqqqqqqqqqqqqqqqqqqqqqqqqqqqqqqqqqqqqqqqqqqqqqqqqqqqqqqqqqqqqqqqqqqqqqqqqqqqqqqqqqqqqqqqqqqqqqqqqqqqqqqqqqqqqqqqqqqqqqqqqqqqqqqqqqqqqqqqqqqqqqqqqqqqqqqqqqqqqqqqqqqqqqqqqqqqqqqqqqqqqqqqqqqqqqqqqqqqqqqqqqqqqqqqqqqqqqqqqqqqqqqqqqqqqqqqqqqqqqqqqqqqqqqqqqqqqqqqqqqqqqqqqqqqqqqqqqqqqqqqqqqqqqqqqqqqqqqqqqqqqqqqqqqqqqqqqqqqqqqqqqqqqqqqqqqqqqqqqqqqqqqqqqqqqqqqqqqqqqqqqqqqqqqqqqqqqqqqqqqqqqqqqqqqqqqqqqqqqqqqqqqqqqqqqqqqqqqqqqqqqqqqqqqqqqqqqqqqqqqqqqqqqqqqqqqqqqqqqqqqqqqqqqqqqqqqqqqqqqqqqqqqqqqqqqqqqqqqqqqqqqqqqqqqqqqqqqqqqqqqqqqqqqqqqqqqqqqqqqqqqqqqqqqqqqqqqqqqqqqqqqqqqqqqqqqqqqqqqqqqqqqqqqqqqqqqqqqqqqqqqqqqqqqqqqqqqqqqqqqqqqqqqqqqqqqqqqqqqqqqqqqqqqqqqqqqqqqqqqqqqqqqqqqqqqqqqqqqqqqqqqqqqqqqqqqqqqqqqqqqqqqqqqqqqqqqqqqqqqqqqqqqqqqqqqqqqqqqqqqqqqqqqqqqqqqqqqqqqqqqqqqqqqqqqqqqqqqqqqqqqqqqqqqqqqqqqqqqqqqqqqqqqqqqqqqqqqqqqqqqqqqqqqqqqqqqqqqqqqqqqqqqqqqqqqqqqqqqqqqqqqqqqqqqqqqqqqqqqqqqqqqqqqqqqqqqqqqqqqqqqqqqqqqqqqqqqqqqqqqqqqqqqqqqqqqqqqqqqqqqqqqqqqqqqqqqqqqqqqqqqqqqqqqqqqqqqqqqqqqqqqqqqqqqqqqqqqqqqqqqqqqqqqqqqqqqqqqqqqqqqqqqqqqqqqqqqqqqqqqqqqqqqqqqqqqqqqqqqqqqqqqqqqqqqqqqqqqqqqqqqqqqqqqqqqqqqqqqqqqqqqqqqqqqqqqqqqqqqqqqqqqqqqqqqqqqqqqqqqqqqqqqqqqqqqqqqqqqqqqqqqqqqqqqqqqqqqqqqqqqqqqqqqqqqqqqqqqqqqqqqqqqqqqqqqqqqqqqqqqqqqqqqqqqqqqqqqqqqqqqqqqqqqqqqqqqqqqqqqqqqqqqqqqqqqqqqqqqqqqqqqqqqqqqqqqqqqqqqqqqqqqqqqqqqqqqqqqqqqqqqqqqqqqqqqqqqqqqqqqqqqqqqqqqqqqqqqqqqqqqqqqqqqqqqqqqqqqqqqqqqqqqqqqqqqqqqqqqqqqqqqqqqqqqqqqqqqqqqqqqqqqqqqqqqqqqqqqqqqqqqqqqqqqqqqqqqqqqqqqqqqqqqqqqqqqqqqqqqqqqqqqqqqqqqqqqqqqqqqqqqqqqqqqqqqqqqqqqqqqqqqqqqqqqqqqqqqqqqqqqqqqqqqqqqqqqqqqqqqqqqqqqqqqqqqqqqqqqqqqqqqqqqqqqqqqqqqqqqqqqqqqqqqqqqqqqqqqqqqqqqqqqqqqqqqqqqqqqqqqqqqqqqqqqqqqqqqqqqqqqqqqqqqqqqqqqqqqqqqqqqqqqqqqqqqqqqqqqqqqqqqqqqqqqqqqqqqqqqqqqqqqqqqqqqqqqqqqqqqqqqqqqqqqqqqqqqqqqqqqqqqqqqqqqqqqqqqqqqqqqqqqqqqqqqqqqqqqqqqqqqqqqqqqqqqqqqqqqqqqqqqqqqqqqqqqqqqqqqqqqqqqqqqqqqqqqqqqqqqqqqqqqqqqqqqqqqqqqqqqqqqqqqqqqqqqqqqqqqqqqqqqqqqqqqqqqqqqqqqqqqqqqqqqqqqqqqqqqqqqqqqqqqqqqqqqqqqqqqqqqqqqqqqqqqqqqqqqqqqqqqqqqqqqqqqqqqqqqqqqqqqqqqqqqqqqqqqqqqqqqqqqqqqqqqqqqqqqqqqqqqqqqqqqqqqqqqqqqqqqqqqqqqqqqqqqqqqqqqqqqqqqqqqqqqqqqqqqqqqqqqqqqqqqqqqqqqqqqqqqqqqqqqqqqqqqqqqqqqqqqqqqqqqqqqqqqqqqqqqqqqqqqqqqqqqqqqqqqqqqqqqqqqqqqqqqqqqqqqqqqqqqqqqqqqqqqqqqqqqqqqqqqqqqqqqqqqqqqqqqqpKe3BAAAAAACDk/+uGBAAAAAAAAAAAAAAAAAAAAAAAAAAAAAAAAAAAAAAAAAAAAAAAAAAAAAAAAAAAAAAAAAAAAAAAAAAAAAAAAAAAAAAAAAAAAAAAAAAAAAAAAAAAAAAAAAAAAAAAAAAAAAAAAAAAAAAAAAAAAAAAAAAAAAAAAAAAAAAAAAAAAAAAAAAAAAAAAAAAAAAAAAAAAAAAAAAAAAAAAAAAAAAAAAAAAAAAAAAAAAAAAAAAAAAAAAAAAAAAAAAAAAAAAAAAAAAAAAAAAAAAAAAAAAAAAAAAAAAAAAAAAAAAAAAAAAAAAAAAAAAAAAAAAAAAAAAAAAAAAAAAAAAAAAAAAAAAAAAAAAAAAAAAAAAAAAAAAAAAAAAAAAAAAAAAAAAAAAAAAAAAAAAAAAAAAAAAAAAAAAAAAAAAAAAAAAAAAAAAAAAAAAAAAAAAAAAAAAAAAAAAAAAAAAAAAAAAAAAAAAAAAAAAAAAAAAAAAAAAAAAAAAAAAAAAAAAAAAAAAAAAAAAAAAAAAAAAAAAAAAAAAAAAAAAAAAAAAAAAAAAAAAAAAAAAAAAAAAAAAAAAAAAAAAAAAAAAAAAAAAAAAAAAAAAAAAAAAAAAAAAAAAAAAAAAAAAAAAAAAAAAAAAAAAAAAAAAAAAAAAAAAAAAAAAAAAAAAAAAAAAAAAAAAAAAAAAAAAAAAAAAAAAAAAAAAAAAAAAAAAAAAAAAAAAAAAAAAAAAAAAAAAAAAAAAAAAAAAAAAAAAAAAAAAAAAAAAAAAAAAAAAAAAAAAAAAAAAAAAAAAAAAAAAAAAAAAAAAAAAAAAAAAAAAAAAAAAAAAAAAAAAAAAAAAAAAAAAAAAAAAAAAAAAAAAAAAAAAAAAAAAAAAAAAAAAAAAAAAAAAAAAAAAAAAAAAAAAAAAAAAAAAAAAAAAAAAAAAAAAAAAAAAAAAAAAAAAAAAAAAAAAAAAAAAAAAAAAAAAAAAAAAAAAAAAAAAAAAAAAAAAAAAAAAAAAAAAAAAAAAAAAAAAAAAAAAAAAAAAAAAAAAAAAAAAAAAAAAAAAAAAAAAAAAAAAAAAAAAAAAAAAAAAAAAAAAAAAAAAAAAAAAAAAAAAAAAAAAAAAAAAAAAAAAAAAAAAAAAAAAAAAAAAAAAAAAAAAAAAAAAAAAAAAAAAAAAAAAAAAAAAAAAAAAAAAAAAAAAAAAAAAAAAAAAAAAAAAAAAAAAAAAAAAAAAAAAAAAAAAAAAAAAAAAAAAAAAAAAAAAAAAAAAAAAAAAAAAAAAAAAAAAAAAAAAAAAAAAAAAOV6H3cAAAXsSURBVAAAAAAAAAAAAAAAAAAAAAAAAAAAAAAAAAAAAAAAAAAAAAAAAAAAAAAAAAAAAAAAAAAAAAAAAAAAAAAAAAAAAAAAAAAAAAAAAAAAAAAAAAAAAAAAAAAAAAAAAAAAAAAAAAAAAAAAAAAAAAAAAAAAAAAAAAAAAAAAAAAAAAAAAAAAAAAAAAAAAAAAAAAAAAAAAAAAAAAAAAAAAAAAAAAAAAAAAAAAAAAAAAAAAAAAAAAAAAAAAAAAAAAAAAAAAAAAAAAAAAAAAAAAAAAAAAAAAAAAAAAAAAAAAAAAAAAAAAAAAAAAAAAAAAAAAAAAAAAAAAAAAAAAAAAAAAAAAAAAAAAAAAAAAAAAAAAAAAAAAAAAAAAAAAAAAAAAAAAAAAAAAAAAAAAAAAAAAAAAAAAAAAAAAAAAAAAAAAAAAAAAAAAAAAAAAAAAAAAAAAAAAAAAAAAAAAAAAAAAAAAAAAAAAAAAAAAAAAAAAAAAAAAAAAAAAAAAAAAAAAAAAAAAAAAAAAAAAAAAAAAAAAAAAAAAAAAAAAAAAAAAAAAAAAAAAAAAAAAAAAAAAAAAAAAAAAAAAAAAAAAAAAAAAAAAAAAAAAAAAAAAAAAAAAAAAAAAAAAAAAAAAAAAAAAAAAAAAAAAAAAAAAAAAAAAAAAAAAAAAAAAAAAAAAAAAAAAAAAAAAAAAAAAAAAAAAAAAAAAAAAAAAAAAAAAAAAAAAAAAAAAAAAAAAAAAAAAAAAAAAAAAAAAAAAAAAAAAAAAAAAAAAAAAAAAAAAAAAAAAAAAAAAAAAAAAAAAAAAAAAAAAAAAAAAAAAAAAAAAAAAAAAAAAAAAAAAAAAAAAAAAAAAAAAAAAAAAAAAAAAAAAAAAAAAAAAAAAAAAAAAAAAAAAAAAAAAAAAAAAAAAAAAAAAAAAAAAAAAAAAAAAAAAAAAAAAAAAAAAAAAAAAAAAAAAAAAAAAAAAAAAAAAAAAAAAAAAAAAAAAAAAAAAAAAAAAAAAAAAAAAAAAAAAAAAAAAAAAAAAAAAAAAAAAAAAAAAAAAAAAAAAAAAAAAAAAAAAAAAAAAAAAAAAAAAAAAAAAAAAAAAAAAAAAAAAAAAAAAAAAAAAAAAAAAAAAAAAAAAAAAAAAAAAAAAAAAAAAAAAAAAAAAAAAAAAAAAAAAAAAAAAAAAAAAAAAAAAAAAAAAAAAAAAAAAAAAAAAAAAAAAAAAAAAAAAAAAAAAAAAAAAAAAAAAAAAAAAAAAAAAAAAAAAAAAAAAAAAAAAAAAAAAAAAAAAAAAAAAAAAAAAAAAAAAAAAAAAAAAAAAAAAAAAAAAAAAAAAAAAAAAAAAAAAAAAAAAAAAAAAAAAAAAAAAAAAAAAAAAAAAAAAAAAAAAAAAAAAAAAAAAAAAAAAAAAAAAAAAAAAAAAAAAAAAAAAAAAAAAAAAAAAAAAAAAAAAAAAAAAAAAAAAAAAAAAAAAAAAAAAAAAAAAAAAAAAAAAAAAAAAAAAAAAAAAAAAAAAAAAAAAAAAAAAAAAAAAAAAAAAAAAAAAAAAAAAAAAAAAAAAAAAAAAAAAAAAAAAAAAAAAAAAAAAAAAAAAAAAAAAAAAAAAAAAAAAAAAAAAAAAAAAAAAAAAAAAAAAAAAAAAAAAAAAAAAAAAAAAAAAAAAAAAAAAAAAAAAAAAAAAAAAAAAAAAAAAAAAAAAAAAAAAAAAAAAAAAAAAAAAAAAAAAAAAAAAAAAAAAAAAAAAAAAAAAAAAAAAAAAAAAAAAAAAAAAAAAAAAAAAAAAAAAAAAAAAAAAAAAAAAAAAAAAAAAAAAAAAAAAAAAAAAAAAAAAAAAAAAAAAAAAAAAAAAAAAAAAAAAAAAAAAAAAAAAAAAAAAAAAAAAAAAAAAAAAAAAAAAAAAAAAAAAAAAAAAAAAAAAAAAAAAAAAAAAAAAAAAAAAAAAAAAAAAAAAAAAAAAAAAAAAAAAAAAAAAAAAAAAAAAAAAAAAAAAAAAAAAAAAAAAAAAAAAAAAAAAAAAAAAAAAAAAAAAAAAC2Aj1doS87AT3XAAAAAElFTkSuQmCC;" parent="09NwuwOXUuBhDLMwwQkK-11" vertex="1">
          <mxGeometry x="20" y="-1150" width="1200" height="1696.73" as="geometry" />
        </mxCell>
        <mxCell id="09NwuwOXUuBhDLMwwQkK-18" value="lines2" parent="0" />
        <mxCell id="09NwuwOXUuBhDLMwwQkK-20" value="" style="endArrow=none;html=1;rounded=0;" parent="09NwuwOXUuBhDLMwwQkK-18" edge="1">
          <mxGeometry width="50" height="50" relative="1" as="geometry">
            <mxPoint x="20" y="-725" as="sourcePoint" />
            <mxPoint x="1219" y="-725" as="targetPoint" />
          </mxGeometry>
        </mxCell>
        <mxCell id="09NwuwOXUuBhDLMwwQkK-21" value="" style="endArrow=none;html=1;rounded=0;" parent="09NwuwOXUuBhDLMwwQkK-18" edge="1">
          <mxGeometry width="50" height="50" relative="1" as="geometry">
            <mxPoint x="20" y="-302" as="sourcePoint" />
            <mxPoint x="1219" y="-302" as="targetPoint" />
          </mxGeometry>
        </mxCell>
        <mxCell id="09NwuwOXUuBhDLMwwQkK-22" value="" style="endArrow=none;html=1;rounded=0;" parent="09NwuwOXUuBhDLMwwQkK-18" edge="1">
          <mxGeometry width="50" height="50" relative="1" as="geometry">
            <mxPoint x="20" y="-302" as="sourcePoint" />
            <mxPoint x="20" y="-725" as="targetPoint" />
          </mxGeometry>
        </mxCell>
        <mxCell id="09NwuwOXUuBhDLMwwQkK-23" value="" style="endArrow=none;html=1;rounded=0;" parent="09NwuwOXUuBhDLMwwQkK-18" edge="1">
          <mxGeometry width="50" height="50" relative="1" as="geometry">
            <mxPoint x="444" y="123" as="sourcePoint" />
            <mxPoint x="444" y="-1149" as="targetPoint" />
          </mxGeometry>
        </mxCell>
        <mxCell id="09NwuwOXUuBhDLMwwQkK-24" value="" style="endArrow=none;html=1;rounded=0;" parent="09NwuwOXUuBhDLMwwQkK-18" edge="1">
          <mxGeometry width="50" height="50" relative="1" as="geometry">
            <mxPoint x="796" y="-302" as="sourcePoint" />
            <mxPoint x="796" y="-725" as="targetPoint" />
          </mxGeometry>
        </mxCell>
        <mxCell id="09NwuwOXUuBhDLMwwQkK-25" value="" style="endArrow=none;html=1;rounded=0;" parent="09NwuwOXUuBhDLMwwQkK-18" edge="1">
          <mxGeometry width="50" height="50" relative="1" as="geometry">
            <mxPoint x="1219" y="-302" as="sourcePoint" />
            <mxPoint x="1219" y="-725" as="targetPoint" />
          </mxGeometry>
        </mxCell>
        <mxCell id="09NwuwOXUuBhDLMwwQkK-26" value="" style="endArrow=none;html=1;rounded=0;" parent="09NwuwOXUuBhDLMwwQkK-18" edge="1">
          <mxGeometry width="50" height="50" relative="1" as="geometry">
            <mxPoint x="796" y="-725" as="sourcePoint" />
            <mxPoint x="1219" y="-302" as="targetPoint" />
          </mxGeometry>
        </mxCell>
        <mxCell id="09NwuwOXUuBhDLMwwQkK-27" value="" style="endArrow=none;html=1;rounded=0;" parent="09NwuwOXUuBhDLMwwQkK-18" edge="1">
          <mxGeometry width="50" height="50" relative="1" as="geometry">
            <mxPoint x="20" y="-302" as="sourcePoint" />
            <mxPoint x="444" y="-725" as="targetPoint" />
          </mxGeometry>
        </mxCell>
        <mxCell id="09NwuwOXUuBhDLMwwQkK-28" value="" style="endArrow=none;html=1;rounded=0;" parent="09NwuwOXUuBhDLMwwQkK-18" edge="1">
          <mxGeometry width="50" height="50" relative="1" as="geometry">
            <mxPoint x="444" y="-1149" as="sourcePoint" />
            <mxPoint x="796" y="-1149" as="targetPoint" />
          </mxGeometry>
        </mxCell>
        <mxCell id="09NwuwOXUuBhDLMwwQkK-29" value="" style="endArrow=none;html=1;rounded=0;" parent="09NwuwOXUuBhDLMwwQkK-18" edge="1">
          <mxGeometry width="50" height="50" relative="1" as="geometry">
            <mxPoint x="444" y="123" as="sourcePoint" />
            <mxPoint x="796" y="123" as="targetPoint" />
          </mxGeometry>
        </mxCell>
        <mxCell id="09NwuwOXUuBhDLMwwQkK-30" value="" style="endArrow=none;html=1;rounded=0;" parent="09NwuwOXUuBhDLMwwQkK-18" edge="1">
          <mxGeometry width="50" height="50" relative="1" as="geometry">
            <mxPoint x="796" y="123" as="sourcePoint" />
            <mxPoint x="796" y="-1149" as="targetPoint" />
          </mxGeometry>
        </mxCell>
        <mxCell id="09NwuwOXUuBhDLMwwQkK-19" value="text2" parent="0" />
        <mxCell id="09NwuwOXUuBhDLMwwQkK-31" value="Top / Bottom" style="text;html=1;align=center;verticalAlign=middle;whiteSpace=wrap;rounded=0;fontSize=25;" parent="09NwuwOXUuBhDLMwwQkK-19" vertex="1">
          <mxGeometry x="900" y="-860" width="60" height="30" as="geometry" />
        </mxCell>
        <mxCell id="09NwuwOXUuBhDLMwwQkK-33" value="S&lt;sub&gt;4&lt;/sub&gt;" style="text;html=1;align=center;verticalAlign=middle;whiteSpace=wrap;rounded=0;fontSize=25;fillColor=none;rotation=-90;" parent="09NwuwOXUuBhDLMwwQkK-19" vertex="1">
          <mxGeometry x="208" y="-780" width="60" height="30" as="geometry" />
        </mxCell>
        <mxCell id="09NwuwOXUuBhDLMwwQkK-34" value="S&lt;sub&gt;1&lt;/sub&gt;" style="text;html=1;align=center;verticalAlign=middle;whiteSpace=wrap;rounded=0;fontSize=25;fillColor=none;rotation=0;" parent="09NwuwOXUuBhDLMwwQkK-19" vertex="1">
          <mxGeometry x="820" y="-1000" width="60" height="30" as="geometry" />
        </mxCell>
        <mxCell id="09NwuwOXUuBhDLMwwQkK-37" value="S&lt;span style=&quot;font-size: 20.8333px;&quot;&gt;&lt;sub&gt;2&lt;/sub&gt;&lt;/span&gt;" style="text;html=1;align=center;verticalAlign=middle;whiteSpace=wrap;rounded=0;fontSize=25;fillColor=none;rotation=90;" parent="09NwuwOXUuBhDLMwwQkK-19" vertex="1">
          <mxGeometry x="990" y="-270" width="60" height="30" as="geometry" />
        </mxCell>
        <mxCell id="09NwuwOXUuBhDLMwwQkK-39" value="S&lt;sub&gt;3&lt;/sub&gt;" style="text;html=1;align=center;verticalAlign=middle;whiteSpace=wrap;rounded=0;fontSize=25;fillColor=none;rotation=-180;" parent="09NwuwOXUuBhDLMwwQkK-19" vertex="1">
          <mxGeometry x="370" y="-100" width="60" height="30" as="geometry" />
        </mxCell>
        <mxCell id="09NwuwOXUuBhDLMwwQkK-40" value="" style="endArrow=classic;html=1;rounded=0;strokeWidth=3;" parent="09NwuwOXUuBhDLMwwQkK-19" edge="1">
          <mxGeometry width="50" height="50" relative="1" as="geometry">
            <mxPoint x="880" y="-810" as="sourcePoint" />
            <mxPoint x="815" y="-743" as="targetPoint" />
          </mxGeometry>
        </mxCell>
      </root>
    </mxGraphModel>
  </diagram>
</mxfile>
